<svg width="1506" height="250" viewBox="0 0 1506 250" fill="none" xmlns="http://www.w3.org/2000/svg">
<rect width="1506" height="250" rx="50" fill="#FCFFFA"/>
<rect x="1" y="1" width="1504" height="248" rx="49" stroke="#3F6D26" stroke-opacity="0.5" stroke-width="2"/>
<path d="M366.48 161.1L361.26 175H358.62L353.38 161.1H355.82L359.94 172.66L364.08 161.1H366.48ZM368.547 162.52C368.133 162.52 367.787 162.38 367.507 162.1C367.227 161.82 367.087 161.473 367.087 161.06C367.087 160.647 367.227 160.3 367.507 160.02C367.787 159.74 368.133 159.6 368.547 159.6C368.947 159.6 369.287 159.74 369.567 160.02C369.847 160.3 369.987 160.647 369.987 161.06C369.987 161.473 369.847 161.82 369.567 162.1C369.287 162.38 368.947 162.52 368.547 162.52ZM369.667 163.98V175H367.387V163.98H369.667ZM381.76 169.22C381.76 169.633 381.733 170.007 381.68 170.34H373.26C373.327 171.22 373.653 171.927 374.24 172.46C374.827 172.993 375.547 173.26 376.4 173.26C377.627 173.26 378.493 172.747 379 171.72H381.46C381.127 172.733 380.52 173.567 379.64 174.22C378.773 174.86 377.693 175.18 376.4 175.18C375.347 175.18 374.4 174.947 373.56 174.48C372.733 174 372.08 173.333 371.6 172.48C371.133 171.613 370.9 170.613 370.9 169.48C370.9 168.347 371.127 167.353 371.58 166.5C372.047 165.633 372.693 164.967 373.52 164.5C374.36 164.033 375.32 163.8 376.4 163.8C377.44 163.8 378.367 164.027 379.18 164.48C379.993 164.933 380.627 165.573 381.08 166.4C381.533 167.213 381.76 168.153 381.76 169.22ZM379.38 168.5C379.367 167.66 379.067 166.987 378.48 166.48C377.893 165.973 377.167 165.72 376.3 165.72C375.513 165.72 374.84 165.973 374.28 166.48C373.72 166.973 373.387 167.647 373.28 168.5H379.38ZM397.804 163.98L394.384 175H391.984L389.764 166.86L387.544 175H385.144L381.704 163.98H384.024L386.324 172.84L388.664 163.98H391.044L393.284 172.8L395.564 163.98H397.804ZM411.083 172.16H405.263L404.263 175H401.883L406.863 161.08H409.503L414.483 175H412.083L411.083 172.16ZM410.443 170.3L408.183 163.84L405.903 170.3H410.443ZM417.928 160.2V175H415.648V160.2H417.928ZM422.202 160.2V175H419.922V160.2H422.202ZM437.371 161.1V162.96H433.671V175H431.391V162.96H427.671V161.1H437.371ZM448.78 169.22C448.78 169.633 448.753 170.007 448.7 170.34H440.28C440.346 171.22 440.673 171.927 441.26 172.46C441.846 172.993 442.566 173.26 443.42 173.26C444.646 173.26 445.513 172.747 446.02 171.72H448.48C448.146 172.733 447.54 173.567 446.66 174.22C445.793 174.86 444.713 175.18 443.42 175.18C442.366 175.18 441.42 174.947 440.58 174.48C439.753 174 439.1 173.333 438.62 172.48C438.153 171.613 437.92 170.613 437.92 169.48C437.92 168.347 438.146 167.353 438.6 166.5C439.066 165.633 439.713 164.967 440.54 164.5C441.38 164.033 442.34 163.8 443.42 163.8C444.46 163.8 445.386 164.027 446.2 164.48C447.013 164.933 447.646 165.573 448.1 166.4C448.553 167.213 448.78 168.153 448.78 169.22ZM446.4 168.5C446.386 167.66 446.086 166.987 445.5 166.48C444.913 165.973 444.186 165.72 443.32 165.72C442.533 165.72 441.86 165.973 441.3 166.48C440.74 166.973 440.406 167.647 440.3 168.5H446.4ZM463.363 163.8C464.23 163.8 465.003 163.98 465.683 164.34C466.377 164.7 466.917 165.233 467.303 165.94C467.703 166.647 467.903 167.5 467.903 168.5V175H465.643V168.84C465.643 167.853 465.397 167.1 464.903 166.58C464.41 166.047 463.737 165.78 462.883 165.78C462.03 165.78 461.35 166.047 460.843 166.58C460.35 167.1 460.103 167.853 460.103 168.84V175H457.843V168.84C457.843 167.853 457.597 167.1 457.103 166.58C456.61 166.047 455.937 165.78 455.083 165.78C454.23 165.78 453.55 166.047 453.043 166.58C452.55 167.1 452.303 167.853 452.303 168.84V175H450.023V163.98H452.303V165.24C452.677 164.787 453.15 164.433 453.723 164.18C454.297 163.927 454.91 163.8 455.563 163.8C456.443 163.8 457.23 163.987 457.923 164.36C458.617 164.733 459.15 165.273 459.523 165.98C459.857 165.313 460.377 164.787 461.083 164.4C461.79 164 462.55 163.8 463.363 163.8ZM472.085 165.6C472.471 165.093 472.998 164.667 473.665 164.32C474.331 163.973 475.085 163.8 475.925 163.8C476.885 163.8 477.758 164.04 478.545 164.52C479.345 164.987 479.971 165.647 480.425 166.5C480.878 167.353 481.105 168.333 481.105 169.44C481.105 170.547 480.878 171.54 480.425 172.42C479.971 173.287 479.345 173.967 478.545 174.46C477.758 174.94 476.885 175.18 475.925 175.18C475.085 175.18 474.338 175.013 473.685 174.68C473.031 174.333 472.498 173.907 472.085 173.4V180.24H469.805V163.98H472.085V165.6ZM478.785 169.44C478.785 168.68 478.625 168.027 478.305 167.48C477.998 166.92 477.585 166.5 477.065 166.22C476.558 165.927 476.011 165.78 475.425 165.78C474.851 165.78 474.305 165.927 473.785 166.22C473.278 166.513 472.865 166.94 472.545 167.5C472.238 168.06 472.085 168.72 472.085 169.48C472.085 170.24 472.238 170.907 472.545 171.48C472.865 172.04 473.278 172.467 473.785 172.76C474.305 173.053 474.851 173.2 475.425 173.2C476.011 173.2 476.558 173.053 477.065 172.76C477.585 172.453 477.998 172.013 478.305 171.44C478.625 170.867 478.785 170.2 478.785 169.44ZM484.639 160.2V175H482.359V160.2H484.639ZM485.873 169.44C485.873 168.333 486.099 167.353 486.553 166.5C487.019 165.647 487.646 164.987 488.433 164.52C489.233 164.04 490.113 163.8 491.073 163.8C491.939 163.8 492.693 163.973 493.333 164.32C493.986 164.653 494.506 165.073 494.893 165.58V163.98H497.193V175H494.893V173.36C494.506 173.88 493.979 174.313 493.313 174.66C492.646 175.007 491.886 175.18 491.033 175.18C490.086 175.18 489.219 174.94 488.433 174.46C487.646 173.967 487.019 173.287 486.553 172.42C486.099 171.54 485.873 170.547 485.873 169.44ZM494.893 169.48C494.893 168.72 494.733 168.06 494.413 167.5C494.106 166.94 493.699 166.513 493.193 166.22C492.686 165.927 492.139 165.78 491.553 165.78C490.966 165.78 490.419 165.927 489.913 166.22C489.406 166.5 488.993 166.92 488.673 167.48C488.366 168.027 488.213 168.68 488.213 169.44C488.213 170.2 488.366 170.867 488.673 171.44C488.993 172.013 489.406 172.453 489.913 172.76C490.433 173.053 490.979 173.2 491.553 173.2C492.139 173.2 492.686 173.053 493.193 172.76C493.699 172.467 494.106 172.04 494.413 171.48C494.733 170.907 494.893 170.24 494.893 169.48ZM501.848 165.84V171.94C501.848 172.353 501.941 172.653 502.128 172.84C502.328 173.013 502.661 173.1 503.128 173.1H504.528V175H502.728C501.701 175 500.914 174.76 500.368 174.28C499.821 173.8 499.548 173.02 499.548 171.94V165.84H498.248V163.98H499.548V161.24H501.848V163.98H504.528V165.84H501.848ZM515.729 169.22C515.729 169.633 515.702 170.007 515.649 170.34H507.229C507.296 171.22 507.622 171.927 508.209 172.46C508.796 172.993 509.516 173.26 510.369 173.26C511.596 173.26 512.462 172.747 512.969 171.72H515.429C515.096 172.733 514.489 173.567 513.609 174.22C512.742 174.86 511.662 175.18 510.369 175.18C509.316 175.18 508.369 174.947 507.529 174.48C506.702 174 506.049 173.333 505.569 172.48C505.102 171.613 504.869 170.613 504.869 169.48C504.869 168.347 505.096 167.353 505.549 166.5C506.016 165.633 506.662 164.967 507.489 164.5C508.329 164.033 509.289 163.8 510.369 163.8C511.409 163.8 512.336 164.027 513.149 164.48C513.962 164.933 514.596 165.573 515.049 166.4C515.502 167.213 515.729 168.153 515.729 169.22ZM513.349 168.5C513.336 167.66 513.036 166.987 512.449 166.48C511.862 165.973 511.136 165.72 510.269 165.72C509.482 165.72 508.809 165.973 508.249 166.48C507.689 166.973 507.356 167.647 507.249 168.5H513.349ZM520.973 175.18C520.106 175.18 519.326 175.027 518.633 174.72C517.953 174.4 517.413 173.973 517.013 173.44C516.613 172.893 516.399 172.287 516.373 171.62H518.733C518.773 172.087 518.993 172.48 519.393 172.8C519.806 173.107 520.319 173.26 520.933 173.26C521.573 173.26 522.066 173.14 522.413 172.9C522.773 172.647 522.953 172.327 522.953 171.94C522.953 171.527 522.753 171.22 522.353 171.02C521.966 170.82 521.346 170.6 520.493 170.36C519.666 170.133 518.993 169.913 518.473 169.7C517.953 169.487 517.499 169.16 517.113 168.72C516.739 168.28 516.553 167.7 516.553 166.98C516.553 166.393 516.726 165.86 517.073 165.38C517.419 164.887 517.913 164.5 518.553 164.22C519.206 163.94 519.953 163.8 520.793 163.8C522.046 163.8 523.053 164.12 523.813 164.76C524.586 165.387 524.999 166.247 525.053 167.34H522.773C522.733 166.847 522.533 166.453 522.173 166.16C521.813 165.867 521.326 165.72 520.713 165.72C520.113 165.72 519.653 165.833 519.333 166.06C519.013 166.287 518.853 166.587 518.853 166.96C518.853 167.253 518.959 167.5 519.173 167.7C519.386 167.9 519.646 168.06 519.953 168.18C520.259 168.287 520.713 168.427 521.313 168.6C522.113 168.813 522.766 169.033 523.273 169.26C523.793 169.473 524.239 169.793 524.613 170.22C524.986 170.647 525.179 171.213 525.193 171.92C525.193 172.547 525.019 173.107 524.673 173.6C524.326 174.093 523.833 174.48 523.193 174.76C522.566 175.04 521.826 175.18 520.973 175.18Z" fill="#101010" fill-opacity="0.6"/>
<path d="M353 177H526.153V178H353V177Z" fill="#101010" fill-opacity="0.6"/>
<path d="M82.064 105.248C82.064 101.984 82.8 99.056 84.272 96.464C85.744 93.84 87.744 91.792 90.272 90.32C92.832 88.848 95.664 88.112 98.768 88.112C102.416 88.112 105.6 88.992 108.32 90.752C111.04 92.512 113.024 95.008 114.272 98.24H109.04C108.112 96.224 106.768 94.672 105.008 93.584C103.28 92.496 101.2 91.952 98.768 91.952C96.432 91.952 94.336 92.496 92.48 93.584C90.624 94.672 89.168 96.224 88.112 98.24C87.056 100.224 86.528 102.56 86.528 105.248C86.528 107.904 87.056 110.24 88.112 112.256C89.168 114.24 90.624 115.776 92.48 116.864C94.336 117.952 96.432 118.496 98.768 118.496C101.2 118.496 103.28 117.968 105.008 116.912C106.768 115.824 108.112 114.272 109.04 112.256H114.272C113.024 115.456 111.04 117.936 108.32 119.696C105.6 121.424 102.416 122.288 98.768 122.288C95.664 122.288 92.832 121.568 90.272 120.128C87.744 118.656 85.744 116.624 84.272 114.032C82.8 111.44 82.064 108.512 82.064 105.248ZM131.43 95.216C133.414 95.216 135.206 95.648 136.806 96.512C138.406 97.344 139.654 98.608 140.55 100.304C141.478 102 141.942 104.064 141.942 106.496V122H137.622V107.12C137.622 104.496 136.966 102.496 135.654 101.12C134.342 99.712 132.55 99.008 130.278 99.008C127.974 99.008 126.134 99.728 124.758 101.168C123.414 102.608 122.742 104.704 122.742 107.456V122H118.374V86.48H122.742V99.44C123.606 98.096 124.79 97.056 126.294 96.32C127.83 95.584 129.542 95.216 131.43 95.216ZM170.677 107.84C170.677 108.672 170.629 109.552 170.533 110.48H149.509C149.669 113.072 150.549 115.104 152.149 116.576C153.781 118.016 155.749 118.736 158.053 118.736C159.941 118.736 161.509 118.304 162.757 117.44C164.037 116.544 164.933 115.36 165.445 113.888H170.149C169.445 116.416 168.037 118.48 165.925 120.08C163.813 121.648 161.189 122.432 158.053 122.432C155.557 122.432 153.317 121.872 151.333 120.752C149.381 119.632 147.845 118.048 146.725 116C145.605 113.92 145.045 111.52 145.045 108.8C145.045 106.08 145.589 103.696 146.677 101.648C147.765 99.6 149.285 98.032 151.237 96.944C153.221 95.824 155.493 95.264 158.053 95.264C160.549 95.264 162.757 95.808 164.677 96.896C166.597 97.984 168.069 99.488 169.093 101.408C170.149 103.296 170.677 105.44 170.677 107.84ZM166.165 106.928C166.165 105.264 165.797 103.84 165.061 102.656C164.325 101.44 163.317 100.528 162.037 99.92C160.789 99.28 159.397 98.96 157.861 98.96C155.653 98.96 153.765 99.664 152.197 101.072C150.661 102.48 149.781 104.432 149.557 106.928H166.165ZM172.411 108.8C172.411 106.08 172.955 103.712 174.043 101.696C175.131 99.648 176.635 98.064 178.555 96.944C180.507 95.824 182.731 95.264 185.227 95.264C188.459 95.264 191.115 96.048 193.195 97.616C195.307 99.184 196.699 101.36 197.371 104.144H192.667C192.219 102.544 191.339 101.28 190.027 100.352C188.747 99.424 187.147 98.96 185.227 98.96C182.731 98.96 180.715 99.824 179.179 101.552C177.643 103.248 176.875 105.664 176.875 108.8C176.875 111.968 177.643 114.416 179.179 116.144C180.715 117.872 182.731 118.736 185.227 118.736C187.147 118.736 188.747 118.288 190.027 117.392C191.307 116.496 192.187 115.216 192.667 113.552H197.371C196.667 116.24 195.259 118.4 193.147 120.032C191.035 121.632 188.395 122.432 185.227 122.432C182.731 122.432 180.507 121.872 178.555 120.752C176.635 119.632 175.131 118.048 174.043 116C172.955 113.952 172.411 111.552 172.411 108.8ZM215.487 122L205.167 110.384V122H200.799V86.48H205.167V107.36L215.295 95.696H221.391L209.007 108.8L221.439 122H215.487ZM248.667 122.336C245.563 122.336 242.731 121.616 240.171 120.176C237.611 118.704 235.579 116.672 234.075 114.08C232.603 111.456 231.867 108.512 231.867 105.248C231.867 101.984 232.603 99.056 234.075 96.464C235.579 93.84 237.611 91.808 240.171 90.368C242.731 88.896 245.563 88.16 248.667 88.16C251.803 88.16 254.651 88.896 257.211 90.368C259.771 91.808 261.787 93.824 263.259 96.416C264.731 99.008 265.467 101.952 265.467 105.248C265.467 108.544 264.731 111.488 263.259 114.08C261.787 116.672 259.771 118.704 257.211 120.176C254.651 121.616 251.803 122.336 248.667 122.336ZM248.667 118.544C251.003 118.544 253.099 118 254.955 116.912C256.843 115.824 258.315 114.272 259.371 112.256C260.459 110.24 261.003 107.904 261.003 105.248C261.003 102.56 260.459 100.224 259.371 98.24C258.315 96.224 256.859 94.672 255.003 93.584C253.147 92.496 251.035 91.952 248.667 91.952C246.299 91.952 244.187 92.496 242.331 93.584C240.475 94.672 239.003 96.224 237.915 98.24C236.859 100.224 236.331 102.56 236.331 105.248C236.331 107.904 236.859 110.24 237.915 112.256C239.003 114.272 240.475 115.824 242.331 116.912C244.219 118 246.331 118.544 248.667 118.544ZM292.161 95.696V122H287.793V118.112C286.961 119.456 285.793 120.512 284.289 121.28C282.817 122.016 281.185 122.384 279.393 122.384C277.345 122.384 275.505 121.968 273.873 121.136C272.241 120.272 270.945 118.992 269.985 117.296C269.057 115.6 268.593 113.536 268.593 111.104V95.696H272.913V110.528C272.913 113.12 273.569 115.12 274.881 116.528C276.193 117.904 277.985 118.592 280.257 118.592C282.593 118.592 284.433 117.872 285.777 116.432C287.121 114.992 287.793 112.896 287.793 110.144V95.696H292.161ZM302.465 99.296V114.8C302.465 116.08 302.737 116.992 303.281 117.536C303.825 118.048 304.769 118.304 306.113 118.304H309.329V122H305.393C302.961 122 301.137 121.44 299.921 120.32C298.705 119.2 298.097 117.36 298.097 114.8V99.296H294.689V95.696H298.097V89.072H302.465V95.696H309.329V99.296H302.465ZM337.786 122.336C334.682 122.336 331.85 121.616 329.29 120.176C326.73 118.704 324.698 116.672 323.194 114.08C321.722 111.456 320.986 108.512 320.986 105.248C320.986 101.984 321.722 99.056 323.194 96.464C324.698 93.84 326.73 91.808 329.29 90.368C331.85 88.896 334.682 88.16 337.786 88.16C340.922 88.16 343.77 88.896 346.33 90.368C348.89 91.808 350.906 93.824 352.378 96.416C353.85 99.008 354.586 101.952 354.586 105.248C354.586 108.544 353.85 111.488 352.378 114.08C350.906 116.672 348.89 118.704 346.33 120.176C343.77 121.616 340.922 122.336 337.786 122.336ZM337.786 118.544C340.122 118.544 342.218 118 344.074 116.912C345.962 115.824 347.434 114.272 348.49 112.256C349.578 110.24 350.122 107.904 350.122 105.248C350.122 102.56 349.578 100.224 348.49 98.24C347.434 96.224 345.978 94.672 344.122 93.584C342.266 92.496 340.154 91.952 337.786 91.952C335.418 91.952 333.306 92.496 331.45 93.584C329.594 94.672 328.122 96.224 327.034 98.24C325.978 100.224 325.45 102.56 325.45 105.248C325.45 107.904 325.978 110.24 327.034 112.256C328.122 114.272 329.594 115.824 331.45 116.912C333.338 118 335.45 118.544 337.786 118.544ZM381.28 95.696V122H376.912V118.112C376.08 119.456 374.912 120.512 373.408 121.28C371.936 122.016 370.304 122.384 368.512 122.384C366.464 122.384 364.624 121.968 362.992 121.136C361.36 120.272 360.064 118.992 359.104 117.296C358.176 115.6 357.712 113.536 357.712 111.104V95.696H362.032V110.528C362.032 113.12 362.688 115.12 364 116.528C365.312 117.904 367.104 118.592 369.376 118.592C371.712 118.592 373.552 117.872 374.896 116.432C376.24 114.992 376.912 112.896 376.912 110.144V95.696H381.28ZM390.623 99.968C391.391 98.464 392.479 97.296 393.887 96.464C395.327 95.632 397.071 95.216 399.119 95.216V99.728H397.967C393.071 99.728 390.623 102.384 390.623 107.696V122H386.255V95.696H390.623V99.968ZM416.526 118.448H428.238V122H412.158V88.544H416.526V118.448ZM428.845 108.752C428.845 106.064 429.389 103.712 430.477 101.696C431.565 99.648 433.053 98.064 434.941 96.944C436.861 95.824 438.989 95.264 441.325 95.264C443.629 95.264 445.629 95.76 447.325 96.752C449.021 97.744 450.285 98.992 451.117 100.496V95.696H455.533V122H451.117V117.104C450.253 118.64 448.957 119.92 447.229 120.944C445.533 121.936 443.549 122.432 441.277 122.432C438.941 122.432 436.829 121.856 434.941 120.704C433.053 119.552 431.565 117.936 430.477 115.856C429.389 113.776 428.845 111.408 428.845 108.752ZM451.117 108.8C451.117 106.816 450.717 105.088 449.917 103.616C449.117 102.144 448.029 101.024 446.653 100.256C445.309 99.456 443.821 99.056 442.189 99.056C440.557 99.056 439.069 99.44 437.725 100.208C436.381 100.976 435.309 102.096 434.509 103.568C433.709 105.04 433.309 106.768 433.309 108.752C433.309 110.768 433.709 112.528 434.509 114.032C435.309 115.504 436.381 116.64 437.725 117.44C439.069 118.208 440.557 118.592 442.189 118.592C443.821 118.592 445.309 118.208 446.653 117.44C448.029 116.64 449.117 115.504 449.917 114.032C450.717 112.528 451.117 110.784 451.117 108.8ZM465.843 99.296V114.8C465.843 116.08 466.115 116.992 466.659 117.536C467.203 118.048 468.147 118.304 469.491 118.304H472.707V122H468.771C466.339 122 464.515 121.44 463.299 120.32C462.083 119.2 461.475 117.36 461.475 114.8V99.296H458.067V95.696H461.475V89.072H465.843V95.696H472.707V99.296H465.843ZM499.599 107.84C499.599 108.672 499.551 109.552 499.455 110.48H478.431C478.591 113.072 479.471 115.104 481.071 116.576C482.703 118.016 484.671 118.736 486.975 118.736C488.863 118.736 490.431 118.304 491.679 117.44C492.959 116.544 493.855 115.36 494.367 113.888H499.071C498.367 116.416 496.959 118.48 494.847 120.08C492.735 121.648 490.111 122.432 486.975 122.432C484.479 122.432 482.239 121.872 480.255 120.752C478.303 119.632 476.767 118.048 475.647 116C474.527 113.92 473.967 111.52 473.967 108.8C473.967 106.08 474.511 103.696 475.599 101.648C476.687 99.6 478.207 98.032 480.159 96.944C482.143 95.824 484.415 95.264 486.975 95.264C489.471 95.264 491.679 95.808 493.599 96.896C495.519 97.984 496.991 99.488 498.015 101.408C499.071 103.296 499.599 105.44 499.599 107.84ZM495.087 106.928C495.087 105.264 494.719 103.84 493.983 102.656C493.247 101.44 492.239 100.528 490.959 99.92C489.711 99.28 488.319 98.96 486.783 98.96C484.575 98.96 482.687 99.664 481.119 101.072C479.583 102.48 478.703 104.432 478.479 106.928H495.087ZM512.277 122.432C510.261 122.432 508.453 122.096 506.853 121.424C505.253 120.72 503.989 119.76 503.061 118.544C502.133 117.296 501.621 115.872 501.525 114.272H506.037C506.165 115.584 506.773 116.656 507.861 117.488C508.981 118.32 510.437 118.736 512.229 118.736C513.893 118.736 515.205 118.368 516.165 117.632C517.125 116.896 517.605 115.968 517.605 114.848C517.605 113.696 517.093 112.848 516.069 112.304C515.045 111.728 513.461 111.168 511.317 110.624C509.365 110.112 507.765 109.6 506.517 109.088C505.301 108.544 504.245 107.76 503.349 106.736C502.485 105.68 502.053 104.304 502.053 102.608C502.053 101.264 502.453 100.032 503.253 98.912C504.053 97.792 505.189 96.912 506.661 96.272C508.133 95.6 509.813 95.264 511.701 95.264C514.613 95.264 516.965 96 518.757 97.472C520.549 98.944 521.509 100.96 521.637 103.52H517.269C517.173 102.144 516.613 101.04 515.589 100.208C514.597 99.376 513.253 98.96 511.557 98.96C509.989 98.96 508.741 99.296 507.813 99.968C506.885 100.64 506.421 101.52 506.421 102.608C506.421 103.472 506.693 104.192 507.237 104.768C507.813 105.312 508.517 105.76 509.349 106.112C510.213 106.432 511.397 106.8 512.901 107.216C514.789 107.728 516.325 108.24 517.509 108.752C518.693 109.232 519.701 109.968 520.533 110.96C521.397 111.952 521.845 113.248 521.877 114.848C521.877 116.288 521.477 117.584 520.677 118.736C519.877 119.888 518.741 120.8 517.269 121.472C515.829 122.112 514.165 122.432 512.277 122.432ZM530.971 99.296V114.8C530.971 116.08 531.243 116.992 531.787 117.536C532.331 118.048 533.275 118.304 534.619 118.304H537.835V122H533.899C531.467 122 529.643 121.44 528.427 120.32C527.211 119.2 526.603 117.36 526.603 114.8V99.296H523.195V95.696H526.603V89.072H530.971V95.696H537.835V99.296H530.971ZM571.716 88.544V92.096H562.596V122H558.228V92.096H549.06V88.544H571.716ZM598.693 107.84C598.693 108.672 598.645 109.552 598.549 110.48H577.525C577.685 113.072 578.565 115.104 580.165 116.576C581.797 118.016 583.765 118.736 586.069 118.736C587.957 118.736 589.525 118.304 590.773 117.44C592.053 116.544 592.949 115.36 593.461 113.888H598.165C597.461 116.416 596.053 118.48 593.941 120.08C591.829 121.648 589.205 122.432 586.069 122.432C583.573 122.432 581.333 121.872 579.349 120.752C577.397 119.632 575.861 118.048 574.741 116C573.621 113.92 573.061 111.52 573.061 108.8C573.061 106.08 573.605 103.696 574.693 101.648C575.781 99.6 577.301 98.032 579.253 96.944C581.237 95.824 583.509 95.264 586.069 95.264C588.565 95.264 590.773 95.808 592.693 96.896C594.613 97.984 596.085 99.488 597.109 101.408C598.165 103.296 598.693 105.44 598.693 107.84ZM594.181 106.928C594.181 105.264 593.813 103.84 593.077 102.656C592.341 101.44 591.333 100.528 590.053 99.92C588.805 99.28 587.413 98.96 585.877 98.96C583.669 98.96 581.781 99.664 580.213 101.072C578.677 102.48 577.797 104.432 577.573 106.928H594.181ZM633.69 95.216C635.738 95.216 637.562 95.648 639.162 96.512C640.762 97.344 642.026 98.608 642.954 100.304C643.882 102 644.346 104.064 644.346 106.496V122H640.026V107.12C640.026 104.496 639.37 102.496 638.058 101.12C636.778 99.712 635.034 99.008 632.826 99.008C630.554 99.008 628.746 99.744 627.402 101.216C626.058 102.656 625.386 104.752 625.386 107.504V122H621.066V107.12C621.066 104.496 620.41 102.496 619.098 101.12C617.818 99.712 616.074 99.008 613.866 99.008C611.594 99.008 609.786 99.744 608.442 101.216C607.098 102.656 606.426 104.752 606.426 107.504V122H602.058V95.696H606.426V99.488C607.29 98.112 608.442 97.056 609.882 96.32C611.354 95.584 612.97 95.216 614.73 95.216C616.938 95.216 618.89 95.712 620.586 96.704C622.282 97.696 623.546 99.152 624.378 101.072C625.114 99.216 626.33 97.776 628.026 96.752C629.722 95.728 631.61 95.216 633.69 95.216ZM653.48 100.544C654.344 99.04 655.624 97.792 657.32 96.8C659.048 95.776 661.048 95.264 663.32 95.264C665.656 95.264 667.768 95.824 669.656 96.944C671.576 98.064 673.08 99.648 674.168 101.696C675.256 103.712 675.8 106.064 675.8 108.752C675.8 111.408 675.256 113.776 674.168 115.856C673.08 117.936 671.576 119.552 669.656 120.704C667.768 121.856 665.656 122.432 663.32 122.432C661.08 122.432 659.096 121.936 657.368 120.944C655.672 119.92 654.376 118.656 653.48 117.152V134.48H649.112V95.696H653.48V100.544ZM671.336 108.752C671.336 106.768 670.936 105.04 670.136 103.568C669.336 102.096 668.248 100.976 666.872 100.208C665.528 99.44 664.04 99.056 662.408 99.056C660.808 99.056 659.32 99.456 657.944 100.256C656.6 101.024 655.512 102.16 654.68 103.664C653.88 105.136 653.48 106.848 653.48 108.8C653.48 110.784 653.88 112.528 654.68 114.032C655.512 115.504 656.6 116.64 657.944 117.44C659.32 118.208 660.808 118.592 662.408 118.592C664.04 118.592 665.528 118.208 666.872 117.44C668.248 116.64 669.336 115.504 670.136 114.032C670.936 112.528 671.336 110.768 671.336 108.752ZM683.517 86.48V122H679.149V86.48H683.517ZM686.93 108.752C686.93 106.064 687.474 103.712 688.562 101.696C689.65 99.648 691.138 98.064 693.026 96.944C694.946 95.824 697.074 95.264 699.41 95.264C701.714 95.264 703.714 95.76 705.41 96.752C707.106 97.744 708.37 98.992 709.202 100.496V95.696H713.618V122H709.202V117.104C708.338 118.64 707.042 119.92 705.314 120.944C703.618 121.936 701.634 122.432 699.362 122.432C697.026 122.432 694.914 121.856 693.026 120.704C691.138 119.552 689.65 117.936 688.562 115.856C687.474 113.776 686.93 111.408 686.93 108.752ZM709.202 108.8C709.202 106.816 708.802 105.088 708.002 103.616C707.202 102.144 706.114 101.024 704.738 100.256C703.394 99.456 701.906 99.056 700.274 99.056C698.642 99.056 697.154 99.44 695.81 100.208C694.466 100.976 693.394 102.096 692.594 103.568C691.794 105.04 691.394 106.768 691.394 108.752C691.394 110.768 691.794 112.528 692.594 114.032C693.394 115.504 694.466 116.64 695.81 117.44C697.154 118.208 698.642 118.592 700.274 118.592C701.906 118.592 703.394 118.208 704.738 117.44C706.114 116.64 707.202 115.504 708.002 114.032C708.802 112.528 709.202 110.784 709.202 108.8ZM723.927 99.296V114.8C723.927 116.08 724.199 116.992 724.743 117.536C725.287 118.048 726.231 118.304 727.575 118.304H730.791V122H726.855C724.423 122 722.599 121.44 721.383 120.32C720.167 119.2 719.559 117.36 719.559 114.8V99.296H716.151V95.696H719.559V89.072H723.927V95.696H730.791V99.296H723.927ZM757.683 107.84C757.683 108.672 757.635 109.552 757.539 110.48H736.515C736.675 113.072 737.555 115.104 739.155 116.576C740.787 118.016 742.755 118.736 745.059 118.736C746.947 118.736 748.515 118.304 749.763 117.44C751.043 116.544 751.939 115.36 752.451 113.888H757.155C756.451 116.416 755.043 118.48 752.931 120.08C750.819 121.648 748.195 122.432 745.059 122.432C742.563 122.432 740.323 121.872 738.339 120.752C736.387 119.632 734.851 118.048 733.731 116C732.611 113.92 732.051 111.52 732.051 108.8C732.051 106.08 732.595 103.696 733.683 101.648C734.771 99.6 736.291 98.032 738.243 96.944C740.227 95.824 742.499 95.264 745.059 95.264C747.555 95.264 749.763 95.808 751.683 96.896C753.603 97.984 755.075 99.488 756.099 101.408C757.155 103.296 757.683 105.44 757.683 107.84ZM753.171 106.928C753.171 105.264 752.803 103.84 752.067 102.656C751.331 101.44 750.323 100.528 749.043 99.92C747.795 99.28 746.403 98.96 744.867 98.96C742.659 98.96 740.771 99.664 739.203 101.072C737.667 102.48 736.787 104.432 736.563 106.928H753.171ZM770.361 122.432C768.345 122.432 766.537 122.096 764.937 121.424C763.337 120.72 762.073 119.76 761.145 118.544C760.217 117.296 759.705 115.872 759.609 114.272H764.121C764.249 115.584 764.857 116.656 765.945 117.488C767.065 118.32 768.521 118.736 770.313 118.736C771.977 118.736 773.289 118.368 774.249 117.632C775.209 116.896 775.689 115.968 775.689 114.848C775.689 113.696 775.177 112.848 774.153 112.304C773.129 111.728 771.545 111.168 769.401 110.624C767.449 110.112 765.849 109.6 764.601 109.088C763.385 108.544 762.329 107.76 761.433 106.736C760.569 105.68 760.137 104.304 760.137 102.608C760.137 101.264 760.537 100.032 761.337 98.912C762.137 97.792 763.273 96.912 764.745 96.272C766.217 95.6 767.897 95.264 769.785 95.264C772.697 95.264 775.049 96 776.841 97.472C778.633 98.944 779.593 100.96 779.721 103.52H775.353C775.257 102.144 774.697 101.04 773.673 100.208C772.681 99.376 771.337 98.96 769.641 98.96C768.073 98.96 766.825 99.296 765.897 99.968C764.969 100.64 764.505 101.52 764.505 102.608C764.505 103.472 764.777 104.192 765.321 104.768C765.897 105.312 766.601 105.76 767.433 106.112C768.297 106.432 769.481 106.8 770.985 107.216C772.873 107.728 774.409 108.24 775.593 108.752C776.777 109.232 777.785 109.968 778.617 110.96C779.481 111.952 779.929 113.248 779.961 114.848C779.961 116.288 779.561 117.584 778.761 118.736C777.961 119.888 776.825 120.8 775.353 121.472C773.913 122.112 772.249 122.432 770.361 122.432Z" fill="#101010"/>
</svg>
