<svg width="11" height="7" viewBox="0 0 11 7" fill="none" xmlns="http://www.w3.org/2000/svg">
<path d="M5.5035 4.98476L1.24553 0.949252C1.1007 0.811989 0.92932 0.745646 0.731387 0.750221C0.533454 0.754797 0.362073 0.825716 0.217244 0.962978C0.0724145 1.10024 0 1.26267 0 1.45026C0 1.63785 0.0724145 1.80028 0.217244 1.93754L4.67798 6.15149C4.79384 6.2613 4.92419 6.34366 5.06902 6.39856C5.21385 6.45347 5.35867 6.48092 5.5035 6.48092C5.64833 6.48092 5.79316 6.45347 5.93799 6.39856C6.08282 6.34366 6.21317 6.2613 6.32903 6.15149L10.7898 1.92381C10.9346 1.78655 11.0046 1.62641 10.9998 1.4434C10.9949 1.26038 10.9201 1.10024 10.7753 0.962978C10.6305 0.825716 10.4591 0.757085 10.2611 0.757085C10.0632 0.757085 9.89182 0.825716 9.74699 0.962978L5.5035 4.98476Z" fill="#F4F9F0"/>
</svg>
