<svg width="22" height="25" viewBox="0 0 22 25" fill="none" xmlns="http://www.w3.org/2000/svg">
<path d="M5.57196 19.2393L10.4993 14.3119L15.4267 19.2393C15.6692 19.4817 15.978 19.5989 16.3327 19.5989C16.6874 19.5989 16.9962 19.4817 17.2386 19.2393C17.4811 18.9968 17.5983 18.688 17.5983 18.3333C17.5983 17.9787 17.4811 17.6698 17.2386 17.4274L12.3112 12.5L17.2386 7.5726C17.4811 7.33016 17.5983 7.02133 17.5983 6.66666C17.5983 6.31199 17.4811 6.00315 17.2386 5.76071C16.9962 5.51828 16.6874 5.40103 16.3327 5.40103C15.978 5.40103 15.6692 5.51828 15.4267 5.76071L10.4993 10.6881L5.57196 5.76071C5.32952 5.51828 5.02069 5.40103 4.66602 5.40103C4.31135 5.40103 4.00251 5.51828 3.76007 5.76071C3.51763 6.00315 3.40039 6.31199 3.40039 6.66666C3.40039 7.02133 3.51763 7.33016 3.76007 7.5726L8.68746 12.5L3.76007 17.4274C3.51763 17.6698 3.40039 17.9787 3.40039 18.3333C3.40039 18.688 3.51763 18.9968 3.76007 19.2393C4.00251 19.4817 4.31135 19.5989 4.66602 19.5989C5.02069 19.5989 5.32952 19.4817 5.57196 19.2393Z" fill="#3C6724" stroke="#3C6724" stroke-width="0.5"/>
</svg>
