<svg width="60" height="60" viewBox="0 0 60 60" fill="none" xmlns="http://www.w3.org/2000/svg">
<g clip-path="url(#clip0_385_176)">
<path d="M30 60C46.5685 60 60 46.5685 60 30C60 13.4315 46.5685 0 30 0C13.4315 0 0 13.4315 0 30C0 46.5685 13.4315 60 30 60Z" fill="#FCFFFA"/>
<path d="M30 59.375C46.2234 59.375 59.375 46.2234 59.375 30C59.375 13.7766 46.2234 0.625 30 0.625C13.7766 0.625 0.625 13.7766 0.625 30C0.625 46.2234 13.7766 59.375 30 59.375Z" stroke="#101010" stroke-width="0.5"/>
<path d="M19.4141 10.7153H21.153V12.4334H22.744V10.7153H24.4829V15.916H22.744V14.1755H21.153V15.916H19.4157L19.4141 10.7153ZM26.7683 12.4398H25.2383V10.7153H30.0388V12.4398H28.507V15.916H26.7683V12.4398ZM30.8005 10.7153H32.6133L33.7288 12.5426L34.8423 10.7153H36.6553V15.916H34.9243V13.3382L33.7288 15.1879H33.698L32.5008 13.3398V15.916H30.8005V10.7153ZM37.5198 10.7153H39.2603V14.198H41.7033V15.9176H37.5198V10.7153Z" fill="#3F6D26"/>
<path fill-rule="evenodd" clip-rule="evenodd" d="M19.3575 46.1897L16.0693 18.2983H44.9975L41.7078 46.1865L30.5173 49.2882L19.3575 46.1897ZM26.0063 30.9222L25.6943 27.4187H38.7843L39.0898 23.9988H21.9578L22.8803 34.3437H34.736L34.339 38.7795L30.5238 39.8112H30.5205L26.7118 38.7827L26.4673 36.0552H23.0314L23.5103 41.4262L30.5173 43.371L37.5355 41.4262L38.3905 31.8415L38.4743 30.9237L26.0063 30.9222Z" fill="#3F6D26"/>
</g>
<defs>
<clipPath id="clip0_385_176">
<rect width="60" height="60" fill="white"/>
</clipPath>
</defs>
</svg>
