<svg width="60" height="60" viewBox="0 0 60 60" fill="none" xmlns="http://www.w3.org/2000/svg">
<g clip-path="url(#clip0_479_639)">
<path d="M30 60C46.5685 60 60 46.5685 60 30C60 13.4315 46.5685 0 30 0C13.4315 0 0 13.4315 0 30C0 46.5685 13.4315 60 30 60Z" fill="#3F6D26"/>
<path d="M30 59.375C46.2234 59.375 59.375 46.2234 59.375 30C59.375 13.7766 46.2234 0.625 30 0.625C13.7766 0.625 0.625 13.7766 0.625 30C0.625 46.2234 13.7766 59.375 30 59.375Z" stroke="#F4F9F0" stroke-width="0.5"/>
<path d="M22.0275 12.8862C21.9727 12.9066 20.4242 13.7645 18.5878 14.7908C16.3624 16.0352 15.2198 16.6902 15.1585 16.7516C15.1099 16.8049 15.0552 16.8973 15.0384 16.9558C14.992 17.1064 14.9888 39.1837 15.0352 39.3425C15.0522 39.4037 15.107 39.494 15.1566 39.5445C15.2767 39.6672 28.5613 47.095 28.7228 47.131C28.7975 47.1485 28.882 47.1452 28.965 47.123C29.1465 47.0787 42.3965 39.6675 42.5145 39.5462C42.563 39.494 42.6178 39.4037 42.6358 39.3425C42.659 39.2697 42.6675 38.1152 42.6675 35.685V32.133L45.8975 30.3287C48.943 28.6262 49.1295 28.5197 49.2075 28.4025L49.2875 28.2767V24.4511C49.2875 20.2862 49.296 20.5208 49.1263 20.3704C49.0808 20.3311 47.529 19.4506 45.6748 18.4122L42.3068 16.5281H41.9325L38.6375 18.3682C36.823 19.3832 35.2808 20.2502 35.2058 20.2975C35.131 20.3455 35.0415 20.4347 35.0045 20.4995L34.938 20.6111L34.9233 24.2154L34.9098 27.8205L32.189 29.3447C30.692 30.1812 29.446 30.8742 29.4195 30.8805C29.371 30.8935 29.368 30.5502 29.368 23.9252V16.9527L29.2963 16.8327C29.2065 16.6871 29.6093 16.9199 25.5655 14.6596C22.1741 12.7631 22.255 12.803 22.0275 12.8862ZM25.1448 15.6468C26.5638 16.438 27.7245 17.093 27.7245 17.1012C27.7245 17.1093 26.4803 17.8087 24.9605 18.6584L22.1943 20.2022L19.4335 18.6584C17.9163 17.8087 16.6736 17.1093 16.6736 17.1012C16.6736 17.093 17.9142 16.394 19.4311 15.5461L22.1857 14.0057L22.3754 14.1059C22.482 14.1623 23.729 14.8556 25.1448 15.6468ZM44.8863 19.1982C46.3803 20.0348 47.6158 20.7255 47.6273 20.737C47.659 20.7646 42.1803 23.8265 42.1055 23.8234C42.0305 23.8215 36.6198 20.7871 36.6218 20.7504C36.6248 20.7084 42.0685 17.6628 42.1233 17.6709C42.1488 17.6772 43.3925 18.365 44.8863 19.1982ZM19.0052 19.6401L21.6386 21.1141L21.6535 28.4127L21.667 35.7122L21.7315 35.8107C21.7652 35.8632 21.8286 35.9337 21.8745 35.9667C21.9179 35.9972 23.3831 36.809 25.13 37.7677L28.303 39.51V42.5977C28.303 44.2922 28.2915 45.6822 28.277 45.6822C28.2653 45.6822 25.5223 44.156 22.1827 42.2872L16.1114 38.8922L16.1033 28.455L16.0979 18.0207L16.2329 18.0934C16.3109 18.1335 17.5569 18.8292 19.0052 19.6401ZM28.303 24.7778V31.5035L28.1968 31.571C28.0523 31.6602 22.7791 34.6072 22.7616 34.6072C22.7529 34.6072 22.7464 31.571 22.7464 27.8592L22.7497 21.1141L25.5043 19.5737C27.019 18.7258 28.2683 18.038 28.283 18.043C28.294 18.049 28.303 21.0803 28.303 24.7778ZM38.8123 23.2311L41.573 24.7746V27.8345C41.573 30.7377 41.5698 30.8935 41.5245 30.877C41.495 30.8657 40.2458 30.1697 38.7468 29.3302L36.0175 27.8057V24.7473C36.0175 23.0631 36.026 21.6875 36.0345 21.6875C36.0463 21.6875 37.2955 22.3811 38.8123 23.2311ZM48.2228 24.7277C48.2228 26.4027 48.2113 27.7842 48.1998 27.7977C48.1798 27.8285 42.719 30.8882 42.6843 30.8882C42.676 30.8882 42.6675 29.5127 42.6675 27.8285V24.7699L45.422 23.2282C46.9388 22.3814 48.1883 21.6875 48.1998 21.6875C48.2145 21.6875 48.2228 23.0545 48.2228 24.7277ZM38.2745 30.293C40.597 31.5927 40.9975 31.8257 40.9575 31.8562C40.931 31.8725 40.0508 32.3647 39.003 32.947C37.9553 33.5282 35.2405 35.0332 32.9688 36.2917L28.8408 38.582L28.709 38.512C27.9205 38.0927 23.3453 35.562 23.3453 35.5425C23.3431 35.5005 35.4505 28.7347 35.4988 28.7525C35.522 28.7602 36.7713 29.4537 38.2745 30.293ZM41.568 35.8275L41.5583 38.8927L35.4905 42.2875C32.152 44.156 29.408 45.6825 29.3943 45.6825C29.3795 45.6825 29.368 44.435 29.368 42.598V39.5107L35.4505 36.138C38.792 34.2837 41.5383 32.7655 41.553 32.7625C41.5648 32.7625 41.5698 34.1412 41.568 35.8275Z" fill="#F4F9F0"/>
<mask id="mask0_479_639" style="mask-type:luminance" maskUnits="userSpaceOnUse" x="12" y="10" width="39" height="38">
<path d="M50.0029 10.3564H12.5029V47.8564H50.0029V10.3564Z" fill="white"/>
<path d="M22.0285 12.8862C21.9737 12.9066 20.4252 13.7645 18.5887 14.7908C16.3634 16.0352 15.2208 16.6902 15.1595 16.7516C15.1109 16.8049 15.0561 16.8973 15.0394 16.9558C14.993 17.1064 14.9897 39.1837 15.0362 39.3425C15.0532 39.4037 15.108 39.494 15.1576 39.5445C15.2777 39.6672 28.5622 47.095 28.7237 47.131C28.7985 47.1485 28.883 47.1452 28.966 47.123C29.1475 47.0787 42.3975 39.6675 42.5155 39.5462C42.564 39.494 42.6187 39.4037 42.6367 39.3425C42.66 39.2697 42.6685 38.1152 42.6685 35.685V32.133L45.8985 30.3287C48.944 28.6262 49.1305 28.5197 49.2085 28.4025L49.2885 28.2767V24.4511C49.2885 20.2862 49.297 20.5208 49.1272 20.3704C49.0817 20.3311 47.53 19.4506 45.6757 18.4122L42.3077 16.5281H41.9335L38.6385 18.3682C36.824 19.3832 35.2817 20.2502 35.2067 20.2975C35.132 20.3455 35.0425 20.4347 35.0055 20.4995L34.939 20.6111L34.9242 24.2154L34.9107 27.8205L32.19 29.3447C30.693 30.1812 29.447 30.8742 29.4205 30.8805C29.372 30.8935 29.369 30.5502 29.369 23.9252V16.9527L29.2972 16.8327C29.2075 16.6871 29.6102 16.9199 25.5665 14.6596C22.175 12.7631 22.256 12.803 22.0285 12.8862ZM25.1457 15.6468C26.5647 16.438 27.7255 17.093 27.7255 17.1012C27.7255 17.1093 26.4812 17.8087 24.9614 18.6584L22.1953 20.2022L19.4345 18.6584C17.9173 17.8087 16.6745 17.1093 16.6745 17.1012C16.6745 17.093 17.9151 16.394 19.4321 15.5461L22.1866 14.0057L22.3764 14.1059C22.483 14.1623 23.73 14.8556 25.1457 15.6468ZM44.8872 19.1982C46.3812 20.0348 47.6167 20.7255 47.6282 20.737C47.66 20.7646 42.1812 23.8265 42.1065 23.8234C42.0315 23.8215 36.6207 20.7871 36.6227 20.7504C36.6257 20.7084 42.0695 17.6628 42.1242 17.6709C42.1497 17.6772 43.3935 18.365 44.8872 19.1982ZM19.0062 19.6401L21.6396 21.1141L21.6545 28.4127L21.6679 35.7122L21.7324 35.8107C21.7662 35.8632 21.8296 35.9337 21.8755 35.9667C21.9189 35.9972 23.384 36.809 25.131 37.7677L28.304 39.51V42.5977C28.304 44.2922 28.2925 45.6822 28.278 45.6822C28.2662 45.6822 25.5232 44.156 22.1837 42.2872L16.1124 38.8922L16.1043 28.455L16.0989 18.0207L16.2338 18.0934C16.3118 18.1335 17.5578 18.8292 19.0062 19.6401ZM28.304 24.7778V31.5035L28.1977 31.571C28.0532 31.6602 22.7801 34.6072 22.7625 34.6072C22.7539 34.6072 22.7474 31.571 22.7474 27.8592L22.7507 21.1141L25.5052 19.5737C27.02 18.7258 28.2692 18.038 28.284 18.043C28.295 18.049 28.304 21.0803 28.304 24.7778ZM38.8132 23.2311L41.574 24.7746V27.8345C41.574 30.7377 41.5707 30.8935 41.5255 30.877C41.496 30.8657 40.2467 30.1697 38.7477 29.3302L36.0185 27.8057V24.7473C36.0185 23.0631 36.027 21.6875 36.0355 21.6875C36.0472 21.6875 37.2965 22.3811 38.8132 23.2311ZM48.2237 24.7277C48.2237 26.4027 48.2122 27.7842 48.2007 27.7977C48.1807 27.8285 42.72 30.8882 42.6852 30.8882C42.677 30.8882 42.6685 29.5127 42.6685 27.8285V24.7699L45.423 23.2282C46.9397 22.3814 48.1892 21.6875 48.2007 21.6875C48.2155 21.6875 48.2237 23.0545 48.2237 24.7277ZM38.2755 30.293C40.598 31.5927 40.9985 31.8257 40.9585 31.8562C40.932 31.8725 40.0517 32.3647 39.004 32.947C37.9562 33.5282 35.2415 35.0332 32.9697 36.2917L28.8417 38.582L28.71 38.512C27.9215 38.0927 23.3463 35.562 23.3463 35.5425C23.3441 35.5005 35.4515 28.7347 35.4997 28.7525C35.523 28.7602 36.7722 29.4537 38.2755 30.293ZM41.569 35.8275L41.5592 38.8927L35.4915 42.2875C32.153 44.156 29.409 45.6825 29.3952 45.6825C29.3805 45.6825 29.369 44.435 29.369 42.598V39.5107L35.4515 36.138C38.793 34.2837 41.5392 32.7655 41.554 32.7625C41.5657 32.7625 41.5707 34.1412 41.569 35.8275Z" fill="black"/>
</mask>
<g mask="url(#mask0_479_639)">
<path d="M22.0285 12.8862C21.9737 12.9066 20.4252 13.7645 18.5887 14.7908C16.3634 16.0352 15.2208 16.6902 15.1595 16.7516C15.1109 16.8049 15.0561 16.8973 15.0394 16.9558C14.993 17.1064 14.9897 39.1837 15.0362 39.3425C15.0532 39.4037 15.108 39.494 15.1576 39.5445C15.2777 39.6672 28.5622 47.095 28.7237 47.131C28.7985 47.1485 28.883 47.1452 28.966 47.123C29.1475 47.0787 42.3975 39.6675 42.5155 39.5462C42.564 39.494 42.6187 39.4037 42.6367 39.3425C42.66 39.2697 42.6685 38.1152 42.6685 35.685V32.133L45.8985 30.3287C48.944 28.6262 49.1305 28.5197 49.2085 28.4025L49.2885 28.2767V24.4511C49.2885 20.2862 49.297 20.5208 49.1272 20.3704C49.0817 20.3311 47.53 19.4506 45.6757 18.4122L42.3077 16.5281H41.9335L38.6385 18.3682C36.824 19.3832 35.2817 20.2502 35.2067 20.2975C35.132 20.3455 35.0425 20.4347 35.0055 20.4995L34.939 20.6111L34.9242 24.2154L34.9107 27.8205L32.19 29.3447C30.693 30.1812 29.447 30.8742 29.4205 30.8805C29.372 30.8935 29.369 30.5502 29.369 23.9252V16.9527L29.2972 16.8327C29.2075 16.6871 29.6102 16.9199 25.5665 14.6596C22.175 12.7631 22.256 12.803 22.0285 12.8862ZM25.1457 15.6468C26.5647 16.438 27.7255 17.093 27.7255 17.1012C27.7255 17.1093 26.4812 17.8087 24.9614 18.6584L22.1953 20.2022L19.4345 18.6584C17.9173 17.8087 16.6745 17.1093 16.6745 17.1012C16.6745 17.093 17.9151 16.394 19.4321 15.5461L22.1866 14.0057L22.3764 14.1059C22.483 14.1623 23.73 14.8556 25.1457 15.6468ZM44.8872 19.1982C46.3812 20.0348 47.6167 20.7255 47.6282 20.737C47.66 20.7646 42.1812 23.8265 42.1065 23.8234C42.0315 23.8215 36.6207 20.7871 36.6227 20.7504C36.6257 20.7084 42.0695 17.6628 42.1242 17.6709C42.1497 17.6772 43.3935 18.365 44.8872 19.1982ZM19.0062 19.6401L21.6396 21.1141L21.6545 28.4127L21.6679 35.7122L21.7324 35.8107C21.7662 35.8632 21.8296 35.9337 21.8755 35.9667C21.9189 35.9972 23.384 36.809 25.131 37.7677L28.304 39.51V42.5977C28.304 44.2922 28.2925 45.6822 28.278 45.6822C28.2662 45.6822 25.5232 44.156 22.1837 42.2872L16.1124 38.8922L16.1043 28.455L16.0989 18.0207L16.2338 18.0934C16.3118 18.1335 17.5578 18.8292 19.0062 19.6401ZM28.304 24.7778V31.5035L28.1977 31.571C28.0532 31.6602 22.7801 34.6072 22.7625 34.6072C22.7539 34.6072 22.7474 31.571 22.7474 27.8592L22.7507 21.1141L25.5052 19.5737C27.02 18.7258 28.2692 18.038 28.284 18.043C28.295 18.049 28.304 21.0803 28.304 24.7778ZM38.8132 23.2311L41.574 24.7746V27.8345C41.574 30.7377 41.5707 30.8935 41.5255 30.877C41.496 30.8657 40.2467 30.1697 38.7477 29.3302L36.0185 27.8057V24.7473C36.0185 23.0631 36.027 21.6875 36.0355 21.6875C36.0472 21.6875 37.2965 22.3811 38.8132 23.2311ZM48.2237 24.7277C48.2237 26.4027 48.2122 27.7842 48.2007 27.7977C48.1807 27.8285 42.72 30.8882 42.6852 30.8882C42.677 30.8882 42.6685 29.5127 42.6685 27.8285V24.7699L45.423 23.2282C46.9397 22.3814 48.1892 21.6875 48.2007 21.6875C48.2155 21.6875 48.2237 23.0545 48.2237 24.7277ZM38.2755 30.293C40.598 31.5927 40.9985 31.8257 40.9585 31.8562C40.932 31.8725 40.0517 32.3647 39.004 32.947C37.9562 33.5282 35.2415 35.0332 32.9697 36.2917L28.8417 38.582L28.71 38.512C27.9215 38.0927 23.3463 35.562 23.3463 35.5425C23.3441 35.5005 35.4515 28.7347 35.4997 28.7525C35.523 28.7602 36.7722 29.4537 38.2755 30.293ZM41.569 35.8275L41.5592 38.8927L35.4915 42.2875C32.153 44.156 29.409 45.6825 29.3952 45.6825C29.3805 45.6825 29.369 44.435 29.369 42.598V39.5107L35.4515 36.138C38.793 34.2837 41.5392 32.7655 41.554 32.7625C41.5657 32.7625 41.5707 34.1412 41.569 35.8275Z" stroke="#F4F9F0" stroke-width="0.5"/>
</g>
</g>
<defs>
<clipPath id="clip0_479_639">
<rect width="60" height="60" fill="white"/>
</clipPath>
</defs>
</svg>
