<svg width="60" height="60" viewBox="0 0 60 60" fill="none" xmlns="http://www.w3.org/2000/svg">
<g clip-path="url(#clip0_385_181)">
<path d="M30 60C46.5685 60 60 46.5685 60 30C60 13.4315 46.5685 0 30 0C13.4315 0 0 13.4315 0 30C0 46.5685 13.4315 60 30 60Z" fill="#FCFFFA"/>
<path d="M30 59.375C46.2234 59.375 59.375 46.2234 59.375 30C59.375 13.7766 46.2234 0.625 30 0.625C13.7766 0.625 0.625 13.7766 0.625 30C0.625 46.2234 13.7766 59.375 30 59.375Z" stroke="#101010" stroke-width="0.5"/>
<path d="M43.653 23.2829L42.2802 22.8176C42.2802 22.5074 42.433 22.1973 42.433 21.8871C43.5005 16.769 42.738 12.5815 40.4502 11.1857C38.1625 9.94497 34.502 11.1857 30.8417 14.4427C30.5365 14.7528 30.079 15.063 29.774 15.3732C29.469 15.2181 29.3165 14.9079 29.0115 14.7528C25.351 11.3408 21.5381 9.94498 19.2504 11.3408C16.9626 12.5815 16.3525 16.6139 17.2676 21.4218C17.4202 21.8871 17.4202 22.3524 17.5727 22.8176C16.9626 22.9727 16.5051 23.1278 16.0475 23.2829C11.472 24.8338 8.57422 27.4705 8.57422 29.9517C8.57422 32.5885 11.6245 35.38 16.3525 36.931C16.6576 37.086 17.1151 37.2413 17.5727 37.2413C17.4202 37.7065 17.2676 38.3268 17.2676 38.792C16.3525 43.6 17.1151 47.3223 19.2504 48.718C21.5381 50.1138 25.351 48.718 29.164 45.306C29.469 44.9958 29.774 44.6855 30.079 44.5305C30.384 44.8408 30.8417 45.306 31.2992 45.6163C34.9595 48.873 38.4675 50.1138 40.7552 48.718C43.043 47.3223 43.8055 43.2898 42.8905 38.3268C42.8905 38.0168 42.738 37.5513 42.5855 37.086C42.8905 36.931 43.1955 36.931 43.348 36.776C48.2285 35.07 51.4312 32.4333 51.4312 29.7968C51.2787 27.4705 48.2285 24.9889 43.653 23.2829ZM32.2142 15.9936C35.4172 13.2019 38.315 12.1163 39.6875 12.8917C41.0602 13.6672 41.6702 17.0792 40.7552 21.5769C40.7552 21.8871 40.6027 22.1973 40.6027 22.5074C38.7725 22.0422 36.7897 21.732 34.9595 21.5769C33.892 20.026 32.6717 18.475 31.2992 16.9241L32.2142 15.9936ZM21.2331 32.2783C21.6906 33.0538 21.9957 33.8293 22.4532 34.6045C22.9108 35.38 23.3683 36.1555 23.8259 36.776C22.4532 36.6208 21.2331 36.4658 19.8604 36.1555C20.1655 34.9148 20.623 33.674 21.2331 32.2783ZM21.2331 27.9358C20.623 26.695 20.318 25.4543 19.8604 24.2135C21.0806 23.9033 22.4532 23.7482 23.6733 23.5931C23.2158 24.3686 22.7582 24.9889 22.3007 25.7643C21.9957 26.3848 21.5381 27.1603 21.2331 27.9358ZM22.1482 30.107C22.7582 28.8663 23.3683 27.7805 23.9784 26.5398C24.5884 25.4543 25.351 24.2135 26.1135 23.1278C27.3337 22.9727 28.7065 22.9727 30.079 22.9727C31.4517 22.9727 32.6717 22.9727 34.0445 23.1278C34.807 24.2135 35.4172 25.299 36.0272 26.5398C36.6372 27.6255 37.2472 28.8663 37.8575 30.107C37.2472 31.3478 36.6372 32.4333 36.0272 33.674C35.4172 34.7598 34.6545 36.0005 34.0445 37.086C32.8242 37.2413 31.4517 37.2413 30.079 37.2413C28.7065 37.2413 27.4862 37.2413 26.2662 37.086C25.5035 36.0005 24.8935 34.9148 24.1309 33.674C23.3683 32.4333 22.7582 31.3478 22.1482 30.107ZM37.3997 34.6045C37.8575 33.8293 38.315 33.0538 38.62 32.2783C39.23 33.519 39.6875 34.7598 39.9925 36.1555C38.62 36.4658 37.3997 36.6208 36.0272 36.776C36.6372 36.0005 37.0947 35.225 37.3997 34.6045ZM38.62 27.9358C38.1625 27.1603 37.8575 26.3848 37.3997 25.6093C36.9422 24.8338 36.4847 24.2135 36.1797 23.438C37.5522 23.5931 38.7725 23.9033 40.1452 24.0584C39.6875 25.4543 39.23 26.695 38.62 27.9358ZM29.9265 18.1649C30.8417 19.0954 31.6042 20.181 32.3667 21.2667C30.689 21.1116 29.0115 21.1116 27.3337 21.2667C28.2487 20.181 29.164 19.0954 29.9265 18.1649ZM20.1655 12.8917C21.5381 12.1163 24.741 13.2019 28.0962 16.3038L28.7065 16.9241C27.3337 18.32 26.1135 19.8709 25.046 21.5769C23.0633 21.732 21.2331 22.0422 19.4029 22.5074C19.2504 22.0422 19.2504 21.5769 19.0978 21.1116C18.1827 16.9241 18.7928 13.6672 20.1655 12.8917ZM18.0302 35.6903C17.7252 35.5353 17.2676 35.5353 16.9626 35.38C14.8274 34.6045 13.1497 33.674 11.9296 32.7435C10.862 31.813 10.4044 30.8825 10.4044 30.107C10.4044 28.556 12.6922 26.5398 16.6576 25.144C17.1151 24.9889 17.5727 24.8338 18.1827 24.6787C18.6403 26.5398 19.2504 28.401 20.1655 30.107C19.2504 31.968 18.6403 33.8293 18.0302 35.6903ZM27.9437 44.2203C26.2662 45.7713 24.5884 46.7018 23.2158 47.3223C21.8431 47.7875 20.928 47.7875 20.1655 47.4773C18.7928 46.7018 18.1827 43.6 18.9453 39.5675C19.0978 38.9473 19.2504 38.482 19.2504 37.8615C21.0806 38.3268 23.0633 38.637 25.046 38.637C26.1135 40.188 27.3337 41.7388 28.7065 43.2898C28.4012 43.6 28.2487 43.9103 27.9437 44.2203ZM29.9265 42.049C29.0115 41.1185 28.2487 40.0328 27.3337 38.9473H32.3667C31.7567 40.0328 30.8417 41.1185 29.9265 42.049ZM41.0602 44.6855C40.7552 46.0815 40.2977 47.012 39.6875 47.3223C38.315 48.0978 35.4172 47.012 32.3667 44.3755C32.0617 44.0653 31.6042 43.755 31.2992 43.4448C32.5192 42.049 33.7395 40.498 34.807 38.792C36.7897 38.637 38.62 38.3268 40.6027 37.8615C40.7552 38.1718 40.7552 38.637 40.9077 38.9473C41.3652 41.1185 41.3652 43.1348 41.0602 44.6855ZM42.5855 35.38C42.2802 35.38 42.1277 35.5353 41.8227 35.5353C41.2127 33.674 40.4502 31.813 39.6875 29.9517C40.4502 28.2458 41.2127 26.3848 41.8227 24.5236C42.2802 24.6787 42.738 24.8338 43.043 24.9889C47.0085 26.3848 49.4487 28.401 49.4487 29.9517C49.4487 31.813 46.8557 33.9843 42.5855 35.38Z" fill="#3F6D26"/>
<path d="M30.117 34.2842C30.9633 34.2842 31.8093 34.1142 32.486 33.6042C33.1628 33.0942 33.6705 32.414 34.0088 31.734C34.3473 30.884 34.3473 30.0337 34.178 29.1837C34.0088 28.3335 33.6705 27.6535 32.9935 26.9735C32.486 26.2935 31.64 25.9532 30.794 25.7832C29.948 25.6132 29.102 25.7832 28.2558 25.9532C27.4098 26.2935 26.733 26.8035 26.3945 27.4835C25.887 28.1635 25.7178 29.0137 25.7178 29.8637C25.7178 30.3737 25.887 31.054 26.0563 31.564C26.2255 32.074 26.5638 32.584 26.9023 32.9242C27.2408 33.2642 27.7483 33.6042 28.2558 33.7742C28.9328 34.1142 29.6095 34.2842 30.117 34.2842Z" fill="#3F6D26"/>
</g>
<defs>
<clipPath id="clip0_385_181">
<rect width="60" height="60" fill="white"/>
</clipPath>
</defs>
</svg>
