<svg width="60" height="60" viewBox="0 0 60 60" fill="none" xmlns="http://www.w3.org/2000/svg">
<g clip-path="url(#clip0_479_638)">
<path d="M30 60C46.5685 60 60 46.5685 60 30C60 13.4315 46.5685 0 30 0C13.4315 0 0 13.4315 0 30C0 46.5685 13.4315 60 30 60Z" fill="#3F6D26"/>
<path d="M30 59.375C46.2234 59.375 59.375 46.2234 59.375 30C59.375 13.7766 46.2234 0.625 30 0.625C13.7766 0.625 0.625 13.7766 0.625 30C0.625 46.2234 13.7766 59.375 30 59.375Z" stroke="#F4F9F0" stroke-width="0.5"/>
<path d="M45.3188 24.6754C43.551 24.123 41.9905 23.1298 40.8165 21.8097C39.5225 20.3388 37.875 19.1559 35.9998 18.3515C34.1245 17.5471 32.0713 17.1426 29.9973 17.1688C27.2073 16.9895 24.4452 17.7703 22.2611 19.3556C20.077 20.9409 18.6312 23.2144 18.2115 25.7235C19.0381 24.4685 20.2821 23.4839 21.7646 22.9113C23.2471 22.3387 24.8917 22.2076 26.4615 22.5368C28.2263 23.1053 29.784 24.1043 30.9638 25.424C32.2648 26.8832 33.9155 28.0537 35.7903 28.8467C37.6653 29.64 39.7148 30.0345 41.783 30.0007C44.573 30.18 47.335 29.3992 49.519 27.814C51.7033 26.2285 53.149 23.9551 53.5688 21.4461C52.757 22.716 51.517 23.7154 50.0315 24.2969C48.546 24.8784 46.8938 25.011 45.3188 24.6754ZM14.6758 35.326C16.4435 35.8782 18.0039 36.8715 19.1779 38.1917C20.4719 39.6627 22.1195 40.8455 23.9948 41.65C25.87 42.4542 27.9233 42.8587 29.9973 42.8325C32.7873 43.012 35.5493 42.231 37.7333 40.6457C39.9175 39.0605 41.3633 36.787 41.783 34.278C40.9563 35.5327 39.7123 36.5175 38.2298 37.09C36.7473 37.6627 35.1028 37.7937 33.533 37.4645C31.7683 36.896 30.2103 35.897 29.0308 34.5775C27.7263 33.122 26.0748 31.9537 24.2008 31.161C22.3268 30.3682 20.279 29.9715 18.2115 30.0007C15.4215 29.8215 12.6595 30.6022 10.4754 32.1875C8.29131 33.7727 6.84546 36.0462 6.42578 38.5552C7.23736 37.2855 8.47746 36.286 9.96301 35.7045C11.4485 35.123 13.1008 34.9902 14.6758 35.326Z" fill="#F4F9F0"/>
</g>
<defs>
<clipPath id="clip0_479_638">
<rect width="60" height="60" fill="white"/>
</clipPath>
</defs>
</svg>
