<svg width="60" height="60" viewBox="0 0 60 60" fill="none" xmlns="http://www.w3.org/2000/svg">
<g clip-path="url(#clip0_479_636)">
<path d="M30 60C46.5685 60 60 46.5685 60 30C60 13.4315 46.5685 0 30 0C13.4315 0 0 13.4315 0 30C0 46.5685 13.4315 60 30 60Z" fill="#3F6D26"/>
<path d="M30 59.375C46.2234 59.375 59.375 46.2234 59.375 30C59.375 13.7766 46.2234 0.625 30 0.625C13.7766 0.625 0.625 13.7766 0.625 30C0.625 46.2234 13.7766 59.375 30 59.375Z" stroke="#F4F9F0" stroke-width="0.5"/>
<path d="M43.153 17.1411H36.1642L31.075 25.058L26.7127 17.1411H10.7178L31.075 51.4267L51.432 17.1411H43.153ZM15.7798 20.0005H20.6691L31.075 37.7107L41.4715 20.0005H46.361L31.075 45.7527L15.7798 20.0005Z" fill="#F4F9F0"/>
</g>
<defs>
<clipPath id="clip0_479_636">
<rect width="60" height="60" fill="white"/>
</clipPath>
</defs>
</svg>
