<svg width="360" height="470" viewBox="0 0 360 470" fill="none" xmlns="http://www.w3.org/2000/svg">
<rect x="1" y="1" width="358" height="468" rx="19" fill="white" stroke="#3F6D26" stroke-width="2"/>
<path d="M141.952 86V74.8H142.64L150.624 84.992H150.256V74.8H151.072V86H150.4L142.4 75.808H142.768V86H141.952ZM157.319 86.064C156.477 86.064 155.73 85.8827 155.079 85.52C154.439 85.1573 153.933 84.656 153.559 84.016C153.197 83.376 153.015 82.6453 153.015 81.824C153.015 80.992 153.186 80.2613 153.527 79.632C153.879 78.992 154.359 78.4907 154.967 78.128C155.575 77.7653 156.258 77.584 157.015 77.584C157.773 77.584 158.45 77.76 159.047 78.112C159.655 78.464 160.13 78.96 160.471 79.6C160.823 80.2293 160.999 80.96 160.999 81.792C160.999 81.824 160.994 81.8613 160.983 81.904C160.983 81.936 160.983 81.9733 160.983 82.016H153.607V81.392H160.551L160.231 81.696C160.242 81.0453 160.103 80.464 159.815 79.952C159.538 79.4293 159.159 79.024 158.679 78.736C158.199 78.4373 157.645 78.288 157.015 78.288C156.397 78.288 155.842 78.4373 155.351 78.736C154.871 79.024 154.493 79.4293 154.215 79.952C153.938 80.464 153.799 81.0507 153.799 81.712V81.856C153.799 82.5387 153.949 83.1467 154.247 83.68C154.557 84.2027 154.978 84.6133 155.511 84.912C156.045 85.2 156.653 85.344 157.335 85.344C157.869 85.344 158.365 85.248 158.823 85.056C159.293 84.864 159.687 84.5707 160.007 84.176L160.471 84.704C160.109 85.152 159.65 85.4933 159.095 85.728C158.551 85.952 157.959 86.064 157.319 86.064ZM161.112 86L164.584 81.488L164.568 81.872L161.288 77.648H162.2L165.064 81.344H164.728L167.576 77.648H168.472L165.16 81.92L165.176 81.488L168.696 86H167.752L164.728 82.064L165.032 82.096L162.024 86H161.112ZM172.369 86.064C171.633 86.064 171.067 85.8613 170.673 85.456C170.289 85.0507 170.097 84.496 170.097 83.792V75.824H170.897V83.712C170.897 84.2453 171.03 84.656 171.297 84.944C171.563 85.232 171.947 85.376 172.449 85.376C172.971 85.376 173.403 85.2213 173.745 84.912L174.081 85.472C173.867 85.6747 173.606 85.824 173.297 85.92C172.998 86.016 172.689 86.064 172.369 86.064ZM168.561 78.336V77.648H173.553V78.336H168.561ZM175.572 86.064C175.391 86.064 175.231 86 175.092 85.872C174.964 85.7333 174.9 85.568 174.9 85.376C174.9 85.184 174.964 85.024 175.092 84.896C175.231 84.768 175.391 84.704 175.572 84.704C175.753 84.704 175.908 84.768 176.036 84.896C176.175 85.024 176.244 85.184 176.244 85.376C176.244 85.568 176.175 85.7333 176.036 85.872C175.908 86 175.753 86.064 175.572 86.064ZM176.851 89.168C176.521 89.168 176.201 89.12 175.891 89.024C175.582 88.9387 175.326 88.8 175.123 88.608L175.443 88.016C175.795 88.3253 176.249 88.48 176.803 88.48C177.283 88.48 177.651 88.336 177.907 88.048C178.174 87.76 178.307 87.344 178.307 86.8V77.648H179.107V86.832C179.107 87.536 178.91 88.1013 178.515 88.528C178.131 88.9547 177.577 89.168 176.851 89.168ZM178.707 75.616C178.526 75.616 178.371 75.552 178.243 75.424C178.115 75.296 178.051 75.1467 178.051 74.976C178.051 74.7947 178.115 74.64 178.243 74.512C178.371 74.384 178.526 74.32 178.707 74.32C178.899 74.32 179.054 74.384 179.171 74.512C179.299 74.6293 179.363 74.7787 179.363 74.96C179.363 75.1413 179.299 75.296 179.171 75.424C179.054 75.552 178.899 75.616 178.707 75.616ZM183.789 86.064C183.096 86.064 182.445 85.9627 181.837 85.76C181.24 85.5573 180.776 85.3013 180.445 84.992L180.813 84.352C181.133 84.6293 181.56 84.8693 182.093 85.072C182.627 85.264 183.203 85.36 183.821 85.36C184.696 85.36 185.325 85.216 185.709 84.928C186.093 84.64 186.285 84.2613 186.285 83.792C186.285 83.4507 186.184 83.184 185.981 82.992C185.789 82.7893 185.528 82.6347 185.197 82.528C184.867 82.4213 184.504 82.336 184.109 82.272C183.715 82.1973 183.32 82.1173 182.925 82.032C182.531 81.9467 182.168 81.824 181.837 81.664C181.507 81.504 181.24 81.2853 181.037 81.008C180.845 80.72 180.749 80.3413 180.749 79.872C180.749 79.4453 180.867 79.0613 181.101 78.72C181.336 78.3787 181.688 78.1067 182.157 77.904C182.627 77.6907 183.213 77.584 183.917 77.584C184.44 77.584 184.963 77.6587 185.485 77.808C186.019 77.9573 186.451 78.1547 186.781 78.4L186.413 79.04C186.061 78.7733 185.667 78.5813 185.229 78.464C184.792 78.3467 184.349 78.288 183.901 78.288C183.091 78.288 182.493 78.4373 182.109 78.736C181.736 79.0347 181.549 79.408 181.549 79.856C181.549 80.208 181.645 80.4907 181.837 80.704C182.04 80.9067 182.307 81.0667 182.637 81.184C182.968 81.2907 183.331 81.3813 183.725 81.456C184.12 81.52 184.515 81.5947 184.909 81.68C185.304 81.7653 185.667 81.888 185.997 82.048C186.328 82.1973 186.589 82.4107 186.781 82.688C186.984 82.9547 187.085 83.3173 187.085 83.776C187.085 84.2347 186.957 84.6347 186.701 84.976C186.456 85.3173 186.088 85.584 185.597 85.776C185.107 85.968 184.504 86.064 183.789 86.064ZM192.083 89.104V74.128H192.835V89.104H192.083ZM201.393 86V75.536H197.361V74.8H206.241V75.536H202.209V86H201.393ZM212.004 86V84.096L211.972 83.808V80.672C211.972 79.8933 211.758 79.3013 211.332 78.896C210.916 78.4907 210.302 78.288 209.492 78.288C208.916 78.288 208.377 78.3893 207.876 78.592C207.385 78.784 206.964 79.0347 206.612 79.344L206.212 78.768C206.628 78.3947 207.129 78.1067 207.716 77.904C208.302 77.6907 208.916 77.584 209.556 77.584C210.59 77.584 211.385 77.8453 211.94 78.368C212.494 78.8907 212.772 79.6693 212.772 80.704V86H212.004ZM208.996 86.064C208.377 86.064 207.838 85.968 207.38 85.776C206.932 85.5733 206.585 85.2907 206.34 84.928C206.105 84.5653 205.988 84.1493 205.988 83.68C205.988 83.2533 206.084 82.8693 206.276 82.528C206.478 82.176 206.809 81.8933 207.268 81.68C207.726 81.456 208.34 81.344 209.108 81.344H212.18V81.968H209.124C208.26 81.968 207.652 82.128 207.3 82.448C206.958 82.768 206.788 83.168 206.788 83.648C206.788 84.1813 206.99 84.608 207.396 84.928C207.801 85.248 208.372 85.408 209.108 85.408C209.812 85.408 210.404 85.248 210.884 84.928C211.374 84.608 211.737 84.144 211.972 83.536L212.196 84.08C211.972 84.688 211.588 85.1733 211.044 85.536C210.51 85.888 209.828 86.064 208.996 86.064ZM215.268 86V77.648H216.068V86H215.268ZM215.668 75.616C215.487 75.616 215.332 75.552 215.204 75.424C215.076 75.296 215.012 75.1467 215.012 74.976C215.012 74.7947 215.076 74.64 215.204 74.512C215.332 74.384 215.487 74.32 215.668 74.32C215.86 74.32 216.015 74.384 216.132 74.512C216.26 74.6293 216.324 74.7787 216.324 74.96C216.324 75.1413 216.26 75.296 216.132 75.424C216.015 75.552 215.86 75.616 215.668 75.616ZM218.64 86V74.128H219.44V86H218.64ZM223.644 86L220.476 77.648H221.244L224.188 85.552H223.852L226.876 77.648H227.564L230.572 85.552H230.22L233.212 77.648H233.948L230.78 86H230.028L227.084 78.416H227.34L224.38 86H223.644ZM235.009 86V77.648H235.809V86H235.009ZM235.409 75.616C235.227 75.616 235.073 75.552 234.945 75.424C234.817 75.296 234.753 75.1467 234.753 74.976C234.753 74.7947 234.817 74.64 234.945 74.512C235.073 74.384 235.227 74.32 235.409 74.32C235.601 74.32 235.755 74.384 235.873 74.512C236.001 74.6293 236.065 74.7787 236.065 74.96C236.065 75.1413 236.001 75.296 235.873 75.424C235.755 75.552 235.601 75.616 235.409 75.616ZM242.46 77.584C243.143 77.584 243.735 77.7173 244.236 77.984C244.748 78.24 245.143 78.6347 245.42 79.168C245.708 79.6907 245.852 80.3413 245.852 81.12V86H245.052V81.184C245.052 80.2453 244.812 79.5307 244.332 79.04C243.863 78.5493 243.202 78.304 242.348 78.304C241.698 78.304 241.132 78.4373 240.652 78.704C240.172 78.9707 239.804 79.344 239.548 79.824C239.303 80.304 239.18 80.88 239.18 81.552V86H238.38V77.648H239.148V79.968L239.036 79.712C239.292 79.0507 239.714 78.5333 240.3 78.16C240.887 77.776 241.607 77.584 242.46 77.584ZM251.562 86.064C250.783 86.064 250.079 85.888 249.45 85.536C248.831 85.1733 248.341 84.672 247.978 84.032C247.615 83.392 247.434 82.656 247.434 81.824C247.434 80.9813 247.615 80.2453 247.978 79.616C248.341 78.976 248.831 78.48 249.45 78.128C250.079 77.7653 250.783 77.584 251.562 77.584C252.298 77.584 252.959 77.7547 253.546 78.096C254.143 78.4373 254.613 78.9227 254.954 79.552C255.306 80.1813 255.482 80.9387 255.482 81.824C255.482 82.688 255.311 83.44 254.97 84.08C254.629 84.72 254.159 85.2107 253.562 85.552C252.975 85.8933 252.309 86.064 251.562 86.064ZM251.61 85.344C252.25 85.344 252.821 85.2 253.322 84.912C253.834 84.6133 254.234 84.1973 254.522 83.664C254.821 83.1307 254.97 82.5173 254.97 81.824C254.97 81.12 254.821 80.5067 254.522 79.984C254.234 79.4507 253.834 79.04 253.322 78.752C252.821 78.4533 252.25 78.304 251.61 78.304C250.97 78.304 250.394 78.4533 249.882 78.752C249.381 79.04 248.981 79.4507 248.682 79.984C248.394 80.5067 248.25 81.12 248.25 81.824C248.25 82.5173 248.394 83.1307 248.682 83.664C248.981 84.1973 249.381 84.6133 249.882 84.912C250.394 85.2 250.97 85.344 251.61 85.344ZM254.986 86V83.264L255.13 81.808L254.97 80.352V74.128H255.77V86H254.986ZM262.628 79.952H268.692V80.672H262.628V79.952ZM262.724 85.264H269.636V86H261.908V74.8H269.396V75.536H262.724V85.264ZM269.962 86L273.434 81.488L273.418 81.872L270.138 77.648H271.05L273.914 81.344H273.578L276.426 77.648H277.322L274.01 81.92L274.026 81.488L277.546 86H276.602L273.578 82.064L273.882 82.096L270.874 86H269.962ZM282.979 86.064C282.243 86.064 281.576 85.8933 280.979 85.552C280.392 85.2107 279.923 84.7253 279.571 84.096C279.229 83.456 279.059 82.6987 279.059 81.824C279.059 80.9493 279.229 80.1973 279.571 79.568C279.923 78.928 280.392 78.4373 280.979 78.096C281.576 77.7547 282.243 77.584 282.979 77.584C283.768 77.584 284.472 77.7653 285.091 78.128C285.72 78.48 286.211 78.976 286.563 79.616C286.925 80.256 287.107 80.992 287.107 81.824C287.107 82.656 286.925 83.392 286.563 84.032C286.211 84.672 285.72 85.1733 285.091 85.536C284.472 85.888 283.768 86.064 282.979 86.064ZM278.787 89.104V77.648H279.555V80.384L279.427 81.84L279.587 83.296V89.104H278.787ZM282.931 85.344C283.571 85.344 284.147 85.2 284.659 84.912C285.171 84.6133 285.571 84.1973 285.859 83.664C286.157 83.1307 286.307 82.5173 286.307 81.824C286.307 81.12 286.157 80.5067 285.859 79.984C285.571 79.4507 285.171 79.04 284.659 78.752C284.147 78.4533 283.571 78.304 282.931 78.304C282.291 78.304 281.715 78.4533 281.203 78.752C280.701 79.04 280.301 79.4507 280.003 79.984C279.715 80.5067 279.571 81.12 279.571 81.824C279.571 82.5173 279.715 83.1307 280.003 83.664C280.301 84.1973 280.701 84.6133 281.203 84.912C281.715 85.2 282.291 85.344 282.931 85.344ZM292.175 86.064C291.333 86.064 290.586 85.8827 289.935 85.52C289.295 85.1573 288.789 84.656 288.415 84.016C288.053 83.376 287.871 82.6453 287.871 81.824C287.871 80.992 288.042 80.2613 288.383 79.632C288.735 78.992 289.215 78.4907 289.823 78.128C290.431 77.7653 291.114 77.584 291.871 77.584C292.629 77.584 293.306 77.76 293.903 78.112C294.511 78.464 294.986 78.96 295.327 79.6C295.679 80.2293 295.855 80.96 295.855 81.792C295.855 81.824 295.85 81.8613 295.839 81.904C295.839 81.936 295.839 81.9733 295.839 82.016H288.463V81.392H295.407L295.087 81.696C295.098 81.0453 294.959 80.464 294.671 79.952C294.394 79.4293 294.015 79.024 293.535 78.736C293.055 78.4373 292.501 78.288 291.871 78.288C291.253 78.288 290.698 78.4373 290.207 78.736C289.727 79.024 289.349 79.4293 289.071 79.952C288.794 80.464 288.655 81.0507 288.655 81.712V81.856C288.655 82.5387 288.805 83.1467 289.103 83.68C289.413 84.2027 289.834 84.6133 290.367 84.912C290.901 85.2 291.509 85.344 292.191 85.344C292.725 85.344 293.221 85.248 293.679 85.056C294.149 84.864 294.543 84.5707 294.863 84.176L295.327 84.704C294.965 85.152 294.506 85.4933 293.951 85.728C293.407 85.952 292.815 86.064 292.175 86.064ZM297.53 86V77.648H298.298V79.936L298.218 79.68C298.453 79.008 298.848 78.4907 299.402 78.128C299.957 77.7653 300.65 77.584 301.482 77.584V78.368C301.45 78.368 301.418 78.368 301.386 78.368C301.354 78.3573 301.322 78.352 301.29 78.352C300.362 78.352 299.637 78.6453 299.114 79.232C298.592 79.808 298.33 80.6133 298.33 81.648V86H297.53ZM305.694 86.064C304.958 86.064 304.392 85.8613 303.998 85.456C303.614 85.0507 303.422 84.496 303.422 83.792V75.824H304.222V83.712C304.222 84.2453 304.355 84.656 304.622 84.944C304.888 85.232 305.272 85.376 305.774 85.376C306.296 85.376 306.728 85.2213 307.07 84.912L307.406 85.472C307.192 85.6747 306.931 85.824 306.622 85.92C306.323 86.016 306.014 86.064 305.694 86.064ZM301.886 78.336V77.648H306.878V78.336H301.886ZM141.952 106V94.8H146.384C147.568 94.8 148.608 95.04 149.504 95.52C150.4 96 151.093 96.6613 151.584 97.504C152.085 98.3467 152.336 99.312 152.336 100.4C152.336 101.488 152.085 102.453 151.584 103.296C151.093 104.139 150.4 104.8 149.504 105.28C148.608 105.76 147.568 106 146.384 106H141.952ZM142.768 105.264H146.32C147.376 105.264 148.293 105.056 149.072 104.64C149.851 104.224 150.453 103.653 150.88 102.928C151.307 102.192 151.52 101.349 151.52 100.4C151.52 99.4507 151.307 98.6133 150.88 97.888C150.453 97.152 149.851 96.576 149.072 96.16C148.293 95.744 147.376 95.536 146.32 95.536H142.768V105.264ZM157.507 106.064C156.664 106.064 155.917 105.883 155.267 105.52C154.627 105.157 154.12 104.656 153.747 104.016C153.384 103.376 153.203 102.645 153.203 101.824C153.203 100.992 153.373 100.261 153.715 99.632C154.067 98.992 154.547 98.4907 155.155 98.128C155.763 97.7653 156.445 97.584 157.203 97.584C157.96 97.584 158.637 97.76 159.235 98.112C159.843 98.464 160.317 98.96 160.659 99.6C161.011 100.229 161.187 100.96 161.187 101.792C161.187 101.824 161.181 101.861 161.171 101.904C161.171 101.936 161.171 101.973 161.171 102.016H153.795V101.392H160.739L160.419 101.696C160.429 101.045 160.291 100.464 160.003 99.952C159.725 99.4293 159.347 99.024 158.867 98.736C158.387 98.4373 157.832 98.288 157.203 98.288C156.584 98.288 156.029 98.4373 155.539 98.736C155.059 99.024 154.68 99.4293 154.403 99.952C154.125 100.464 153.987 101.051 153.987 101.712V101.856C153.987 102.539 154.136 103.147 154.435 103.68C154.744 104.203 155.165 104.613 155.699 104.912C156.232 105.2 156.84 105.344 157.523 105.344C158.056 105.344 158.552 105.248 159.011 105.056C159.48 104.864 159.875 104.571 160.195 104.176L160.659 104.704C160.296 105.152 159.837 105.493 159.283 105.728C158.739 105.952 158.147 106.064 157.507 106.064ZM164.817 106L161.057 97.648H161.905L165.425 105.552H165.041L168.593 97.648H169.409L165.633 106H164.817ZM173.516 106.064C172.673 106.064 171.927 105.883 171.276 105.52C170.636 105.157 170.129 104.656 169.756 104.016C169.393 103.376 169.212 102.645 169.212 101.824C169.212 100.992 169.383 100.261 169.724 99.632C170.076 98.992 170.556 98.4907 171.164 98.128C171.772 97.7653 172.455 97.584 173.212 97.584C173.969 97.584 174.647 97.76 175.244 98.112C175.852 98.464 176.327 98.96 176.668 99.6C177.02 100.229 177.196 100.96 177.196 101.792C177.196 101.824 177.191 101.861 177.18 101.904C177.18 101.936 177.18 101.973 177.18 102.016H169.804V101.392H176.748L176.428 101.696C176.439 101.045 176.3 100.464 176.012 99.952C175.735 99.4293 175.356 99.024 174.876 98.736C174.396 98.4373 173.841 98.288 173.212 98.288C172.593 98.288 172.039 98.4373 171.548 98.736C171.068 99.024 170.689 99.4293 170.412 99.952C170.135 100.464 169.996 101.051 169.996 101.712V101.856C169.996 102.539 170.145 103.147 170.444 103.68C170.753 104.203 171.175 104.613 171.708 104.912C172.241 105.2 172.849 105.344 173.532 105.344C174.065 105.344 174.561 105.248 175.02 105.056C175.489 104.864 175.884 104.571 176.204 104.176L176.668 104.704C176.305 105.152 175.847 105.493 175.292 105.728C174.748 105.952 174.156 106.064 173.516 106.064ZM178.871 106V94.128H179.671V106H178.871ZM185.507 106.064C184.707 106.064 183.992 105.883 183.363 105.52C182.744 105.157 182.248 104.656 181.875 104.016C181.512 103.376 181.331 102.645 181.331 101.824C181.331 100.992 181.512 100.261 181.875 99.632C182.248 98.992 182.744 98.4907 183.363 98.128C183.992 97.7653 184.707 97.584 185.507 97.584C186.307 97.584 187.022 97.7653 187.651 98.128C188.28 98.4907 188.776 98.992 189.139 99.632C189.502 100.261 189.683 100.992 189.683 101.824C189.683 102.645 189.502 103.376 189.139 104.016C188.776 104.656 188.28 105.157 187.651 105.52C187.022 105.883 186.307 106.064 185.507 106.064ZM185.507 105.344C186.147 105.344 186.723 105.2 187.235 104.912C187.747 104.613 188.147 104.197 188.435 103.664C188.723 103.131 188.867 102.517 188.867 101.824C188.867 101.12 188.723 100.507 188.435 99.984C188.147 99.4507 187.747 99.04 187.235 98.752C186.723 98.4533 186.147 98.304 185.507 98.304C184.867 98.304 184.291 98.4533 183.779 98.752C183.278 99.04 182.878 99.4507 182.579 99.984C182.291 100.507 182.147 101.12 182.147 101.824C182.147 102.517 182.291 103.131 182.579 103.664C182.878 104.197 183.278 104.613 183.779 104.912C184.291 105.2 184.867 105.344 185.507 105.344ZM195.557 106.064C194.821 106.064 194.154 105.893 193.557 105.552C192.97 105.211 192.501 104.725 192.149 104.096C191.807 103.456 191.637 102.699 191.637 101.824C191.637 100.949 191.807 100.197 192.149 99.568C192.501 98.928 192.97 98.4373 193.557 98.096C194.154 97.7547 194.821 97.584 195.557 97.584C196.346 97.584 197.05 97.7653 197.669 98.128C198.298 98.48 198.789 98.976 199.141 99.616C199.503 100.256 199.685 100.992 199.685 101.824C199.685 102.656 199.503 103.392 199.141 104.032C198.789 104.672 198.298 105.173 197.669 105.536C197.05 105.888 196.346 106.064 195.557 106.064ZM191.365 109.104V97.648H192.133V100.384L192.005 101.84L192.165 103.296V109.104H191.365ZM195.509 105.344C196.149 105.344 196.725 105.2 197.237 104.912C197.749 104.613 198.149 104.197 198.437 103.664C198.735 103.131 198.885 102.517 198.885 101.824C198.885 101.12 198.735 100.507 198.437 99.984C198.149 99.4507 197.749 99.04 197.237 98.752C196.725 98.4533 196.149 98.304 195.509 98.304C194.869 98.304 194.293 98.4533 193.781 98.752C193.279 99.04 192.879 99.4507 192.581 99.984C192.293 100.507 192.149 101.12 192.149 101.824C192.149 102.517 192.293 103.131 192.581 103.664C192.879 104.197 193.279 104.613 193.781 104.912C194.293 105.2 194.869 105.344 195.509 105.344ZM204.754 106.064C203.911 106.064 203.164 105.883 202.514 105.52C201.874 105.157 201.367 104.656 200.994 104.016C200.631 103.376 200.45 102.645 200.45 101.824C200.45 100.992 200.62 100.261 200.962 99.632C201.314 98.992 201.794 98.4907 202.402 98.128C203.01 97.7653 203.692 97.584 204.45 97.584C205.207 97.584 205.884 97.76 206.482 98.112C207.09 98.464 207.564 98.96 207.906 99.6C208.258 100.229 208.434 100.96 208.434 101.792C208.434 101.824 208.428 101.861 208.418 101.904C208.418 101.936 208.418 101.973 208.418 102.016H201.042V101.392H207.986L207.666 101.696C207.676 101.045 207.538 100.464 207.25 99.952C206.972 99.4293 206.594 99.024 206.114 98.736C205.634 98.4373 205.079 98.288 204.45 98.288C203.831 98.288 203.276 98.4373 202.786 98.736C202.306 99.024 201.927 99.4293 201.65 99.952C201.372 100.464 201.234 101.051 201.234 101.712V101.856C201.234 102.539 201.383 103.147 201.682 103.68C201.991 104.203 202.412 104.613 202.946 104.912C203.479 105.2 204.087 105.344 204.77 105.344C205.303 105.344 205.799 105.248 206.258 105.056C206.727 104.864 207.122 104.571 207.442 104.176L207.906 104.704C207.543 105.152 207.084 105.493 206.53 105.728C205.986 105.952 205.394 106.064 204.754 106.064ZM210.108 106V97.648H210.876V99.936L210.796 99.68C211.031 99.008 211.426 98.4907 211.98 98.128C212.535 97.7653 213.228 97.584 214.06 97.584V98.368C214.028 98.368 213.996 98.368 213.964 98.368C213.932 98.3573 213.9 98.352 213.868 98.352C212.94 98.352 212.215 98.6453 211.692 99.232C211.17 99.808 210.908 100.613 210.908 101.648V106H210.108Z" fill="black"/>
<rect x="20" y="140" width="320" height="2" fill="#10180B" fill-opacity="0.2"/>
<rect x="20" y="20" width="100" height="100" rx="50" fill="#A3DA86" fill-opacity="0.5"/>
<path d="M143.86 51.62L143.76 49.18L151.7 41H153.98L147.84 47.48L146.72 48.72L143.86 51.62ZM142.1 55V41H144.1V55H142.1ZM152.02 55L146.28 48.32L147.62 46.84L154.36 55H152.02ZM155 55V44.4H156.84V47.28L156.66 46.56C156.953 45.8267 157.446 45.2667 158.14 44.88C158.833 44.4933 159.686 44.3 160.7 44.3V46.16C160.62 46.1467 160.54 46.14 160.46 46.14C160.393 46.14 160.326 46.14 160.26 46.14C159.233 46.14 158.42 46.4467 157.82 47.06C157.22 47.6733 156.92 48.56 156.92 49.72V55H155ZM166.663 55.12C165.756 55.12 164.956 54.9533 164.263 54.62C163.583 54.2867 163.049 53.78 162.663 53.1C162.289 52.4067 162.103 51.54 162.103 50.5V44.4H164.023V50.28C164.023 51.32 164.269 52.1 164.763 52.62C165.269 53.14 165.976 53.4 166.883 53.4C167.549 53.4 168.129 53.2667 168.623 53C169.116 52.72 169.496 52.32 169.763 51.8C170.029 51.2667 170.163 50.6267 170.163 49.88V44.4H172.083V55H170.263V52.14L170.563 52.9C170.216 53.6067 169.696 54.1533 169.003 54.54C168.309 54.9267 167.529 55.12 166.663 55.12ZM180.398 44.3C181.265 44.3 182.025 44.4667 182.678 44.8C183.345 45.1333 183.865 45.64 184.238 46.32C184.611 47 184.798 47.86 184.798 48.9V55H182.878V49.12C182.878 48.0933 182.625 47.32 182.118 46.8C181.625 46.28 180.925 46.02 180.018 46.02C179.338 46.02 178.745 46.1533 178.238 46.42C177.731 46.6867 177.338 47.08 177.058 47.6C176.791 48.12 176.658 48.7667 176.658 49.54V55H174.738V44.4H176.578V47.26L176.278 46.5C176.625 45.8067 177.158 45.2667 177.878 44.88C178.598 44.4933 179.438 44.3 180.398 44.3ZM193.931 55V52.76L193.831 52.34V48.52C193.831 47.7067 193.591 47.08 193.111 46.64C192.645 46.1867 191.938 45.96 190.991 45.96C190.365 45.96 189.751 46.0667 189.151 46.28C188.551 46.48 188.045 46.7533 187.631 47.1L186.831 45.66C187.378 45.22 188.031 44.8867 188.791 44.66C189.565 44.42 190.371 44.3 191.211 44.3C192.665 44.3 193.785 44.6533 194.571 45.36C195.358 46.0667 195.751 47.1467 195.751 48.6V55H193.931ZM190.451 55.12C189.665 55.12 188.971 54.9867 188.371 54.72C187.785 54.4533 187.331 54.0867 187.011 53.62C186.691 53.14 186.531 52.6 186.531 52C186.531 51.4267 186.665 50.9067 186.931 50.44C187.211 49.9733 187.658 49.6 188.271 49.32C188.898 49.04 189.738 48.9 190.791 48.9H194.151V50.28H190.871C189.911 50.28 189.265 50.44 188.931 50.76C188.598 51.08 188.431 51.4667 188.431 51.92C188.431 52.44 188.638 52.86 189.051 53.18C189.465 53.4867 190.038 53.64 190.771 53.64C191.491 53.64 192.118 53.48 192.651 53.16C193.198 52.84 193.591 52.3733 193.831 51.76L194.211 53.08C193.958 53.7067 193.511 54.2067 192.871 54.58C192.231 54.94 191.425 55.12 190.451 55.12ZM198.304 55V40.16H200.224V55H198.304ZM211.621 55.16C210.555 55.16 209.535 55 208.561 54.68C207.588 54.3467 206.821 53.92 206.261 53.4L207.001 51.84C207.535 52.3067 208.215 52.6933 209.041 53C209.868 53.3067 210.728 53.46 211.621 53.46C212.435 53.46 213.095 53.3667 213.601 53.18C214.108 52.9933 214.481 52.74 214.721 52.42C214.961 52.0867 215.081 51.7133 215.081 51.3C215.081 50.82 214.921 50.4333 214.601 50.14C214.295 49.8467 213.888 49.6133 213.381 49.44C212.888 49.2533 212.341 49.0933 211.741 48.96C211.141 48.8267 210.535 48.6733 209.921 48.5C209.321 48.3133 208.768 48.08 208.261 47.8C207.768 47.52 207.368 47.1467 207.061 46.68C206.755 46.2 206.601 45.5867 206.601 44.84C206.601 44.12 206.788 43.46 207.161 42.86C207.548 42.2467 208.135 41.76 208.921 41.4C209.721 41.0267 210.735 40.84 211.961 40.84C212.775 40.84 213.581 40.9467 214.381 41.16C215.181 41.3733 215.875 41.68 216.461 42.08L215.801 43.68C215.201 43.28 214.568 42.9933 213.901 42.82C213.235 42.6333 212.588 42.54 211.961 42.54C211.175 42.54 210.528 42.64 210.021 42.84C209.515 43.04 209.141 43.3067 208.901 43.64C208.675 43.9733 208.561 44.3467 208.561 44.76C208.561 45.2533 208.715 45.6467 209.021 45.94C209.341 46.2333 209.748 46.4667 210.241 46.64C210.748 46.8133 211.301 46.9733 211.901 47.12C212.501 47.2533 213.101 47.4067 213.701 47.58C214.315 47.7533 214.868 47.98 215.361 48.26C215.868 48.54 216.275 48.9133 216.581 49.38C216.888 49.8467 217.041 50.4467 217.041 51.18C217.041 51.8867 216.848 52.5467 216.461 53.16C216.075 53.76 215.475 54.2467 214.661 54.62C213.861 54.98 212.848 55.16 211.621 55.16ZM224.343 44.3C225.21 44.3 225.97 44.4667 226.623 44.8C227.29 45.1333 227.81 45.64 228.183 46.32C228.557 47 228.743 47.86 228.743 48.9V55H226.823V49.12C226.823 48.0933 226.57 47.32 226.063 46.8C225.57 46.28 224.87 46.02 223.963 46.02C223.283 46.02 222.69 46.1533 222.183 46.42C221.677 46.6867 221.283 47.08 221.003 47.6C220.737 48.12 220.603 48.7667 220.603 49.54V55H218.683V40.16H220.603V47.26L220.223 46.5C220.57 45.8067 221.103 45.2667 221.823 44.88C222.543 44.4933 223.383 44.3 224.343 44.3ZM237.877 55V52.76L237.777 52.34V48.52C237.777 47.7067 237.537 47.08 237.057 46.64C236.59 46.1867 235.883 45.96 234.937 45.96C234.31 45.96 233.697 46.0667 233.097 46.28C232.497 46.48 231.99 46.7533 231.577 47.1L230.777 45.66C231.323 45.22 231.977 44.8867 232.737 44.66C233.51 44.42 234.317 44.3 235.157 44.3C236.61 44.3 237.73 44.6533 238.517 45.36C239.303 46.0667 239.697 47.1467 239.697 48.6V55H237.877ZM234.397 55.12C233.61 55.12 232.917 54.9867 232.317 54.72C231.73 54.4533 231.277 54.0867 230.957 53.62C230.637 53.14 230.477 52.6 230.477 52C230.477 51.4267 230.61 50.9067 230.877 50.44C231.157 49.9733 231.603 49.6 232.217 49.32C232.843 49.04 233.683 48.9 234.737 48.9H238.097V50.28H234.817C233.857 50.28 233.21 50.44 232.877 50.76C232.543 51.08 232.377 51.4667 232.377 51.92C232.377 52.44 232.583 52.86 232.997 53.18C233.41 53.4867 233.983 53.64 234.717 53.64C235.437 53.64 236.063 53.48 236.597 53.16C237.143 52.84 237.537 52.3733 237.777 51.76L238.157 53.08C237.903 53.7067 237.457 54.2067 236.817 54.58C236.177 54.94 235.37 55.12 234.397 55.12ZM247.91 44.3C248.776 44.3 249.536 44.4667 250.19 44.8C250.856 45.1333 251.376 45.64 251.75 46.32C252.123 47 252.31 47.86 252.31 48.9V55H250.39V49.12C250.39 48.0933 250.136 47.32 249.63 46.8C249.136 46.28 248.436 46.02 247.53 46.02C246.85 46.02 246.256 46.1533 245.75 46.42C245.243 46.6867 244.85 47.08 244.57 47.6C244.303 48.12 244.17 48.7667 244.17 49.54V55H242.25V40.16H244.17V47.26L243.79 46.5C244.136 45.8067 244.67 45.2667 245.39 44.88C246.11 44.4933 246.95 44.3 247.91 44.3Z" fill="black"/>
<path d="M55.136 171.632H60.896V172.992H55.136V171.632ZM55.28 176.608H61.808V178H53.68V166.8H61.584V168.192H55.28V176.608ZM63.0752 178L66.7232 173.264L66.7072 174.048L63.2352 169.52H64.9472L67.6033 173.008H66.9472L69.6033 169.52H71.2832L67.7632 174.08L67.7793 173.264L71.4593 178H69.7153L66.9152 174.288L67.5392 174.384L64.7872 178H63.0752ZM77.9514 178.096C77.2474 178.096 76.602 177.936 76.0154 177.616C75.4394 177.285 74.9754 176.8 74.6234 176.16C74.282 175.52 74.1114 174.72 74.1114 173.76C74.1114 172.8 74.2767 172 74.6074 171.36C74.9487 170.72 75.4074 170.24 75.9834 169.92C76.57 169.6 77.226 169.44 77.9514 169.44C78.7834 169.44 79.5194 169.621 80.1594 169.984C80.7994 170.347 81.306 170.853 81.6794 171.504C82.0527 172.144 82.2394 172.896 82.2394 173.76C82.2394 174.624 82.0527 175.381 81.6794 176.032C81.306 176.683 80.7994 177.189 80.1594 177.552C79.5194 177.915 78.7834 178.096 77.9514 178.096ZM73.4554 181.104V169.52H74.9274V171.808L74.8314 173.776L74.9914 175.744V181.104H73.4554ZM77.8234 176.752C78.3674 176.752 78.8527 176.629 79.2794 176.384C79.7167 176.139 80.058 175.792 80.3034 175.344C80.5594 174.885 80.6874 174.357 80.6874 173.76C80.6874 173.152 80.5594 172.629 80.3034 172.192C80.058 171.744 79.7167 171.397 79.2794 171.152C78.8527 170.907 78.3674 170.784 77.8234 170.784C77.29 170.784 76.8047 170.907 76.3674 171.152C75.9407 171.397 75.5994 171.744 75.3434 172.192C75.098 172.629 74.9754 173.152 74.9754 173.76C74.9754 174.357 75.098 174.885 75.3434 175.344C75.5994 175.792 75.9407 176.139 76.3674 176.384C76.8047 176.629 77.29 176.752 77.8234 176.752ZM88.4576 178.096C87.551 178.096 86.751 177.909 86.0576 177.536C85.375 177.163 84.8416 176.651 84.4576 176C84.0843 175.349 83.8976 174.603 83.8976 173.76C83.8976 172.917 84.079 172.171 84.4416 171.52C84.815 170.869 85.3216 170.363 85.9616 170C86.6123 169.627 87.343 169.44 88.1536 169.44C88.975 169.44 89.7003 169.621 90.3296 169.984C90.959 170.347 91.4496 170.859 91.8016 171.52C92.1643 172.171 92.3456 172.933 92.3456 173.808C92.3456 173.872 92.3403 173.947 92.3296 174.032C92.3296 174.117 92.3243 174.197 92.3136 174.272H85.0976V173.168H91.5136L90.8896 173.552C90.9003 173.008 90.7883 172.523 90.5536 172.096C90.319 171.669 89.9936 171.339 89.5776 171.104C89.1723 170.859 88.6976 170.736 88.1536 170.736C87.6203 170.736 87.1456 170.859 86.7296 171.104C86.3136 171.339 85.9883 171.675 85.7536 172.112C85.519 172.539 85.4016 173.029 85.4016 173.584V173.84C85.4016 174.405 85.5296 174.912 85.7856 175.36C86.0523 175.797 86.4203 176.139 86.8896 176.384C87.359 176.629 87.8976 176.752 88.5056 176.752C89.007 176.752 89.4603 176.667 89.8656 176.496C90.2816 176.325 90.6443 176.069 90.9536 175.728L91.8016 176.72C91.4176 177.168 90.9376 177.509 90.3616 177.744C89.7963 177.979 89.1616 178.096 88.4576 178.096ZM94.7985 178V169.52H96.2705V171.824L96.1265 171.248C96.3612 170.661 96.7558 170.213 97.3105 169.904C97.8652 169.595 98.5478 169.44 99.3585 169.44V170.928C99.2945 170.917 99.2305 170.912 99.1665 170.912C99.1132 170.912 99.0598 170.912 99.0065 170.912C98.1852 170.912 97.5345 171.157 97.0545 171.648C96.5745 172.139 96.3345 172.848 96.3345 173.776V178H94.7985ZM104.827 178.096C103.974 178.096 103.313 177.867 102.843 177.408C102.374 176.949 102.139 176.293 102.139 175.44V167.664H103.675V175.376C103.675 175.835 103.787 176.187 104.011 176.432C104.246 176.677 104.577 176.8 105.003 176.8C105.483 176.8 105.883 176.667 106.203 176.4L106.683 177.504C106.449 177.707 106.166 177.856 105.835 177.952C105.515 178.048 105.179 178.096 104.827 178.096ZM100.699 170.784V169.52H106.107V170.784H100.699ZM113.477 178V169.52H115.013V178H113.477ZM114.245 167.888C113.947 167.888 113.696 167.792 113.493 167.6C113.301 167.408 113.205 167.173 113.205 166.896C113.205 166.608 113.301 166.368 113.493 166.176C113.696 165.984 113.947 165.888 114.245 165.888C114.544 165.888 114.789 165.984 114.981 166.176C115.184 166.357 115.285 166.587 115.285 166.864C115.285 167.152 115.189 167.397 114.997 167.6C114.805 167.792 114.555 167.888 114.245 167.888ZM122.794 169.44C123.487 169.44 124.095 169.573 124.618 169.84C125.151 170.107 125.567 170.512 125.866 171.056C126.165 171.6 126.314 172.288 126.314 173.12V178H124.778V173.296C124.778 172.475 124.575 171.856 124.17 171.44C123.775 171.024 123.215 170.816 122.49 170.816C121.946 170.816 121.471 170.923 121.066 171.136C120.661 171.349 120.346 171.664 120.122 172.08C119.909 172.496 119.802 173.013 119.802 173.632V178H118.266V169.52H119.738V171.808L119.498 171.2C119.775 170.645 120.202 170.213 120.778 169.904C121.354 169.595 122.026 169.44 122.794 169.44Z" fill="black"/>
<path d="M30 180.12H46V164.12H30V180.12Z" fill="black"/>
<rect x="20" y="202" width="142" height="30" rx="10" fill="#D9D9D9" fill-opacity="0.4"/>
<path d="M40.904 223V213.192H37.064V211.8H46.328V213.192H42.488V223H40.904ZM52.9775 223V221.208L52.8975 220.872V217.816C52.8975 217.165 52.7055 216.664 52.3215 216.312C51.9482 215.949 51.3828 215.768 50.6255 215.768C50.1242 215.768 49.6335 215.853 49.1535 216.024C48.6735 216.184 48.2682 216.403 47.9375 216.68L47.2975 215.528C47.7348 215.176 48.2575 214.909 48.8655 214.728C49.4842 214.536 50.1295 214.44 50.8015 214.44C51.9642 214.44 52.8602 214.723 53.4895 215.288C54.1188 215.853 54.4335 216.717 54.4335 217.88V223H52.9775ZM50.1935 223.096C49.5642 223.096 49.0095 222.989 48.5295 222.776C48.0602 222.563 47.6975 222.269 47.4415 221.896C47.1855 221.512 47.0575 221.08 47.0575 220.6C47.0575 220.141 47.1642 219.725 47.3775 219.352C47.6015 218.979 47.9588 218.68 48.4495 218.456C48.9508 218.232 49.6228 218.12 50.4655 218.12H53.1535V219.224H50.5295C49.7615 219.224 49.2442 219.352 48.9775 219.608C48.7108 219.864 48.5775 220.173 48.5775 220.536C48.5775 220.952 48.7428 221.288 49.0735 221.544C49.4042 221.789 49.8628 221.912 50.4495 221.912C51.0255 221.912 51.5268 221.784 51.9535 221.528C52.3908 221.272 52.7055 220.899 52.8975 220.408L53.2015 221.464C52.9988 221.965 52.6415 222.365 52.1295 222.664C51.6175 222.952 50.9722 223.096 50.1935 223.096ZM57.596 223V214.52H59.132V223H57.596ZM58.364 212.888C58.0653 212.888 57.8147 212.792 57.612 212.6C57.42 212.408 57.324 212.173 57.324 211.896C57.324 211.608 57.42 211.368 57.612 211.176C57.8147 210.984 58.0653 210.888 58.364 210.888C58.6627 210.888 58.908 210.984 59.1 211.176C59.3027 211.357 59.404 211.587 59.404 211.864C59.404 212.152 59.308 212.397 59.116 212.6C58.924 212.792 58.6733 212.888 58.364 212.888ZM62.3847 223V211.128H63.9207V223H62.3847ZM68.9655 223L65.8135 214.52H67.2695L70.0695 222.2H69.3815L72.2935 214.52H73.5895L76.4375 222.2H75.7655L78.6295 214.52H80.0055L76.8375 223H75.3655L72.6935 215.992H73.1415L70.4375 223H68.9655ZM81.8841 223V214.52H83.4201V223H81.8841ZM82.6521 212.888C82.3535 212.888 82.1028 212.792 81.9001 212.6C81.7081 212.408 81.6121 212.173 81.6121 211.896C81.6121 211.608 81.7081 211.368 81.9001 211.176C82.1028 210.984 82.3535 210.888 82.6521 210.888C82.9508 210.888 83.1961 210.984 83.3881 211.176C83.5908 211.357 83.6921 211.587 83.6921 211.864C83.6921 212.152 83.5961 212.397 83.4041 212.6C83.2121 212.792 82.9615 212.888 82.6521 212.888ZM91.2009 214.44C91.8942 214.44 92.5022 214.573 93.0249 214.84C93.5582 215.107 93.9742 215.512 94.2729 216.056C94.5715 216.6 94.7209 217.288 94.7209 218.12V223H93.1849V218.296C93.1849 217.475 92.9822 216.856 92.5769 216.44C92.1822 216.024 91.6222 215.816 90.8969 215.816C90.3529 215.816 89.8782 215.923 89.4729 216.136C89.0675 216.349 88.7529 216.664 88.5289 217.08C88.3155 217.496 88.2089 218.013 88.2089 218.632V223H86.6729V214.52H88.1449V216.808L87.9049 216.2C88.1822 215.645 88.6089 215.213 89.1849 214.904C89.7609 214.595 90.4329 214.44 91.2009 214.44ZM101.388 223.096C100.566 223.096 99.8302 222.915 99.1795 222.552C98.5395 222.189 98.0328 221.683 97.6595 221.032C97.2862 220.381 97.0995 219.624 97.0995 218.76C97.0995 217.896 97.2862 217.144 97.6595 216.504C98.0328 215.853 98.5395 215.347 99.1795 214.984C99.8302 214.621 100.566 214.44 101.388 214.44C102.102 214.44 102.748 214.6 103.324 214.92C103.9 215.24 104.358 215.72 104.7 216.36C105.052 217 105.228 217.8 105.228 218.76C105.228 219.72 105.057 220.52 104.716 221.16C104.385 221.8 103.932 222.285 103.356 222.616C102.78 222.936 102.124 223.096 101.388 223.096ZM101.516 221.752C102.049 221.752 102.529 221.629 102.956 221.384C103.393 221.139 103.734 220.792 103.98 220.344C104.236 219.885 104.364 219.357 104.364 218.76C104.364 218.152 104.236 217.629 103.98 217.192C103.734 216.744 103.393 216.397 102.956 216.152C102.529 215.907 102.049 215.784 101.516 215.784C100.972 215.784 100.486 215.907 100.06 216.152C99.6328 216.397 99.2915 216.744 99.0355 217.192C98.7795 217.629 98.6515 218.152 98.6515 218.76C98.6515 219.357 98.7795 219.885 99.0355 220.344C99.2915 220.792 99.6328 221.139 100.06 221.384C100.486 221.629 100.972 221.752 101.516 221.752ZM104.412 223V220.712L104.508 218.744L104.348 216.776V211.128H105.884V223H104.412ZM118.959 223.128C118.105 223.128 117.316 222.989 116.591 222.712C115.876 222.424 115.252 222.024 114.719 221.512C114.196 220.989 113.785 220.381 113.487 219.688C113.188 218.995 113.039 218.232 113.039 217.4C113.039 216.568 113.188 215.805 113.487 215.112C113.785 214.419 114.201 213.816 114.735 213.304C115.268 212.781 115.892 212.381 116.607 212.104C117.332 211.816 118.121 211.672 118.975 211.672C119.839 211.672 120.633 211.821 121.359 212.12C122.095 212.408 122.719 212.84 123.231 213.416L122.191 214.424C121.764 213.976 121.284 213.645 120.751 213.432C120.217 213.208 119.647 213.096 119.039 213.096C118.409 213.096 117.823 213.203 117.279 213.416C116.745 213.629 116.281 213.928 115.887 214.312C115.492 214.696 115.183 215.155 114.959 215.688C114.745 216.211 114.639 216.781 114.639 217.4C114.639 218.019 114.745 218.595 114.959 219.128C115.183 219.651 115.492 220.104 115.887 220.488C116.281 220.872 116.745 221.171 117.279 221.384C117.823 221.597 118.409 221.704 119.039 221.704C119.647 221.704 120.217 221.597 120.751 221.384C121.284 221.16 121.764 220.819 122.191 220.36L123.231 221.368C122.719 221.944 122.095 222.381 121.359 222.68C120.633 222.979 119.833 223.128 118.959 223.128ZM129.081 223.128C128.228 223.128 127.412 223 126.633 222.744C125.855 222.477 125.241 222.136 124.793 221.72L125.385 220.472C125.812 220.845 126.356 221.155 127.017 221.4C127.679 221.645 128.367 221.768 129.081 221.768C129.732 221.768 130.26 221.693 130.665 221.544C131.071 221.395 131.369 221.192 131.561 220.936C131.753 220.669 131.849 220.371 131.849 220.04C131.849 219.656 131.721 219.347 131.465 219.112C131.22 218.877 130.895 218.691 130.489 218.552C130.095 218.403 129.657 218.275 129.177 218.168C128.697 218.061 128.212 217.939 127.721 217.8C127.241 217.651 126.799 217.464 126.393 217.24C125.999 217.016 125.679 216.717 125.433 216.344C125.188 215.96 125.065 215.469 125.065 214.872C125.065 214.296 125.215 213.768 125.513 213.288C125.823 212.797 126.292 212.408 126.921 212.12C127.561 211.821 128.372 211.672 129.353 211.672C130.004 211.672 130.649 211.757 131.289 211.928C131.929 212.099 132.484 212.344 132.953 212.664L132.425 213.944C131.945 213.624 131.439 213.395 130.905 213.256C130.372 213.107 129.855 213.032 129.353 213.032C128.724 213.032 128.207 213.112 127.801 213.272C127.396 213.432 127.097 213.645 126.905 213.912C126.724 214.179 126.633 214.477 126.633 214.808C126.633 215.203 126.756 215.517 127.001 215.752C127.257 215.987 127.583 216.173 127.977 216.312C128.383 216.451 128.825 216.579 129.305 216.696C129.785 216.803 130.265 216.925 130.745 217.064C131.236 217.203 131.679 217.384 132.073 217.608C132.479 217.832 132.804 218.131 133.049 218.504C133.295 218.877 133.417 219.357 133.417 219.944C133.417 220.509 133.263 221.037 132.953 221.528C132.644 222.008 132.164 222.397 131.513 222.696C130.873 222.984 130.063 223.128 129.081 223.128ZM139.339 223.128C138.486 223.128 137.67 223 136.891 222.744C136.112 222.477 135.499 222.136 135.051 221.72L135.643 220.472C136.07 220.845 136.614 221.155 137.275 221.4C137.936 221.645 138.624 221.768 139.339 221.768C139.99 221.768 140.518 221.693 140.923 221.544C141.328 221.395 141.627 221.192 141.819 220.936C142.011 220.669 142.107 220.371 142.107 220.04C142.107 219.656 141.979 219.347 141.723 219.112C141.478 218.877 141.152 218.691 140.747 218.552C140.352 218.403 139.915 218.275 139.435 218.168C138.955 218.061 138.47 217.939 137.979 217.8C137.499 217.651 137.056 217.464 136.651 217.24C136.256 217.016 135.936 216.717 135.691 216.344C135.446 215.96 135.323 215.469 135.323 214.872C135.323 214.296 135.472 213.768 135.771 213.288C136.08 212.797 136.55 212.408 137.179 212.12C137.819 211.821 138.63 211.672 139.611 211.672C140.262 211.672 140.907 211.757 141.547 211.928C142.187 212.099 142.742 212.344 143.211 212.664L142.683 213.944C142.203 213.624 141.696 213.395 141.163 213.256C140.63 213.107 140.112 213.032 139.611 213.032C138.982 213.032 138.464 213.112 138.059 213.272C137.654 213.432 137.355 213.645 137.163 213.912C136.982 214.179 136.891 214.477 136.891 214.808C136.891 215.203 137.014 215.517 137.259 215.752C137.515 215.987 137.84 216.173 138.235 216.312C138.64 216.451 139.083 216.579 139.563 216.696C140.043 216.803 140.523 216.925 141.003 217.064C141.494 217.203 141.936 217.384 142.331 217.608C142.736 217.832 143.062 218.131 143.307 218.504C143.552 218.877 143.675 219.357 143.675 219.944C143.675 220.509 143.52 221.037 143.211 221.528C142.902 222.008 142.422 222.397 141.771 222.696C141.131 222.984 140.32 223.128 139.339 223.128Z" fill="black" fill-opacity="0.5"/>
<rect x="153" y="242" width="116" height="30" rx="10" fill="#D9D9D9" fill-opacity="0.4"/>
<path d="M173.136 256.632H178.896V257.992H173.136V256.632ZM173.28 261.608H179.808V263H171.68V251.8H179.584V253.192H173.28V261.608ZM181.075 263L184.723 258.264L184.707 259.048L181.235 254.52H182.947L185.603 258.008H184.947L187.603 254.52H189.283L185.763 259.08L185.779 258.264L189.459 263H187.715L184.915 259.288L185.539 259.384L182.787 263H181.075ZM195.951 263.096C195.247 263.096 194.602 262.936 194.015 262.616C193.439 262.285 192.975 261.8 192.623 261.16C192.282 260.52 192.111 259.72 192.111 258.76C192.111 257.8 192.277 257 192.607 256.36C192.949 255.72 193.407 255.24 193.983 254.92C194.57 254.6 195.226 254.44 195.951 254.44C196.783 254.44 197.519 254.621 198.159 254.984C198.799 255.347 199.306 255.853 199.679 256.504C200.053 257.144 200.239 257.896 200.239 258.76C200.239 259.624 200.053 260.381 199.679 261.032C199.306 261.683 198.799 262.189 198.159 262.552C197.519 262.915 196.783 263.096 195.951 263.096ZM191.455 266.104V254.52H192.927V256.808L192.831 258.776L192.991 260.744V266.104H191.455ZM195.823 261.752C196.367 261.752 196.853 261.629 197.279 261.384C197.717 261.139 198.058 260.792 198.303 260.344C198.559 259.885 198.687 259.357 198.687 258.76C198.687 258.152 198.559 257.629 198.303 257.192C198.058 256.744 197.717 256.397 197.279 256.152C196.853 255.907 196.367 255.784 195.823 255.784C195.29 255.784 194.805 255.907 194.367 256.152C193.941 256.397 193.599 256.744 193.343 257.192C193.098 257.629 192.975 258.152 192.975 258.76C192.975 259.357 193.098 259.885 193.343 260.344C193.599 260.792 193.941 261.139 194.367 261.384C194.805 261.629 195.29 261.752 195.823 261.752ZM202.682 263V254.52H204.154V256.824L204.01 256.248C204.244 255.661 204.639 255.213 205.194 254.904C205.748 254.595 206.431 254.44 207.242 254.44V255.928C207.178 255.917 207.114 255.912 207.05 255.912C206.996 255.912 206.943 255.912 206.89 255.912C206.068 255.912 205.418 256.157 204.938 256.648C204.458 257.139 204.218 257.848 204.218 258.776V263H202.682ZM213.153 263.096C212.246 263.096 211.446 262.909 210.753 262.536C210.07 262.163 209.537 261.651 209.153 261C208.779 260.349 208.593 259.603 208.593 258.76C208.593 257.917 208.774 257.171 209.137 256.52C209.51 255.869 210.017 255.363 210.657 255C211.307 254.627 212.038 254.44 212.849 254.44C213.67 254.44 214.395 254.621 215.025 254.984C215.654 255.347 216.145 255.859 216.497 256.52C216.859 257.171 217.041 257.933 217.041 258.808C217.041 258.872 217.035 258.947 217.025 259.032C217.025 259.117 217.019 259.197 217.009 259.272H209.793V258.168H216.209L215.585 258.552C215.595 258.008 215.483 257.523 215.249 257.096C215.014 256.669 214.689 256.339 214.273 256.104C213.867 255.859 213.393 255.736 212.849 255.736C212.315 255.736 211.841 255.859 211.425 256.104C211.009 256.339 210.683 256.675 210.449 257.112C210.214 257.539 210.097 258.029 210.097 258.584V258.84C210.097 259.405 210.225 259.912 210.481 260.36C210.747 260.797 211.115 261.139 211.585 261.384C212.054 261.629 212.593 261.752 213.201 261.752C213.702 261.752 214.155 261.667 214.561 261.496C214.977 261.325 215.339 261.069 215.649 260.728L216.497 261.72C216.113 262.168 215.633 262.509 215.057 262.744C214.491 262.979 213.857 263.096 213.153 263.096ZM221.925 263.096C221.221 263.096 220.549 263 219.909 262.808C219.28 262.616 218.784 262.381 218.421 262.104L219.061 260.888C219.424 261.133 219.872 261.341 220.405 261.512C220.939 261.683 221.483 261.768 222.037 261.768C222.752 261.768 223.264 261.667 223.573 261.464C223.893 261.261 224.053 260.979 224.053 260.616C224.053 260.349 223.957 260.141 223.765 259.992C223.573 259.843 223.317 259.731 222.997 259.656C222.688 259.581 222.341 259.517 221.957 259.464C221.573 259.4 221.189 259.325 220.805 259.24C220.421 259.144 220.069 259.016 219.749 258.856C219.429 258.685 219.173 258.456 218.981 258.168C218.789 257.869 218.693 257.475 218.693 256.984C218.693 256.472 218.837 256.024 219.125 255.64C219.413 255.256 219.819 254.963 220.341 254.76C220.875 254.547 221.504 254.44 222.229 254.44C222.784 254.44 223.344 254.509 223.909 254.648C224.485 254.776 224.955 254.963 225.317 255.208L224.661 256.424C224.277 256.168 223.877 255.992 223.461 255.896C223.045 255.8 222.629 255.752 222.213 255.752C221.541 255.752 221.04 255.864 220.709 256.088C220.379 256.301 220.213 256.579 220.213 256.92C220.213 257.208 220.309 257.432 220.501 257.592C220.704 257.741 220.96 257.859 221.269 257.944C221.589 258.029 221.941 258.104 222.325 258.168C222.709 258.221 223.093 258.296 223.477 258.392C223.861 258.477 224.208 258.6 224.517 258.76C224.837 258.92 225.093 259.144 225.285 259.432C225.488 259.72 225.589 260.104 225.589 260.584C225.589 261.096 225.44 261.539 225.141 261.912C224.843 262.285 224.421 262.579 223.877 262.792C223.333 262.995 222.683 263.096 221.925 263.096ZM230.261 263.096C229.557 263.096 228.885 263 228.245 262.808C227.616 262.616 227.12 262.381 226.757 262.104L227.397 260.888C227.76 261.133 228.208 261.341 228.741 261.512C229.274 261.683 229.818 261.768 230.373 261.768C231.088 261.768 231.6 261.667 231.909 261.464C232.229 261.261 232.389 260.979 232.389 260.616C232.389 260.349 232.293 260.141 232.101 259.992C231.909 259.843 231.653 259.731 231.333 259.656C231.024 259.581 230.677 259.517 230.293 259.464C229.909 259.4 229.525 259.325 229.141 259.24C228.757 259.144 228.405 259.016 228.085 258.856C227.765 258.685 227.509 258.456 227.317 258.168C227.125 257.869 227.029 257.475 227.029 256.984C227.029 256.472 227.173 256.024 227.461 255.64C227.749 255.256 228.154 254.963 228.677 254.76C229.21 254.547 229.84 254.44 230.565 254.44C231.12 254.44 231.68 254.509 232.245 254.648C232.821 254.776 233.29 254.963 233.653 255.208L232.997 256.424C232.613 256.168 232.213 255.992 231.797 255.896C231.381 255.8 230.965 255.752 230.549 255.752C229.877 255.752 229.376 255.864 229.045 256.088C228.714 256.301 228.549 256.579 228.549 256.92C228.549 257.208 228.645 257.432 228.837 257.592C229.04 257.741 229.296 257.859 229.605 257.944C229.925 258.029 230.277 258.104 230.661 258.168C231.045 258.221 231.429 258.296 231.813 258.392C232.197 258.477 232.544 258.6 232.853 258.76C233.173 258.92 233.429 259.144 233.621 259.432C233.824 259.72 233.925 260.104 233.925 260.584C233.925 261.096 233.776 261.539 233.477 261.912C233.178 262.285 232.757 262.579 232.213 262.792C231.669 262.995 231.018 263.096 230.261 263.096ZM236.533 263.096C236.234 263.096 235.978 262.995 235.765 262.792C235.551 262.579 235.445 262.312 235.445 261.992C235.445 261.672 235.551 261.411 235.765 261.208C235.978 261.005 236.234 260.904 236.533 260.904C236.821 260.904 237.066 261.005 237.269 261.208C237.482 261.411 237.589 261.672 237.589 261.992C237.589 262.312 237.482 262.579 237.269 262.792C237.066 262.995 236.821 263.096 236.533 263.096ZM239.178 266.2C238.826 266.2 238.49 266.157 238.17 266.072C237.839 265.987 237.562 265.859 237.338 265.688L237.834 264.504C238.154 264.771 238.57 264.904 239.082 264.904C239.487 264.904 239.797 264.776 240.01 264.52C240.234 264.275 240.346 263.907 240.346 263.416V254.52H241.882V263.384C241.882 264.248 241.647 264.931 241.178 265.432C240.719 265.944 240.053 266.2 239.178 266.2ZM241.114 252.888C240.815 252.888 240.565 252.792 240.362 252.6C240.17 252.408 240.074 252.173 240.074 251.896C240.074 251.608 240.17 251.368 240.362 251.176C240.565 250.984 240.815 250.888 241.114 250.888C241.413 250.888 241.658 250.984 241.85 251.176C242.053 251.357 242.154 251.587 242.154 251.864C242.154 252.152 242.058 252.397 241.866 252.6C241.674 252.792 241.423 252.888 241.114 252.888ZM247.565 263.096C246.861 263.096 246.189 263 245.549 262.808C244.92 262.616 244.424 262.381 244.061 262.104L244.701 260.888C245.064 261.133 245.512 261.341 246.045 261.512C246.578 261.683 247.122 261.768 247.677 261.768C248.392 261.768 248.904 261.667 249.213 261.464C249.533 261.261 249.693 260.979 249.693 260.616C249.693 260.349 249.597 260.141 249.405 259.992C249.213 259.843 248.957 259.731 248.637 259.656C248.328 259.581 247.981 259.517 247.597 259.464C247.213 259.4 246.829 259.325 246.445 259.24C246.061 259.144 245.709 259.016 245.389 258.856C245.069 258.685 244.813 258.456 244.621 258.168C244.429 257.869 244.333 257.475 244.333 256.984C244.333 256.472 244.477 256.024 244.765 255.64C245.053 255.256 245.458 254.963 245.981 254.76C246.514 254.547 247.144 254.44 247.869 254.44C248.424 254.44 248.984 254.509 249.549 254.648C250.125 254.776 250.594 254.963 250.957 255.208L250.301 256.424C249.917 256.168 249.517 255.992 249.101 255.896C248.685 255.8 248.269 255.752 247.853 255.752C247.181 255.752 246.68 255.864 246.349 256.088C246.018 256.301 245.853 256.579 245.853 256.92C245.853 257.208 245.949 257.432 246.141 257.592C246.344 257.741 246.6 257.859 246.909 257.944C247.229 258.029 247.581 258.104 247.965 258.168C248.349 258.221 248.733 258.296 249.117 258.392C249.501 258.477 249.848 258.6 250.157 258.76C250.477 258.92 250.733 259.144 250.925 259.432C251.128 259.72 251.229 260.104 251.229 260.584C251.229 261.096 251.08 261.539 250.781 261.912C250.482 262.285 250.061 262.579 249.517 262.792C248.973 262.995 248.322 263.096 247.565 263.096Z" fill="black" fill-opacity="0.5"/>
<rect x="20" y="242" width="123" height="30" rx="10" fill="#D9D9D9" fill-opacity="0.4"/>
<path d="M40.904 263V253.192H37.064V251.8H46.328V253.192H42.488V263H40.904ZM48.0034 266.2C47.598 266.2 47.2034 266.131 46.8194 265.992C46.4354 265.864 46.1047 265.672 45.8274 265.416L46.4834 264.264C46.6967 264.467 46.9314 264.621 47.1874 264.728C47.4434 264.835 47.7154 264.888 48.0034 264.888C48.3767 264.888 48.686 264.792 48.9314 264.6C49.1767 264.408 49.406 264.067 49.6194 263.576L50.1474 262.408L50.3074 262.216L53.6354 254.52H55.1394L51.0274 263.848C50.782 264.445 50.5047 264.915 50.1954 265.256C49.8967 265.597 49.566 265.837 49.2034 265.976C48.8407 266.125 48.4407 266.2 48.0034 266.2ZM50.0194 263.272L46.1474 254.52H47.7474L51.0434 262.072L50.0194 263.272ZM61.3889 263.096C60.6849 263.096 60.0395 262.936 59.4529 262.616C58.8769 262.285 58.4129 261.8 58.0609 261.16C57.7195 260.52 57.5489 259.72 57.5489 258.76C57.5489 257.8 57.7142 257 58.0449 256.36C58.3862 255.72 58.8449 255.24 59.4209 254.92C60.0075 254.6 60.6635 254.44 61.3889 254.44C62.2209 254.44 62.9569 254.621 63.5969 254.984C64.2369 255.347 64.7435 255.853 65.1169 256.504C65.4902 257.144 65.6769 257.896 65.6769 258.76C65.6769 259.624 65.4902 260.381 65.1169 261.032C64.7435 261.683 64.2369 262.189 63.5969 262.552C62.9569 262.915 62.2209 263.096 61.3889 263.096ZM56.8929 266.104V254.52H58.3649V256.808L58.2689 258.776L58.4289 260.744V266.104H56.8929ZM61.2609 261.752C61.8049 261.752 62.2902 261.629 62.7169 261.384C63.1542 261.139 63.4955 260.792 63.7409 260.344C63.9969 259.885 64.1249 259.357 64.1249 258.76C64.1249 258.152 63.9969 257.629 63.7409 257.192C63.4955 256.744 63.1542 256.397 62.7169 256.152C62.2902 255.907 61.8049 255.784 61.2609 255.784C60.7275 255.784 60.2422 255.907 59.8049 256.152C59.3782 256.397 59.0369 256.744 58.7809 257.192C58.5355 257.629 58.4129 258.152 58.4129 258.76C58.4129 259.357 58.5355 259.885 58.7809 260.344C59.0369 260.792 59.3782 261.139 59.8049 261.384C60.2422 261.629 60.7275 261.752 61.2609 261.752ZM71.8951 263.096C70.9885 263.096 70.1885 262.909 69.4951 262.536C68.8125 262.163 68.2791 261.651 67.8951 261C67.5218 260.349 67.3351 259.603 67.3351 258.76C67.3351 257.917 67.5165 257.171 67.8791 256.52C68.2525 255.869 68.7591 255.363 69.3991 255C70.0498 254.627 70.7805 254.44 71.5911 254.44C72.4125 254.44 73.1378 254.621 73.7671 254.984C74.3965 255.347 74.8871 255.859 75.2391 256.52C75.6018 257.171 75.7831 257.933 75.7831 258.808C75.7831 258.872 75.7778 258.947 75.7671 259.032C75.7671 259.117 75.7618 259.197 75.7511 259.272H68.5351V258.168H74.9511L74.3271 258.552C74.3378 258.008 74.2258 257.523 73.9911 257.096C73.7565 256.669 73.4311 256.339 73.0151 256.104C72.6098 255.859 72.1351 255.736 71.5911 255.736C71.0578 255.736 70.5831 255.859 70.1671 256.104C69.7511 256.339 69.4258 256.675 69.1911 257.112C68.9565 257.539 68.8391 258.029 68.8391 258.584V258.84C68.8391 259.405 68.9671 259.912 69.2231 260.36C69.4898 260.797 69.8578 261.139 70.3271 261.384C70.7965 261.629 71.3351 261.752 71.9431 261.752C72.4445 261.752 72.8978 261.667 73.3031 261.496C73.7191 261.325 74.0818 261.069 74.3911 260.728L75.2391 261.72C74.8551 262.168 74.3751 262.509 73.7991 262.744C73.2338 262.979 72.5991 263.096 71.8951 263.096ZM81.724 263.128C80.8707 263.128 80.0547 263 79.276 262.744C78.4973 262.477 77.884 262.136 77.436 261.72L78.028 260.472C78.4547 260.845 78.9987 261.155 79.66 261.4C80.3213 261.645 81.0093 261.768 81.724 261.768C82.3747 261.768 82.9027 261.693 83.308 261.544C83.7133 261.395 84.012 261.192 84.204 260.936C84.396 260.669 84.492 260.371 84.492 260.04C84.492 259.656 84.364 259.347 84.108 259.112C83.8627 258.877 83.5373 258.691 83.132 258.552C82.7373 258.403 82.3 258.275 81.82 258.168C81.34 258.061 80.8547 257.939 80.364 257.8C79.884 257.651 79.4413 257.464 79.036 257.24C78.6413 257.016 78.3213 256.717 78.076 256.344C77.8307 255.96 77.708 255.469 77.708 254.872C77.708 254.296 77.8573 253.768 78.156 253.288C78.4653 252.797 78.9347 252.408 79.564 252.12C80.204 251.821 81.0147 251.672 81.996 251.672C82.6467 251.672 83.292 251.757 83.932 251.928C84.572 252.099 85.1267 252.344 85.596 252.664L85.068 253.944C84.588 253.624 84.0813 253.395 83.548 253.256C83.0147 253.107 82.4973 253.032 81.996 253.032C81.3667 253.032 80.8493 253.112 80.444 253.272C80.0387 253.432 79.74 253.645 79.548 253.912C79.3667 254.179 79.276 254.477 79.276 254.808C79.276 255.203 79.3987 255.517 79.644 255.752C79.9 255.987 80.2253 256.173 80.62 256.312C81.0253 256.451 81.468 256.579 81.948 256.696C82.428 256.803 82.908 256.925 83.388 257.064C83.8787 257.203 84.3213 257.384 84.716 257.608C85.1213 257.832 85.4467 258.131 85.692 258.504C85.9373 258.877 86.06 259.357 86.06 259.944C86.06 260.509 85.9053 261.037 85.596 261.528C85.2867 262.008 84.8067 262.397 84.156 262.696C83.516 262.984 82.7053 263.128 81.724 263.128ZM92.1895 263.096C91.3255 263.096 90.5522 262.909 89.8695 262.536C89.1975 262.163 88.6695 261.651 88.2855 261C87.9015 260.349 87.7095 259.603 87.7095 258.76C87.7095 257.917 87.9015 257.171 88.2855 256.52C88.6695 255.869 89.1975 255.363 89.8695 255C90.5522 254.627 91.3255 254.44 92.1895 254.44C92.9575 254.44 93.6402 254.595 94.2375 254.904C94.8455 255.203 95.3148 255.651 95.6455 256.248L94.4775 257C94.2002 256.584 93.8588 256.28 93.4535 256.088C93.0588 255.885 92.6322 255.784 92.1735 255.784C91.6188 255.784 91.1228 255.907 90.6855 256.152C90.2482 256.397 89.9015 256.744 89.6455 257.192C89.3895 257.629 89.2615 258.152 89.2615 258.76C89.2615 259.368 89.3895 259.896 89.6455 260.344C89.9015 260.792 90.2482 261.139 90.6855 261.384C91.1228 261.629 91.6188 261.752 92.1735 261.752C92.6322 261.752 93.0588 261.656 93.4535 261.464C93.8588 261.261 94.2002 260.952 94.4775 260.536L95.6455 261.272C95.3148 261.859 94.8455 262.312 94.2375 262.632C93.6402 262.941 92.9575 263.096 92.1895 263.096ZM97.9541 263V254.52H99.4261V256.824L99.2821 256.248C99.5168 255.661 99.9115 255.213 100.466 254.904C101.021 254.595 101.703 254.44 102.514 254.44V255.928C102.45 255.917 102.386 255.912 102.322 255.912C102.269 255.912 102.215 255.912 102.162 255.912C101.341 255.912 100.69 256.157 100.21 256.648C99.7301 257.139 99.4901 257.848 99.4901 258.776V263H97.9541ZM104.727 263V254.52H106.263V263H104.727ZM105.495 252.888C105.197 252.888 104.946 252.792 104.743 252.6C104.551 252.408 104.455 252.173 104.455 251.896C104.455 251.608 104.551 251.368 104.743 251.176C104.946 250.984 105.197 250.888 105.495 250.888C105.794 250.888 106.039 250.984 106.231 251.176C106.434 251.357 106.535 251.587 106.535 251.864C106.535 252.152 106.439 252.397 106.247 252.6C106.055 252.792 105.805 252.888 105.495 252.888ZM114.012 263.096C113.308 263.096 112.663 262.936 112.076 262.616C111.5 262.285 111.036 261.8 110.684 261.16C110.343 260.52 110.172 259.72 110.172 258.76C110.172 257.8 110.337 257 110.668 256.36C111.009 255.72 111.468 255.24 112.044 254.92C112.631 254.6 113.287 254.44 114.012 254.44C114.844 254.44 115.58 254.621 116.22 254.984C116.86 255.347 117.367 255.853 117.74 256.504C118.113 257.144 118.3 257.896 118.3 258.76C118.3 259.624 118.113 260.381 117.74 261.032C117.367 261.683 116.86 262.189 116.22 262.552C115.58 262.915 114.844 263.096 114.012 263.096ZM109.516 266.104V254.52H110.988V256.808L110.892 258.776L111.052 260.744V266.104H109.516ZM113.884 261.752C114.428 261.752 114.913 261.629 115.34 261.384C115.777 261.139 116.119 260.792 116.364 260.344C116.62 259.885 116.748 259.357 116.748 258.76C116.748 258.152 116.62 257.629 116.364 257.192C116.119 256.744 115.777 256.397 115.34 256.152C114.913 255.907 114.428 255.784 113.884 255.784C113.351 255.784 112.865 255.907 112.428 256.152C112.001 256.397 111.66 256.744 111.404 257.192C111.159 257.629 111.036 258.152 111.036 258.76C111.036 259.357 111.159 259.885 111.404 260.344C111.66 260.792 112.001 261.139 112.428 261.384C112.865 261.629 113.351 261.752 113.884 261.752ZM123.654 263.096C122.801 263.096 122.14 262.867 121.67 262.408C121.201 261.949 120.966 261.293 120.966 260.44V252.664H122.502V260.376C122.502 260.835 122.614 261.187 122.838 261.432C123.073 261.677 123.404 261.8 123.83 261.8C124.31 261.8 124.71 261.667 125.03 261.4L125.51 262.504C125.276 262.707 124.993 262.856 124.662 262.952C124.342 263.048 124.006 263.096 123.654 263.096ZM119.526 255.784V254.52H124.934V255.784H119.526Z" fill="black" fill-opacity="0.5"/>
<rect x="172" y="202" width="74" height="30" rx="10" fill="#D9D9D9" fill-opacity="0.4"/>
<path d="M188.984 223L194.056 211.8H195.64L200.728 223H199.048L194.52 212.696H195.16L190.632 223H188.984ZM191.144 220.2L191.576 218.92H197.88L198.344 220.2H191.144ZM204.701 223L200.957 211.8H202.605L206.045 222.136H205.213L208.781 211.8H210.253L213.741 222.136H212.941L216.429 211.8H217.949L214.205 223H212.525L209.261 213.416H209.693L206.413 223H204.701ZM223.49 223.128C222.637 223.128 221.821 223 221.042 222.744C220.264 222.477 219.65 222.136 219.202 221.72L219.794 220.472C220.221 220.845 220.765 221.155 221.426 221.4C222.088 221.645 222.776 221.768 223.49 221.768C224.141 221.768 224.669 221.693 225.074 221.544C225.48 221.395 225.778 221.192 225.97 220.936C226.162 220.669 226.258 220.371 226.258 220.04C226.258 219.656 226.13 219.347 225.874 219.112C225.629 218.877 225.304 218.691 224.898 218.552C224.504 218.403 224.066 218.275 223.586 218.168C223.106 218.061 222.621 217.939 222.13 217.8C221.65 217.651 221.208 217.464 220.802 217.24C220.408 217.016 220.088 216.717 219.842 216.344C219.597 215.96 219.474 215.469 219.474 214.872C219.474 214.296 219.624 213.768 219.922 213.288C220.232 212.797 220.701 212.408 221.33 212.12C221.97 211.821 222.781 211.672 223.762 211.672C224.413 211.672 225.058 211.757 225.698 211.928C226.338 212.099 226.893 212.344 227.362 212.664L226.834 213.944C226.354 213.624 225.848 213.395 225.314 213.256C224.781 213.107 224.264 213.032 223.762 213.032C223.133 213.032 222.616 213.112 222.21 213.272C221.805 213.432 221.506 213.645 221.314 213.912C221.133 214.179 221.042 214.477 221.042 214.808C221.042 215.203 221.165 215.517 221.41 215.752C221.666 215.987 221.992 216.173 222.386 216.312C222.792 216.451 223.234 216.579 223.714 216.696C224.194 216.803 224.674 216.925 225.154 217.064C225.645 217.203 226.088 217.384 226.482 217.608C226.888 217.832 227.213 218.131 227.458 218.504C227.704 218.877 227.826 219.357 227.826 219.944C227.826 220.509 227.672 221.037 227.362 221.528C227.053 222.008 226.573 222.397 225.922 222.696C225.282 222.984 224.472 223.128 223.49 223.128Z" fill="black" fill-opacity="0.5"/>
<g filter="url(#filter0_d_429_1577)">
<rect x="20" y="398" width="320" height="47" rx="10" fill="#A3DA86" fill-opacity="0.2" shape-rendering="crispEdges"/>
</g>
<path d="M98.9 429.16C97.06 429.16 95.6133 428.633 94.56 427.58C93.5067 426.527 92.98 424.987 92.98 422.96V415H94.98V422.88C94.98 424.44 95.32 425.58 96 426.3C96.6933 427.02 97.6667 427.38 98.92 427.38C100.187 427.38 101.16 427.02 101.84 426.3C102.533 425.58 102.88 424.44 102.88 422.88V415H104.82V422.96C104.82 424.987 104.293 426.527 103.24 427.58C102.2 428.633 100.753 429.16 98.9 429.16ZM114.66 429.12C113.78 429.12 112.974 428.92 112.24 428.52C111.52 428.107 110.94 427.5 110.5 426.7C110.074 425.9 109.86 424.9 109.86 423.7C109.86 422.5 110.067 421.5 110.48 420.7C110.907 419.9 111.48 419.3 112.2 418.9C112.934 418.5 113.754 418.3 114.66 418.3C115.7 418.3 116.62 418.527 117.42 418.98C118.22 419.433 118.854 420.067 119.32 420.88C119.787 421.68 120.02 422.62 120.02 423.7C120.02 424.78 119.787 425.727 119.32 426.54C118.854 427.353 118.22 427.987 117.42 428.44C116.62 428.893 115.7 429.12 114.66 429.12ZM109.04 432.88V418.4H110.88V421.26L110.76 423.72L110.96 426.18V432.88H109.04ZM114.5 427.44C115.18 427.44 115.787 427.287 116.32 426.98C116.867 426.673 117.294 426.24 117.6 425.68C117.92 425.107 118.08 424.447 118.08 423.7C118.08 422.94 117.92 422.287 117.6 421.74C117.294 421.18 116.867 420.747 116.32 420.44C115.787 420.133 115.18 419.98 114.5 419.98C113.834 419.98 113.227 420.133 112.68 420.44C112.147 420.747 111.72 421.18 111.4 421.74C111.094 422.287 110.94 422.94 110.94 423.7C110.94 424.447 111.094 425.107 111.4 425.68C111.72 426.24 112.147 426.673 112.68 426.98C113.227 427.287 113.834 427.44 114.5 427.44ZM125.02 429L121.08 418.4H122.9L126.4 428H125.54L129.18 418.4H130.8L134.36 428H133.52L137.1 418.4H138.82L134.86 429H133.02L129.68 420.24H130.24L126.86 429H125.02ZM145.415 429.12C144.349 429.12 143.402 428.887 142.575 428.42C141.749 427.953 141.095 427.313 140.615 426.5C140.135 425.673 139.895 424.74 139.895 423.7C139.895 422.647 140.135 421.713 140.615 420.9C141.095 420.087 141.749 419.453 142.575 419C143.402 418.533 144.349 418.3 145.415 418.3C146.469 418.3 147.409 418.533 148.235 419C149.075 419.453 149.729 420.087 150.195 420.9C150.675 421.7 150.915 422.633 150.915 423.7C150.915 424.753 150.675 425.687 150.195 426.5C149.729 427.313 149.075 427.953 148.235 428.42C147.409 428.887 146.469 429.12 145.415 429.12ZM145.415 427.44C146.095 427.44 146.702 427.287 147.235 426.98C147.782 426.673 148.209 426.24 148.515 425.68C148.822 425.107 148.975 424.447 148.975 423.7C148.975 422.94 148.822 422.287 148.515 421.74C148.209 421.18 147.782 420.747 147.235 420.44C146.702 420.133 146.095 419.98 145.415 419.98C144.735 419.98 144.129 420.133 143.595 420.44C143.062 420.747 142.635 421.18 142.315 421.74C141.995 422.287 141.835 422.94 141.835 423.7C141.835 424.447 141.995 425.107 142.315 425.68C142.635 426.24 143.062 426.673 143.595 426.98C144.129 427.287 144.735 427.44 145.415 427.44ZM153.971 429V418.4H155.811V421.28L155.631 420.56C155.924 419.827 156.417 419.267 157.111 418.88C157.804 418.493 158.657 418.3 159.671 418.3V420.16C159.591 420.147 159.511 420.14 159.431 420.14C159.364 420.14 159.297 420.14 159.231 420.14C158.204 420.14 157.391 420.447 156.791 421.06C156.191 421.673 155.891 422.56 155.891 423.72V429H153.971ZM163.997 426.44L164.037 423.98L170.137 418.4H172.457L167.777 423L166.737 423.88L163.997 426.44ZM162.437 429V414.16H164.357V429H162.437ZM170.537 429L166.377 423.84L167.617 422.3L172.897 429H170.537ZM181.213 429V415H186.673C187.899 415 188.946 415.193 189.813 415.58C190.679 415.967 191.346 416.527 191.813 417.26C192.279 417.993 192.513 418.867 192.513 419.88C192.513 420.893 192.279 421.767 191.813 422.5C191.346 423.22 190.679 423.78 189.813 424.18C188.946 424.567 187.899 424.76 186.673 424.76H182.313L183.213 423.82V429H181.213ZM183.213 424.02L182.313 423.02H186.613C187.893 423.02 188.859 422.747 189.513 422.2C190.179 421.653 190.513 420.88 190.513 419.88C190.513 418.88 190.179 418.107 189.513 417.56C188.859 417.013 187.893 416.74 186.613 416.74H182.313L183.213 415.74V424.02ZM200.072 429.12C199.005 429.12 198.058 428.887 197.232 428.42C196.405 427.953 195.752 427.313 195.272 426.5C194.792 425.673 194.552 424.74 194.552 423.7C194.552 422.647 194.792 421.713 195.272 420.9C195.752 420.087 196.405 419.453 197.232 419C198.058 418.533 199.005 418.3 200.072 418.3C201.125 418.3 202.065 418.533 202.892 419C203.732 419.453 204.385 420.087 204.852 420.9C205.332 421.7 205.572 422.633 205.572 423.7C205.572 424.753 205.332 425.687 204.852 426.5C204.385 427.313 203.732 427.953 202.892 428.42C202.065 428.887 201.125 429.12 200.072 429.12ZM200.072 427.44C200.752 427.44 201.358 427.287 201.892 426.98C202.438 426.673 202.865 426.24 203.172 425.68C203.478 425.107 203.632 424.447 203.632 423.7C203.632 422.94 203.478 422.287 203.172 421.74C202.865 421.18 202.438 420.747 201.892 420.44C201.358 420.133 200.752 419.98 200.072 419.98C199.392 419.98 198.785 420.133 198.252 420.44C197.718 420.747 197.292 421.18 196.972 421.74C196.652 422.287 196.492 422.94 196.492 423.7C196.492 424.447 196.652 425.107 196.972 425.68C197.292 426.24 197.718 426.673 198.252 426.98C198.785 427.287 199.392 427.44 200.072 427.44ZM208.627 429V418.4H210.467V421.28L210.287 420.56C210.58 419.827 211.074 419.267 211.767 418.88C212.46 418.493 213.314 418.3 214.327 418.3V420.16C214.247 420.147 214.167 420.14 214.087 420.14C214.02 420.14 213.954 420.14 213.887 420.14C212.86 420.14 212.047 420.447 211.447 421.06C210.847 421.673 210.547 422.56 210.547 423.72V429H208.627ZM221.163 429.12C220.096 429.12 219.27 428.833 218.683 428.26C218.096 427.687 217.803 426.867 217.803 425.8V416.08H219.723V425.72C219.723 426.293 219.863 426.733 220.143 427.04C220.436 427.347 220.85 427.5 221.383 427.5C221.983 427.5 222.483 427.333 222.883 427L223.483 428.38C223.19 428.633 222.836 428.82 222.423 428.94C222.023 429.06 221.603 429.12 221.163 429.12ZM216.003 419.98V418.4H222.763V419.98H216.003ZM226.484 429V417.46C226.484 416.42 226.784 415.593 227.384 414.98C227.998 414.353 228.864 414.04 229.984 414.04C230.398 414.04 230.791 414.093 231.164 414.2C231.551 414.293 231.878 414.447 232.144 414.66L231.564 416.12C231.364 415.96 231.138 415.84 230.884 415.76C230.631 415.667 230.364 415.62 230.084 415.62C229.524 415.62 229.098 415.78 228.804 416.1C228.511 416.407 228.364 416.867 228.364 417.48V418.9L228.404 419.78V429H226.484ZM224.684 419.98V418.4H231.444V419.98H224.684ZM238.039 429.12C236.972 429.12 236.026 428.887 235.199 428.42C234.372 427.953 233.719 427.313 233.239 426.5C232.759 425.673 232.519 424.74 232.519 423.7C232.519 422.647 232.759 421.713 233.239 420.9C233.719 420.087 234.372 419.453 235.199 419C236.026 418.533 236.972 418.3 238.039 418.3C239.092 418.3 240.032 418.533 240.859 419C241.699 419.453 242.352 420.087 242.819 420.9C243.299 421.7 243.539 422.633 243.539 423.7C243.539 424.753 243.299 425.687 242.819 426.5C242.352 427.313 241.699 427.953 240.859 428.42C240.032 428.887 239.092 429.12 238.039 429.12ZM238.039 427.44C238.719 427.44 239.326 427.287 239.859 426.98C240.406 426.673 240.832 426.24 241.139 425.68C241.446 425.107 241.599 424.447 241.599 423.7C241.599 422.94 241.446 422.287 241.139 421.74C240.832 421.18 240.406 420.747 239.859 420.44C239.326 420.133 238.719 419.98 238.039 419.98C237.359 419.98 236.752 420.133 236.219 420.44C235.686 420.747 235.259 421.18 234.939 421.74C234.619 422.287 234.459 422.94 234.459 423.7C234.459 424.447 234.619 425.107 234.939 425.68C235.259 426.24 235.686 426.673 236.219 426.98C236.752 427.287 237.359 427.44 238.039 427.44ZM246.594 429V414.16H248.514V429H246.594ZM252.58 429V418.4H254.5V429H252.58ZM253.54 416.36C253.167 416.36 252.853 416.24 252.6 416C252.36 415.76 252.24 415.467 252.24 415.12C252.24 414.76 252.36 414.46 252.6 414.22C252.853 413.98 253.167 413.86 253.54 413.86C253.913 413.86 254.22 413.98 254.46 414.22C254.713 414.447 254.84 414.733 254.84 415.08C254.84 415.44 254.72 415.747 254.48 416C254.24 416.24 253.927 416.36 253.54 416.36ZM263.106 429.12C262.039 429.12 261.093 428.887 260.266 428.42C259.439 427.953 258.786 427.313 258.306 426.5C257.826 425.673 257.586 424.74 257.586 423.7C257.586 422.647 257.826 421.713 258.306 420.9C258.786 420.087 259.439 419.453 260.266 419C261.093 418.533 262.039 418.3 263.106 418.3C264.159 418.3 265.099 418.533 265.926 419C266.766 419.453 267.419 420.087 267.886 420.9C268.366 421.7 268.606 422.633 268.606 423.7C268.606 424.753 268.366 425.687 267.886 426.5C267.419 427.313 266.766 427.953 265.926 428.42C265.099 428.887 264.159 429.12 263.106 429.12ZM263.106 427.44C263.786 427.44 264.393 427.287 264.926 426.98C265.473 426.673 265.899 426.24 266.206 425.68C266.513 425.107 266.666 424.447 266.666 423.7C266.666 422.94 266.513 422.287 266.206 421.74C265.899 421.18 265.473 420.747 264.926 420.44C264.393 420.133 263.786 419.98 263.106 419.98C262.426 419.98 261.819 420.133 261.286 420.44C260.753 420.747 260.326 421.18 260.006 421.74C259.686 422.287 259.526 422.94 259.526 423.7C259.526 424.447 259.686 425.107 260.006 425.68C260.326 426.24 260.753 426.673 261.286 426.98C261.819 427.287 262.426 427.44 263.106 427.44Z" fill="#3F6D26"/>
<defs>
<filter id="filter0_d_429_1577" x="10" y="392" width="340" height="67" filterUnits="userSpaceOnUse" color-interpolation-filters="sRGB">
<feFlood flood-opacity="0" result="BackgroundImageFix"/>
<feColorMatrix in="SourceAlpha" type="matrix" values="0 0 0 0 0 0 0 0 0 0 0 0 0 0 0 0 0 0 127 0" result="hardAlpha"/>
<feOffset dy="4"/>
<feGaussianBlur stdDeviation="5"/>
<feComposite in2="hardAlpha" operator="out"/>
<feColorMatrix type="matrix" values="0 0 0 0 0 0 0 0 0 0 0 0 0 0 0 0 0 0 0.2 0"/>
<feBlend mode="normal" in2="BackgroundImageFix" result="effect1_dropShadow_429_1577"/>
<feBlend mode="normal" in="SourceGraphic" in2="effect1_dropShadow_429_1577" result="shape"/>
</filter>
</defs>
</svg>
