<svg width="360" height="470" viewBox="0 0 360 470" fill="none" xmlns="http://www.w3.org/2000/svg">
<rect x="1" y="1" width="358" height="468" rx="19" fill="white" stroke="#3F6D26" stroke-width="2"/>
<path d="M141.952 86V74.8H142.768V85.264H149.216V86H141.952ZM155.519 86V84.096L155.487 83.808V80.672C155.487 79.8933 155.274 79.3013 154.847 78.896C154.431 78.4907 153.818 78.288 153.007 78.288C152.431 78.288 151.893 78.3893 151.391 78.592C150.901 78.784 150.479 79.0347 150.127 79.344L149.727 78.768C150.143 78.3947 150.645 78.1067 151.231 77.904C151.818 77.6907 152.431 77.584 153.071 77.584C154.106 77.584 154.901 77.8453 155.455 78.368C156.01 78.8907 156.287 79.6693 156.287 80.704V86H155.519ZM152.511 86.064C151.893 86.064 151.354 85.968 150.895 85.776C150.447 85.5733 150.101 85.2907 149.855 84.928C149.621 84.5653 149.503 84.1493 149.503 83.68C149.503 83.2533 149.599 82.8693 149.791 82.528C149.994 82.176 150.325 81.8933 150.783 81.68C151.242 81.456 151.855 81.344 152.623 81.344H155.695V81.968H152.639C151.775 81.968 151.167 82.128 150.815 82.448C150.474 82.768 150.303 83.168 150.303 83.648C150.303 84.1813 150.506 84.608 150.911 84.928C151.317 85.248 151.887 85.408 152.623 85.408C153.327 85.408 153.919 85.248 154.399 84.928C154.89 84.608 155.253 84.144 155.487 83.536L155.711 84.08C155.487 84.688 155.103 85.1733 154.559 85.536C154.026 85.888 153.343 86.064 152.511 86.064ZM158.783 86V77.648H159.551V79.936L159.471 79.68C159.706 79.008 160.101 78.4907 160.655 78.128C161.21 77.7653 161.903 77.584 162.735 77.584V78.368C162.703 78.368 162.671 78.368 162.639 78.368C162.607 78.3573 162.575 78.352 162.543 78.352C161.615 78.352 160.89 78.6453 160.367 79.232C159.845 79.808 159.583 80.6133 159.583 81.648V86H158.783ZM168.779 86V84.096L168.747 83.808V80.672C168.747 79.8933 168.533 79.3013 168.107 78.896C167.691 78.4907 167.077 78.288 166.267 78.288C165.691 78.288 165.152 78.3893 164.651 78.592C164.16 78.784 163.739 79.0347 163.387 79.344L162.987 78.768C163.403 78.3947 163.904 78.1067 164.491 77.904C165.077 77.6907 165.691 77.584 166.331 77.584C167.365 77.584 168.16 77.8453 168.715 78.368C169.269 78.8907 169.547 79.6693 169.547 80.704V86H168.779ZM165.771 86.064C165.152 86.064 164.613 85.968 164.155 85.776C163.707 85.5733 163.36 85.2907 163.115 84.928C162.88 84.5653 162.763 84.1493 162.763 83.68C162.763 83.2533 162.859 82.8693 163.051 82.528C163.253 82.176 163.584 81.8933 164.043 81.68C164.501 81.456 165.115 81.344 165.883 81.344H168.955V81.968H165.899C165.035 81.968 164.427 82.128 164.075 82.448C163.733 82.768 163.563 83.168 163.563 83.648C163.563 84.1813 163.765 84.608 164.171 84.928C164.576 85.248 165.147 85.408 165.883 85.408C166.587 85.408 167.179 85.248 167.659 84.928C168.149 84.608 168.512 84.144 168.747 83.536L168.971 84.08C168.747 84.688 168.363 85.1733 167.819 85.536C167.285 85.888 166.603 86.064 165.771 86.064ZM173.999 86L170.239 77.648H171.087L174.607 85.552H174.223L177.775 77.648H178.591L174.815 86H173.999ZM182.697 86.064C181.855 86.064 181.108 85.8827 180.457 85.52C179.817 85.1573 179.311 84.656 178.937 84.016C178.575 83.376 178.393 82.6453 178.393 81.824C178.393 80.992 178.564 80.2613 178.905 79.632C179.257 78.992 179.737 78.4907 180.345 78.128C180.953 77.7653 181.636 77.584 182.393 77.584C183.151 77.584 183.828 77.76 184.425 78.112C185.033 78.464 185.508 78.96 185.849 79.6C186.201 80.2293 186.377 80.96 186.377 81.792C186.377 81.824 186.372 81.8613 186.361 81.904C186.361 81.936 186.361 81.9733 186.361 82.016H178.985V81.392H185.929L185.609 81.696C185.62 81.0453 185.481 80.464 185.193 79.952C184.916 79.4293 184.537 79.024 184.057 78.736C183.577 78.4373 183.023 78.288 182.393 78.288C181.775 78.288 181.22 78.4373 180.729 78.736C180.249 79.024 179.871 79.4293 179.593 79.952C179.316 80.464 179.177 81.0507 179.177 81.712V81.856C179.177 82.5387 179.327 83.1467 179.625 83.68C179.935 84.2027 180.356 84.6133 180.889 84.912C181.423 85.2 182.031 85.344 182.713 85.344C183.247 85.344 183.743 85.248 184.201 85.056C184.671 84.864 185.065 84.5707 185.385 84.176L185.849 84.704C185.487 85.152 185.028 85.4933 184.473 85.728C183.929 85.952 183.337 86.064 182.697 86.064ZM188.052 86V74.128H188.852V86H188.052ZM194.989 89.104V74.128H195.741V89.104H194.989ZM204.299 86V75.536H200.267V74.8H209.147V75.536H205.115V86H204.299ZM214.91 86V84.096L214.878 83.808V80.672C214.878 79.8933 214.665 79.3013 214.238 78.896C213.822 78.4907 213.209 78.288 212.398 78.288C211.822 78.288 211.283 78.3893 210.782 78.592C210.291 78.784 209.87 79.0347 209.518 79.344L209.118 78.768C209.534 78.3947 210.035 78.1067 210.622 77.904C211.209 77.6907 211.822 77.584 212.462 77.584C213.497 77.584 214.291 77.8453 214.846 78.368C215.401 78.8907 215.678 79.6693 215.678 80.704V86H214.91ZM211.902 86.064C211.283 86.064 210.745 85.968 210.286 85.776C209.838 85.5733 209.491 85.2907 209.246 84.928C209.011 84.5653 208.894 84.1493 208.894 83.68C208.894 83.2533 208.99 82.8693 209.182 82.528C209.385 82.176 209.715 81.8933 210.174 81.68C210.633 81.456 211.246 81.344 212.014 81.344H215.086V81.968H212.03C211.166 81.968 210.558 82.128 210.206 82.448C209.865 82.768 209.694 83.168 209.694 83.648C209.694 84.1813 209.897 84.608 210.302 84.928C210.707 85.248 211.278 85.408 212.014 85.408C212.718 85.408 213.31 85.248 213.79 84.928C214.281 84.608 214.643 84.144 214.878 83.536L215.102 84.08C214.878 84.688 214.494 85.1733 213.95 85.536C213.417 85.888 212.734 86.064 211.902 86.064ZM218.174 86V77.648H218.974V86H218.174ZM218.574 75.616C218.393 75.616 218.238 75.552 218.11 75.424C217.982 75.296 217.918 75.1467 217.918 74.976C217.918 74.7947 217.982 74.64 218.11 74.512C218.238 74.384 218.393 74.32 218.574 74.32C218.766 74.32 218.921 74.384 219.038 74.512C219.166 74.6293 219.23 74.7787 219.23 74.96C219.23 75.1413 219.166 75.296 219.038 75.424C218.921 75.552 218.766 75.616 218.574 75.616ZM221.546 86V74.128H222.346V86H221.546ZM226.55 86L223.382 77.648H224.15L227.094 85.552H226.758L229.782 77.648H230.47L233.478 85.552H233.126L236.118 77.648H236.854L233.686 86H232.934L229.99 78.416H230.246L227.286 86H226.55ZM237.915 86V77.648H238.715V86H237.915ZM238.315 75.616C238.133 75.616 237.979 75.552 237.851 75.424C237.723 75.296 237.659 75.1467 237.659 74.976C237.659 74.7947 237.723 74.64 237.851 74.512C237.979 74.384 238.133 74.32 238.315 74.32C238.507 74.32 238.661 74.384 238.779 74.512C238.907 74.6293 238.971 74.7787 238.971 74.96C238.971 75.1413 238.907 75.296 238.779 75.424C238.661 75.552 238.507 75.616 238.315 75.616ZM245.367 77.584C246.049 77.584 246.641 77.7173 247.143 77.984C247.655 78.24 248.049 78.6347 248.327 79.168C248.615 79.6907 248.759 80.3413 248.759 81.12V86H247.959V81.184C247.959 80.2453 247.719 79.5307 247.239 79.04C246.769 78.5493 246.108 78.304 245.255 78.304C244.604 78.304 244.039 78.4373 243.559 78.704C243.079 78.9707 242.711 79.344 242.455 79.824C242.209 80.304 242.087 80.88 242.087 81.552V86H241.287V77.648H242.055V79.968L241.943 79.712C242.199 79.0507 242.62 78.5333 243.207 78.16C243.793 77.776 244.513 77.584 245.367 77.584ZM254.468 86.064C253.69 86.064 252.986 85.888 252.356 85.536C251.738 85.1733 251.247 84.672 250.884 84.032C250.522 83.392 250.34 82.656 250.34 81.824C250.34 80.9813 250.522 80.2453 250.884 79.616C251.247 78.976 251.738 78.48 252.356 78.128C252.986 77.7653 253.69 77.584 254.468 77.584C255.204 77.584 255.866 77.7547 256.452 78.096C257.05 78.4373 257.519 78.9227 257.86 79.552C258.212 80.1813 258.388 80.9387 258.388 81.824C258.388 82.688 258.218 83.44 257.876 84.08C257.535 84.72 257.066 85.2107 256.468 85.552C255.882 85.8933 255.215 86.064 254.468 86.064ZM254.516 85.344C255.156 85.344 255.727 85.2 256.228 84.912C256.74 84.6133 257.14 84.1973 257.428 83.664C257.727 83.1307 257.876 82.5173 257.876 81.824C257.876 81.12 257.727 80.5067 257.428 79.984C257.14 79.4507 256.74 79.04 256.228 78.752C255.727 78.4533 255.156 78.304 254.516 78.304C253.876 78.304 253.3 78.4533 252.788 78.752C252.287 79.04 251.887 79.4507 251.588 79.984C251.3 80.5067 251.156 81.12 251.156 81.824C251.156 82.5173 251.3 83.1307 251.588 83.664C251.887 84.1973 252.287 84.6133 252.788 84.912C253.3 85.2 253.876 85.344 254.516 85.344ZM257.892 86V83.264L258.036 81.808L257.876 80.352V74.128H258.676V86H257.892ZM269.551 86.08C268.719 86.08 267.945 85.9413 267.231 85.664C266.527 85.376 265.913 84.976 265.391 84.464C264.868 83.952 264.463 83.3547 264.175 82.672C263.887 81.9787 263.743 81.2213 263.743 80.4C263.743 79.5787 263.887 78.8267 264.175 78.144C264.463 77.4507 264.868 76.848 265.391 76.336C265.924 75.824 266.543 75.4293 267.247 75.152C267.951 74.864 268.719 74.72 269.551 74.72C270.34 74.72 271.076 74.848 271.759 75.104C272.452 75.36 273.044 75.7493 273.535 76.272L273.023 76.8C272.543 76.3307 272.009 75.9947 271.423 75.792C270.847 75.5787 270.233 75.472 269.583 75.472C268.868 75.472 268.201 75.5947 267.583 75.84C266.975 76.0853 266.441 76.432 265.983 76.88C265.535 77.328 265.183 77.8507 264.927 78.448C264.681 79.0453 264.559 79.696 264.559 80.4C264.559 81.104 264.681 81.7547 264.927 82.352C265.183 82.9493 265.535 83.472 265.983 83.92C266.441 84.368 266.975 84.7147 267.583 84.96C268.201 85.2053 268.868 85.328 269.583 85.328C270.233 85.328 270.847 85.2267 271.423 85.024C272.009 84.8107 272.543 84.464 273.023 83.984L273.535 84.512C273.044 85.0347 272.452 85.4293 271.759 85.696C271.076 85.952 270.34 86.08 269.551 86.08ZM278.365 86.08C277.533 86.08 276.743 85.9413 275.997 85.664C275.261 85.376 274.69 85.008 274.285 84.56L274.653 83.952C275.037 84.3467 275.559 84.6827 276.221 84.96C276.893 85.2267 277.602 85.36 278.349 85.36C279.095 85.36 279.703 85.264 280.173 85.072C280.653 84.8693 281.005 84.6027 281.229 84.272C281.463 83.9413 281.581 83.5733 281.581 83.168C281.581 82.688 281.453 82.304 281.197 82.016C280.941 81.728 280.605 81.4987 280.189 81.328C279.773 81.1573 279.319 81.0133 278.829 80.896C278.338 80.7787 277.842 80.656 277.341 80.528C276.839 80.3893 276.381 80.2133 275.965 80C275.549 79.7867 275.213 79.4987 274.957 79.136C274.711 78.7627 274.589 78.2827 274.589 77.696C274.589 77.1627 274.727 76.672 275.005 76.224C275.282 75.776 275.714 75.4133 276.301 75.136C276.887 74.8587 277.639 74.72 278.557 74.72C279.175 74.72 279.783 74.8107 280.381 74.992C280.989 75.1733 281.506 75.4187 281.933 75.728L281.629 76.384C281.159 76.064 280.653 75.8293 280.109 75.68C279.575 75.52 279.058 75.44 278.557 75.44C277.842 75.44 277.25 75.5413 276.781 75.744C276.311 75.9467 275.965 76.2187 275.741 76.56C275.517 76.8907 275.405 77.264 275.405 77.68C275.405 78.16 275.527 78.544 275.773 78.832C276.029 79.12 276.365 79.3493 276.781 79.52C277.197 79.6907 277.655 79.8347 278.157 79.952C278.658 80.0693 279.154 80.1973 279.645 80.336C280.135 80.464 280.589 80.6347 281.005 80.848C281.421 81.0613 281.757 81.3493 282.013 81.712C282.269 82.0747 282.397 82.544 282.397 83.12C282.397 83.6427 282.253 84.1333 281.965 84.592C281.677 85.04 281.234 85.4027 280.637 85.68C280.05 85.9467 279.293 86.08 278.365 86.08ZM287.315 86.08C286.483 86.08 285.693 85.9413 284.947 85.664C284.211 85.376 283.64 85.008 283.235 84.56L283.603 83.952C283.987 84.3467 284.509 84.6827 285.171 84.96C285.843 85.2267 286.552 85.36 287.299 85.36C288.045 85.36 288.653 85.264 289.123 85.072C289.603 84.8693 289.955 84.6027 290.179 84.272C290.413 83.9413 290.531 83.5733 290.531 83.168C290.531 82.688 290.403 82.304 290.147 82.016C289.891 81.728 289.555 81.4987 289.139 81.328C288.723 81.1573 288.269 81.0133 287.779 80.896C287.288 80.7787 286.792 80.656 286.291 80.528C285.789 80.3893 285.331 80.2133 284.915 80C284.499 79.7867 284.163 79.4987 283.907 79.136C283.661 78.7627 283.539 78.2827 283.539 77.696C283.539 77.1627 283.677 76.672 283.955 76.224C284.232 75.776 284.664 75.4133 285.251 75.136C285.837 74.8587 286.589 74.72 287.507 74.72C288.125 74.72 288.733 74.8107 289.331 74.992C289.939 75.1733 290.456 75.4187 290.883 75.728L290.579 76.384C290.109 76.064 289.603 75.8293 289.059 75.68C288.525 75.52 288.008 75.44 287.507 75.44C286.792 75.44 286.2 75.5413 285.731 75.744C285.261 75.9467 284.915 76.2187 284.691 76.56C284.467 76.8907 284.355 77.264 284.355 77.68C284.355 78.16 284.477 78.544 284.723 78.832C284.979 79.12 285.315 79.3493 285.731 79.52C286.147 79.6907 286.605 79.8347 287.107 79.952C287.608 80.0693 288.104 80.1973 288.595 80.336C289.085 80.464 289.539 80.6347 289.955 80.848C290.371 81.0613 290.707 81.3493 290.963 81.712C291.219 82.0747 291.347 82.544 291.347 83.12C291.347 83.6427 291.203 84.1333 290.915 84.592C290.627 85.04 290.184 85.4027 289.587 85.68C289 85.9467 288.243 86.08 287.315 86.08ZM141.952 106V94.8H146.384C147.568 94.8 148.608 95.04 149.504 95.52C150.4 96 151.093 96.6613 151.584 97.504C152.085 98.3467 152.336 99.312 152.336 100.4C152.336 101.488 152.085 102.453 151.584 103.296C151.093 104.139 150.4 104.8 149.504 105.28C148.608 105.76 147.568 106 146.384 106H141.952ZM142.768 105.264H146.32C147.376 105.264 148.293 105.056 149.072 104.64C149.851 104.224 150.453 103.653 150.88 102.928C151.307 102.192 151.52 101.349 151.52 100.4C151.52 99.4507 151.307 98.6133 150.88 97.888C150.453 97.152 149.851 96.576 149.072 96.16C148.293 95.744 147.376 95.536 146.32 95.536H142.768V105.264ZM157.507 106.064C156.664 106.064 155.917 105.883 155.267 105.52C154.627 105.157 154.12 104.656 153.747 104.016C153.384 103.376 153.203 102.645 153.203 101.824C153.203 100.992 153.373 100.261 153.715 99.632C154.067 98.992 154.547 98.4907 155.155 98.128C155.763 97.7653 156.445 97.584 157.203 97.584C157.96 97.584 158.637 97.76 159.235 98.112C159.843 98.464 160.317 98.96 160.659 99.6C161.011 100.229 161.187 100.96 161.187 101.792C161.187 101.824 161.181 101.861 161.171 101.904C161.171 101.936 161.171 101.973 161.171 102.016H153.795V101.392H160.739L160.419 101.696C160.429 101.045 160.291 100.464 160.003 99.952C159.725 99.4293 159.347 99.024 158.867 98.736C158.387 98.4373 157.832 98.288 157.203 98.288C156.584 98.288 156.029 98.4373 155.539 98.736C155.059 99.024 154.68 99.4293 154.403 99.952C154.125 100.464 153.987 101.051 153.987 101.712V101.856C153.987 102.539 154.136 103.147 154.435 103.68C154.744 104.203 155.165 104.613 155.699 104.912C156.232 105.2 156.84 105.344 157.523 105.344C158.056 105.344 158.552 105.248 159.011 105.056C159.48 104.864 159.875 104.571 160.195 104.176L160.659 104.704C160.296 105.152 159.837 105.493 159.283 105.728C158.739 105.952 158.147 106.064 157.507 106.064ZM164.817 106L161.057 97.648H161.905L165.425 105.552H165.041L168.593 97.648H169.409L165.633 106H164.817ZM173.516 106.064C172.673 106.064 171.927 105.883 171.276 105.52C170.636 105.157 170.129 104.656 169.756 104.016C169.393 103.376 169.212 102.645 169.212 101.824C169.212 100.992 169.383 100.261 169.724 99.632C170.076 98.992 170.556 98.4907 171.164 98.128C171.772 97.7653 172.455 97.584 173.212 97.584C173.969 97.584 174.647 97.76 175.244 98.112C175.852 98.464 176.327 98.96 176.668 99.6C177.02 100.229 177.196 100.96 177.196 101.792C177.196 101.824 177.191 101.861 177.18 101.904C177.18 101.936 177.18 101.973 177.18 102.016H169.804V101.392H176.748L176.428 101.696C176.439 101.045 176.3 100.464 176.012 99.952C175.735 99.4293 175.356 99.024 174.876 98.736C174.396 98.4373 173.841 98.288 173.212 98.288C172.593 98.288 172.039 98.4373 171.548 98.736C171.068 99.024 170.689 99.4293 170.412 99.952C170.135 100.464 169.996 101.051 169.996 101.712V101.856C169.996 102.539 170.145 103.147 170.444 103.68C170.753 104.203 171.175 104.613 171.708 104.912C172.241 105.2 172.849 105.344 173.532 105.344C174.065 105.344 174.561 105.248 175.02 105.056C175.489 104.864 175.884 104.571 176.204 104.176L176.668 104.704C176.305 105.152 175.847 105.493 175.292 105.728C174.748 105.952 174.156 106.064 173.516 106.064ZM178.871 106V94.128H179.671V106H178.871ZM185.507 106.064C184.707 106.064 183.992 105.883 183.363 105.52C182.744 105.157 182.248 104.656 181.875 104.016C181.512 103.376 181.331 102.645 181.331 101.824C181.331 100.992 181.512 100.261 181.875 99.632C182.248 98.992 182.744 98.4907 183.363 98.128C183.992 97.7653 184.707 97.584 185.507 97.584C186.307 97.584 187.022 97.7653 187.651 98.128C188.28 98.4907 188.776 98.992 189.139 99.632C189.502 100.261 189.683 100.992 189.683 101.824C189.683 102.645 189.502 103.376 189.139 104.016C188.776 104.656 188.28 105.157 187.651 105.52C187.022 105.883 186.307 106.064 185.507 106.064ZM185.507 105.344C186.147 105.344 186.723 105.2 187.235 104.912C187.747 104.613 188.147 104.197 188.435 103.664C188.723 103.131 188.867 102.517 188.867 101.824C188.867 101.12 188.723 100.507 188.435 99.984C188.147 99.4507 187.747 99.04 187.235 98.752C186.723 98.4533 186.147 98.304 185.507 98.304C184.867 98.304 184.291 98.4533 183.779 98.752C183.278 99.04 182.878 99.4507 182.579 99.984C182.291 100.507 182.147 101.12 182.147 101.824C182.147 102.517 182.291 103.131 182.579 103.664C182.878 104.197 183.278 104.613 183.779 104.912C184.291 105.2 184.867 105.344 185.507 105.344ZM195.557 106.064C194.821 106.064 194.154 105.893 193.557 105.552C192.97 105.211 192.501 104.725 192.149 104.096C191.807 103.456 191.637 102.699 191.637 101.824C191.637 100.949 191.807 100.197 192.149 99.568C192.501 98.928 192.97 98.4373 193.557 98.096C194.154 97.7547 194.821 97.584 195.557 97.584C196.346 97.584 197.05 97.7653 197.669 98.128C198.298 98.48 198.789 98.976 199.141 99.616C199.503 100.256 199.685 100.992 199.685 101.824C199.685 102.656 199.503 103.392 199.141 104.032C198.789 104.672 198.298 105.173 197.669 105.536C197.05 105.888 196.346 106.064 195.557 106.064ZM191.365 109.104V97.648H192.133V100.384L192.005 101.84L192.165 103.296V109.104H191.365ZM195.509 105.344C196.149 105.344 196.725 105.2 197.237 104.912C197.749 104.613 198.149 104.197 198.437 103.664C198.735 103.131 198.885 102.517 198.885 101.824C198.885 101.12 198.735 100.507 198.437 99.984C198.149 99.4507 197.749 99.04 197.237 98.752C196.725 98.4533 196.149 98.304 195.509 98.304C194.869 98.304 194.293 98.4533 193.781 98.752C193.279 99.04 192.879 99.4507 192.581 99.984C192.293 100.507 192.149 101.12 192.149 101.824C192.149 102.517 192.293 103.131 192.581 103.664C192.879 104.197 193.279 104.613 193.781 104.912C194.293 105.2 194.869 105.344 195.509 105.344ZM204.754 106.064C203.911 106.064 203.164 105.883 202.514 105.52C201.874 105.157 201.367 104.656 200.994 104.016C200.631 103.376 200.45 102.645 200.45 101.824C200.45 100.992 200.62 100.261 200.962 99.632C201.314 98.992 201.794 98.4907 202.402 98.128C203.01 97.7653 203.692 97.584 204.45 97.584C205.207 97.584 205.884 97.76 206.482 98.112C207.09 98.464 207.564 98.96 207.906 99.6C208.258 100.229 208.434 100.96 208.434 101.792C208.434 101.824 208.428 101.861 208.418 101.904C208.418 101.936 208.418 101.973 208.418 102.016H201.042V101.392H207.986L207.666 101.696C207.676 101.045 207.538 100.464 207.25 99.952C206.972 99.4293 206.594 99.024 206.114 98.736C205.634 98.4373 205.079 98.288 204.45 98.288C203.831 98.288 203.276 98.4373 202.786 98.736C202.306 99.024 201.927 99.4293 201.65 99.952C201.372 100.464 201.234 101.051 201.234 101.712V101.856C201.234 102.539 201.383 103.147 201.682 103.68C201.991 104.203 202.412 104.613 202.946 104.912C203.479 105.2 204.087 105.344 204.77 105.344C205.303 105.344 205.799 105.248 206.258 105.056C206.727 104.864 207.122 104.571 207.442 104.176L207.906 104.704C207.543 105.152 207.084 105.493 206.53 105.728C205.986 105.952 205.394 106.064 204.754 106.064ZM210.108 106V97.648H210.876V99.936L210.796 99.68C211.031 99.008 211.426 98.4907 211.98 98.128C212.535 97.7653 213.228 97.584 214.06 97.584V98.368C214.028 98.368 213.996 98.368 213.964 98.368C213.932 98.3573 213.9 98.352 213.868 98.352C212.94 98.352 212.215 98.6453 211.692 99.232C211.17 99.808 210.908 100.613 210.908 101.648V106H210.108Z" fill="black"/>
<rect x="20" y="140" width="320" height="2" fill="#10180B" fill-opacity="0.2"/>
<rect x="20" y="20" width="100" height="100" rx="50" fill="#A3DA86" fill-opacity="0.5"/>
<path d="M142.1 55V41H148.38C149.993 41 151.233 41.3267 152.1 41.98C152.967 42.62 153.4 43.5 153.4 44.62C153.4 45.38 153.227 46.02 152.88 46.54C152.547 47.06 152.093 47.46 151.52 47.74C150.947 48.02 150.327 48.16 149.66 48.16L150.02 47.56C150.82 47.56 151.527 47.7 152.14 47.98C152.753 48.26 153.24 48.6733 153.6 49.22C153.96 49.7533 154.14 50.42 154.14 51.22C154.14 52.42 153.687 53.3533 152.78 54.02C151.887 54.6733 150.553 55 148.78 55H142.1ZM144.1 53.38H148.7C149.807 53.38 150.653 53.1933 151.24 52.82C151.827 52.4467 152.12 51.86 152.12 51.06C152.12 50.2467 151.827 49.6533 151.24 49.28C150.653 48.9067 149.807 48.72 148.7 48.72H143.92V47.1H148.2C149.213 47.1 150 46.9133 150.56 46.54C151.12 46.1667 151.4 45.6067 151.4 44.86C151.4 44.1133 151.12 43.5533 150.56 43.18C150 42.8067 149.213 42.62 148.2 42.62H144.1V53.38ZM161.617 44.3C162.483 44.3 163.243 44.4667 163.897 44.8C164.563 45.1333 165.083 45.64 165.457 46.32C165.83 47 166.017 47.86 166.017 48.9V55H164.097V49.12C164.097 48.0933 163.843 47.32 163.337 46.8C162.843 46.28 162.143 46.02 161.237 46.02C160.557 46.02 159.963 46.1533 159.457 46.42C158.95 46.6867 158.557 47.08 158.277 47.6C158.01 48.12 157.877 48.7667 157.877 49.54V55H155.957V40.16H157.877V47.26L157.497 46.5C157.843 45.8067 158.377 45.2667 159.097 44.88C159.817 44.4933 160.657 44.3 161.617 44.3ZM175.15 55V52.76L175.05 52.34V48.52C175.05 47.7067 174.81 47.08 174.33 46.64C173.863 46.1867 173.157 45.96 172.21 45.96C171.583 45.96 170.97 46.0667 170.37 46.28C169.77 46.48 169.263 46.7533 168.85 47.1L168.05 45.66C168.597 45.22 169.25 44.8867 170.01 44.66C170.783 44.42 171.59 44.3 172.43 44.3C173.883 44.3 175.003 44.6533 175.79 45.36C176.577 46.0667 176.97 47.1467 176.97 48.6V55H175.15ZM171.67 55.12C170.883 55.12 170.19 54.9867 169.59 54.72C169.003 54.4533 168.55 54.0867 168.23 53.62C167.91 53.14 167.75 52.6 167.75 52C167.75 51.4267 167.883 50.9067 168.15 50.44C168.43 49.9733 168.877 49.6 169.49 49.32C170.117 49.04 170.957 48.9 172.01 48.9H175.37V50.28H172.09C171.13 50.28 170.483 50.44 170.15 50.76C169.817 51.08 169.65 51.4667 169.65 51.92C169.65 52.44 169.857 52.86 170.27 53.18C170.683 53.4867 171.257 53.64 171.99 53.64C172.71 53.64 173.337 53.48 173.87 53.16C174.417 52.84 174.81 52.3733 175.05 51.76L175.43 53.08C175.177 53.7067 174.73 54.2067 174.09 54.58C173.45 54.94 172.643 55.12 171.67 55.12ZM182.108 55L177.468 44.4H179.468L183.588 54H182.628L186.828 44.4H188.708L184.068 55H182.108ZM193.587 55.12C192.56 55.12 191.64 54.8933 190.827 54.44C190.027 53.9867 189.393 53.3533 188.927 52.54C188.46 51.7267 188.227 50.78 188.227 49.7C188.227 48.62 188.46 47.68 188.927 46.88C189.393 46.0667 190.027 45.4333 190.827 44.98C191.64 44.5267 192.56 44.3 193.587 44.3C194.48 44.3 195.287 44.5 196.007 44.9C196.727 45.3 197.3 45.9 197.727 46.7C198.167 47.5 198.387 48.5 198.387 49.7C198.387 50.9 198.173 51.9 197.747 52.7C197.333 53.5 196.767 54.1067 196.047 54.52C195.327 54.92 194.507 55.12 193.587 55.12ZM193.747 53.44C194.413 53.44 195.013 53.2867 195.547 52.98C196.093 52.6733 196.52 52.24 196.827 51.68C197.147 51.1067 197.307 50.4467 197.307 49.7C197.307 48.94 197.147 48.2867 196.827 47.74C196.52 47.18 196.093 46.7467 195.547 46.44C195.013 46.1333 194.413 45.98 193.747 45.98C193.067 45.98 192.46 46.1333 191.927 46.44C191.393 46.7467 190.967 47.18 190.647 47.74C190.327 48.2867 190.167 48.94 190.167 49.7C190.167 50.4467 190.327 51.1067 190.647 51.68C190.967 52.24 191.393 52.6733 191.927 52.98C192.46 53.2867 193.067 53.44 193.747 53.44ZM197.367 55V52.14L197.487 49.68L197.287 47.22V40.16H199.207V55H197.367ZM201.84 55V44.4H203.76V55H201.84ZM202.8 42.36C202.426 42.36 202.113 42.24 201.86 42C201.62 41.76 201.5 41.4667 201.5 41.12C201.5 40.76 201.62 40.46 201.86 40.22C202.113 39.98 202.426 39.86 202.8 39.86C203.173 39.86 203.48 39.98 203.72 40.22C203.973 40.4467 204.1 40.7333 204.1 41.08C204.1 41.44 203.98 41.7467 203.74 42C203.5 42.24 203.186 42.36 202.8 42.36ZM212.045 55.12C211.165 55.12 210.359 54.92 209.625 54.52C208.905 54.1067 208.325 53.5 207.885 52.7C207.459 51.9 207.245 50.9 207.245 49.7C207.245 48.5 207.452 47.5 207.865 46.7C208.292 45.9 208.865 45.3 209.585 44.9C210.319 44.5 211.139 44.3 212.045 44.3C213.085 44.3 214.005 44.5267 214.805 44.98C215.605 45.4333 216.239 46.0667 216.705 46.88C217.172 47.68 217.405 48.62 217.405 49.7C217.405 50.78 217.172 51.7267 216.705 52.54C216.239 53.3533 215.605 53.9867 214.805 54.44C214.005 54.8933 213.085 55.12 212.045 55.12ZM206.425 58.88V44.4H208.265V47.26L208.145 49.72L208.345 52.18V58.88H206.425ZM211.885 53.44C212.565 53.44 213.172 53.2867 213.705 52.98C214.252 52.6733 214.679 52.24 214.985 51.68C215.305 51.1067 215.465 50.4467 215.465 49.7C215.465 48.94 215.305 48.2867 214.985 47.74C214.679 47.18 214.252 46.7467 213.705 46.44C213.172 46.1333 212.565 45.98 211.885 45.98C211.219 45.98 210.612 46.1333 210.065 46.44C209.532 46.7467 209.105 47.18 208.785 47.74C208.479 48.2867 208.325 48.94 208.325 49.7C208.325 50.4467 208.479 51.1067 208.785 51.68C209.105 52.24 209.532 52.6733 210.065 52.98C210.612 53.2867 211.219 53.44 211.885 53.44ZM223.709 55V41H229.169C230.396 41 231.443 41.1933 232.309 41.58C233.176 41.9667 233.843 42.5267 234.309 43.26C234.776 43.9933 235.009 44.8667 235.009 45.88C235.009 46.8933 234.776 47.7667 234.309 48.5C233.843 49.22 233.176 49.78 232.309 50.18C231.443 50.5667 230.396 50.76 229.169 50.76H224.809L225.709 49.82V55H223.709ZM225.709 50.02L224.809 49.02H229.109C230.389 49.02 231.356 48.7467 232.009 48.2C232.676 47.6533 233.009 46.88 233.009 45.88C233.009 44.88 232.676 44.1067 232.009 43.56C231.356 43.0133 230.389 42.74 229.109 42.74H224.809L225.709 41.74V50.02ZM243.15 55V52.76L243.05 52.34V48.52C243.05 47.7067 242.81 47.08 242.33 46.64C241.863 46.1867 241.157 45.96 240.21 45.96C239.583 45.96 238.97 46.0667 238.37 46.28C237.77 46.48 237.263 46.7533 236.85 47.1L236.05 45.66C236.597 45.22 237.25 44.8867 238.01 44.66C238.783 44.42 239.59 44.3 240.43 44.3C241.883 44.3 243.003 44.6533 243.79 45.36C244.577 46.0667 244.97 47.1467 244.97 48.6V55H243.15ZM239.67 55.12C238.883 55.12 238.19 54.9867 237.59 54.72C237.003 54.4533 236.55 54.0867 236.23 53.62C235.91 53.14 235.75 52.6 235.75 52C235.75 51.4267 235.883 50.9067 236.15 50.44C236.43 49.9733 236.877 49.6 237.49 49.32C238.117 49.04 238.957 48.9 240.01 48.9H243.37V50.28H240.09C239.13 50.28 238.483 50.44 238.15 50.76C237.817 51.08 237.65 51.4667 237.65 51.92C237.65 52.44 237.857 52.86 238.27 53.18C238.683 53.4867 239.257 53.64 239.99 53.64C240.71 53.64 241.337 53.48 241.87 53.16C242.417 52.84 242.81 52.3733 243.05 51.76L243.43 53.08C243.177 53.7067 242.73 54.2067 242.09 54.58C241.45 54.94 240.643 55.12 239.67 55.12ZM260.783 44.3C261.636 44.3 262.39 44.4667 263.043 44.8C263.696 45.1333 264.203 45.64 264.563 46.32C264.936 47 265.123 47.86 265.123 48.9V55H263.203V49.12C263.203 48.0933 262.963 47.32 262.483 46.8C262.003 46.28 261.33 46.02 260.463 46.02C259.823 46.02 259.263 46.1533 258.783 46.42C258.303 46.6867 257.93 47.08 257.663 47.6C257.41 48.12 257.283 48.7667 257.283 49.54V55H255.363V49.12C255.363 48.0933 255.123 47.32 254.643 46.8C254.176 46.28 253.503 46.02 252.623 46.02C251.996 46.02 251.443 46.1533 250.963 46.42C250.483 46.6867 250.11 47.08 249.843 47.6C249.576 48.12 249.443 48.7667 249.443 49.54V55H247.523V44.4H249.363V47.22L249.063 46.5C249.396 45.8067 249.91 45.2667 250.603 44.88C251.296 44.4933 252.103 44.3 253.023 44.3C254.036 44.3 254.91 44.5533 255.643 45.06C256.376 45.5533 256.856 46.3067 257.083 47.32L256.303 47C256.623 46.1867 257.183 45.5333 257.983 45.04C258.783 44.5467 259.716 44.3 260.783 44.3ZM273.276 55.12C272.369 55.12 271.549 54.92 270.816 54.52C270.096 54.1067 269.523 53.5 269.096 52.7C268.683 51.9 268.476 50.9 268.476 49.7C268.476 48.5 268.689 47.5 269.116 46.7C269.556 45.9 270.136 45.3 270.856 44.9C271.589 44.5 272.396 44.3 273.276 44.3C274.316 44.3 275.236 44.5267 276.036 44.98C276.836 45.4333 277.469 46.0667 277.936 46.88C278.403 47.68 278.636 48.62 278.636 49.7C278.636 50.78 278.403 51.7267 277.936 52.54C277.469 53.3533 276.836 53.9867 276.036 54.44C275.236 54.8933 274.316 55.12 273.276 55.12ZM267.656 55V40.16H269.576V47.22L269.376 49.68L269.496 52.14V55H267.656ZM273.116 53.44C273.796 53.44 274.403 53.2867 274.936 52.98C275.483 52.6733 275.909 52.24 276.216 51.68C276.536 51.1067 276.696 50.4467 276.696 49.7C276.696 48.94 276.536 48.2867 276.216 47.74C275.909 47.18 275.483 46.7467 274.936 46.44C274.403 46.1333 273.796 45.98 273.116 45.98C272.449 45.98 271.843 46.1333 271.296 46.44C270.763 46.7467 270.336 47.18 270.016 47.74C269.709 48.2867 269.556 48.94 269.556 49.7C269.556 50.4467 269.709 51.1067 270.016 51.68C270.336 52.24 270.763 52.6733 271.296 52.98C271.843 53.2867 272.449 53.44 273.116 53.44ZM285.949 44.3C286.815 44.3 287.575 44.4667 288.229 44.8C288.895 45.1333 289.415 45.64 289.789 46.32C290.162 47 290.349 47.86 290.349 48.9V55H288.429V49.12C288.429 48.0933 288.175 47.32 287.669 46.8C287.175 46.28 286.475 46.02 285.569 46.02C284.889 46.02 284.295 46.1533 283.789 46.42C283.282 46.6867 282.889 47.08 282.609 47.6C282.342 48.12 282.209 48.7667 282.209 49.54V55H280.289V40.16H282.209V47.26L281.829 46.5C282.175 45.8067 282.709 45.2667 283.429 44.88C284.149 44.4933 284.989 44.3 285.949 44.3ZM299.482 55V52.76L299.382 52.34V48.52C299.382 47.7067 299.142 47.08 298.662 46.64C298.195 46.1867 297.489 45.96 296.542 45.96C295.915 45.96 295.302 46.0667 294.702 46.28C294.102 46.48 293.595 46.7533 293.182 47.1L292.382 45.66C292.929 45.22 293.582 44.8867 294.342 44.66C295.115 44.42 295.922 44.3 296.762 44.3C298.215 44.3 299.335 44.6533 300.122 45.36C300.909 46.0667 301.302 47.1467 301.302 48.6V55H299.482ZM296.002 55.12C295.215 55.12 294.522 54.9867 293.922 54.72C293.335 54.4533 292.882 54.0867 292.562 53.62C292.242 53.14 292.082 52.6 292.082 52C292.082 51.4267 292.215 50.9067 292.482 50.44C292.762 49.9733 293.209 49.6 293.822 49.32C294.449 49.04 295.289 48.9 296.342 48.9H299.702V50.28H296.422C295.462 50.28 294.815 50.44 294.482 50.76C294.149 51.08 293.982 51.4667 293.982 51.92C293.982 52.44 294.189 52.86 294.602 53.18C295.015 53.4867 295.589 53.64 296.322 53.64C297.042 53.64 297.669 53.48 298.202 53.16C298.749 52.84 299.142 52.3733 299.382 51.76L299.762 53.08C299.509 53.7067 299.062 54.2067 298.422 54.58C297.782 54.94 296.975 55.12 296.002 55.12ZM303.855 55V44.4H305.695V47.28L305.515 46.56C305.808 45.8267 306.302 45.2667 306.995 44.88C307.688 44.4933 308.542 44.3 309.555 44.3V46.16C309.475 46.1467 309.395 46.14 309.315 46.14C309.248 46.14 309.182 46.14 309.115 46.14C308.088 46.14 307.275 46.4467 306.675 47.06C306.075 47.6733 305.775 48.56 305.775 49.72V55H303.855Z" fill="black"/>
<path d="M55.136 171.632H60.896V172.992H55.136V171.632ZM55.28 176.608H61.808V178H53.68V166.8H61.584V168.192H55.28V176.608ZM63.0752 178L66.7232 173.264L66.7072 174.048L63.2352 169.52H64.9472L67.6033 173.008H66.9472L69.6033 169.52H71.2832L67.7632 174.08L67.7793 173.264L71.4593 178H69.7153L66.9152 174.288L67.5392 174.384L64.7872 178H63.0752ZM77.9514 178.096C77.2474 178.096 76.602 177.936 76.0154 177.616C75.4394 177.285 74.9754 176.8 74.6234 176.16C74.282 175.52 74.1114 174.72 74.1114 173.76C74.1114 172.8 74.2767 172 74.6074 171.36C74.9487 170.72 75.4074 170.24 75.9834 169.92C76.57 169.6 77.226 169.44 77.9514 169.44C78.7834 169.44 79.5194 169.621 80.1594 169.984C80.7994 170.347 81.306 170.853 81.6794 171.504C82.0527 172.144 82.2394 172.896 82.2394 173.76C82.2394 174.624 82.0527 175.381 81.6794 176.032C81.306 176.683 80.7994 177.189 80.1594 177.552C79.5194 177.915 78.7834 178.096 77.9514 178.096ZM73.4554 181.104V169.52H74.9274V171.808L74.8314 173.776L74.9914 175.744V181.104H73.4554ZM77.8234 176.752C78.3674 176.752 78.8527 176.629 79.2794 176.384C79.7167 176.139 80.058 175.792 80.3034 175.344C80.5594 174.885 80.6874 174.357 80.6874 173.76C80.6874 173.152 80.5594 172.629 80.3034 172.192C80.058 171.744 79.7167 171.397 79.2794 171.152C78.8527 170.907 78.3674 170.784 77.8234 170.784C77.29 170.784 76.8047 170.907 76.3674 171.152C75.9407 171.397 75.5994 171.744 75.3434 172.192C75.098 172.629 74.9754 173.152 74.9754 173.76C74.9754 174.357 75.098 174.885 75.3434 175.344C75.5994 175.792 75.9407 176.139 76.3674 176.384C76.8047 176.629 77.29 176.752 77.8234 176.752ZM88.4576 178.096C87.551 178.096 86.751 177.909 86.0576 177.536C85.375 177.163 84.8416 176.651 84.4576 176C84.0843 175.349 83.8976 174.603 83.8976 173.76C83.8976 172.917 84.079 172.171 84.4416 171.52C84.815 170.869 85.3216 170.363 85.9616 170C86.6123 169.627 87.343 169.44 88.1536 169.44C88.975 169.44 89.7003 169.621 90.3296 169.984C90.959 170.347 91.4496 170.859 91.8016 171.52C92.1643 172.171 92.3456 172.933 92.3456 173.808C92.3456 173.872 92.3403 173.947 92.3296 174.032C92.3296 174.117 92.3243 174.197 92.3136 174.272H85.0976V173.168H91.5136L90.8896 173.552C90.9003 173.008 90.7883 172.523 90.5536 172.096C90.319 171.669 89.9936 171.339 89.5776 171.104C89.1723 170.859 88.6976 170.736 88.1536 170.736C87.6203 170.736 87.1456 170.859 86.7296 171.104C86.3136 171.339 85.9883 171.675 85.7536 172.112C85.519 172.539 85.4016 173.029 85.4016 173.584V173.84C85.4016 174.405 85.5296 174.912 85.7856 175.36C86.0523 175.797 86.4203 176.139 86.8896 176.384C87.359 176.629 87.8976 176.752 88.5056 176.752C89.007 176.752 89.4603 176.667 89.8656 176.496C90.2816 176.325 90.6443 176.069 90.9536 175.728L91.8016 176.72C91.4176 177.168 90.9376 177.509 90.3616 177.744C89.7963 177.979 89.1616 178.096 88.4576 178.096ZM94.7985 178V169.52H96.2705V171.824L96.1265 171.248C96.3612 170.661 96.7558 170.213 97.3105 169.904C97.8652 169.595 98.5478 169.44 99.3585 169.44V170.928C99.2945 170.917 99.2305 170.912 99.1665 170.912C99.1132 170.912 99.0598 170.912 99.0065 170.912C98.1852 170.912 97.5345 171.157 97.0545 171.648C96.5745 172.139 96.3345 172.848 96.3345 173.776V178H94.7985ZM104.827 178.096C103.974 178.096 103.313 177.867 102.843 177.408C102.374 176.949 102.139 176.293 102.139 175.44V167.664H103.675V175.376C103.675 175.835 103.787 176.187 104.011 176.432C104.246 176.677 104.577 176.8 105.003 176.8C105.483 176.8 105.883 176.667 106.203 176.4L106.683 177.504C106.449 177.707 106.166 177.856 105.835 177.952C105.515 178.048 105.179 178.096 104.827 178.096ZM100.699 170.784V169.52H106.107V170.784H100.699ZM113.477 178V169.52H115.013V178H113.477ZM114.245 167.888C113.947 167.888 113.696 167.792 113.493 167.6C113.301 167.408 113.205 167.173 113.205 166.896C113.205 166.608 113.301 166.368 113.493 166.176C113.696 165.984 113.947 165.888 114.245 165.888C114.544 165.888 114.789 165.984 114.981 166.176C115.184 166.357 115.285 166.587 115.285 166.864C115.285 167.152 115.189 167.397 114.997 167.6C114.805 167.792 114.555 167.888 114.245 167.888ZM122.794 169.44C123.487 169.44 124.095 169.573 124.618 169.84C125.151 170.107 125.567 170.512 125.866 171.056C126.165 171.6 126.314 172.288 126.314 173.12V178H124.778V173.296C124.778 172.475 124.575 171.856 124.17 171.44C123.775 171.024 123.215 170.816 122.49 170.816C121.946 170.816 121.471 170.923 121.066 171.136C120.661 171.349 120.346 171.664 120.122 172.08C119.909 172.496 119.802 173.013 119.802 173.632V178H118.266V169.52H119.738V171.808L119.498 171.2C119.775 170.645 120.202 170.213 120.778 169.904C121.354 169.595 122.026 169.44 122.794 169.44Z" fill="black"/>
<path d="M30 180.12H46V164.12H30V180.12Z" fill="black"/>
<rect x="20" y="202" width="71" height="30" rx="10" fill="#D9D9D9" fill-opacity="0.4"/>
<path d="M38.68 223V211.8H43.048C44.0293 211.8 44.8667 211.955 45.56 212.264C46.2533 212.573 46.7867 213.021 47.16 213.608C47.5333 214.195 47.72 214.893 47.72 215.704C47.72 216.515 47.5333 217.213 47.16 217.8C46.7867 218.376 46.2533 218.824 45.56 219.144C44.8667 219.453 44.0293 219.608 43.048 219.608H39.56L40.28 218.856V223H38.68ZM40.28 219.016L39.56 218.216H43C44.024 218.216 44.7973 217.997 45.32 217.56C45.8533 217.123 46.12 216.504 46.12 215.704C46.12 214.904 45.8533 214.285 45.32 213.848C44.7973 213.411 44.024 213.192 43 213.192H39.56L40.28 212.392V219.016ZM58.4226 211.8H60.0226V223H58.4226V211.8ZM51.9906 223H50.3906V211.8H51.9906V223ZM58.5666 218.008H51.8306V216.616H58.5666V218.008ZM63.695 223V211.8H68.063C69.0443 211.8 69.8817 211.955 70.575 212.264C71.2683 212.573 71.8017 213.021 72.175 213.608C72.5483 214.195 72.735 214.893 72.735 215.704C72.735 216.515 72.5483 217.213 72.175 217.8C71.8017 218.376 71.2683 218.824 70.575 219.144C69.8817 219.453 69.0443 219.608 68.063 219.608H64.575L65.295 218.856V223H63.695ZM65.295 219.016L64.575 218.216H68.015C69.039 218.216 69.8123 217.997 70.335 217.56C70.8683 217.123 71.135 216.504 71.135 215.704C71.135 214.904 70.8683 214.285 70.335 213.848C69.8123 213.411 69.039 213.192 68.015 213.192H64.575L65.295 212.392V219.016Z" fill="black" fill-opacity="0.5"/>
<rect x="20" y="322" width="91" height="30" rx="10" fill="#D9D9D9" fill-opacity="0.4"/>
<path d="M38.68 343V331.8H39.992L47.4 341H46.712V331.8H48.312V343H47L39.592 333.8H40.28V343H38.68ZM55.5364 343.096C54.6297 343.096 53.8297 342.909 53.1364 342.536C52.4537 342.163 51.9204 341.651 51.5364 341C51.163 340.349 50.9764 339.603 50.9764 338.76C50.9764 337.917 51.1577 337.171 51.5204 336.52C51.8937 335.869 52.4004 335.363 53.0404 335C53.691 334.627 54.4217 334.44 55.2324 334.44C56.0537 334.44 56.779 334.621 57.4084 334.984C58.0377 335.347 58.5284 335.859 58.8804 336.52C59.243 337.171 59.4244 337.933 59.4244 338.808C59.4244 338.872 59.419 338.947 59.4084 339.032C59.4084 339.117 59.403 339.197 59.3924 339.272H52.1764V338.168H58.5924L57.9684 338.552C57.979 338.008 57.867 337.523 57.6324 337.096C57.3977 336.669 57.0724 336.339 56.6564 336.104C56.251 335.859 55.7764 335.736 55.2324 335.736C54.699 335.736 54.2244 335.859 53.8084 336.104C53.3924 336.339 53.067 336.675 52.8324 337.112C52.5977 337.539 52.4804 338.029 52.4804 338.584V338.84C52.4804 339.405 52.6084 339.912 52.8644 340.36C53.131 340.797 53.499 341.139 53.9684 341.384C54.4377 341.629 54.9764 341.752 55.5844 341.752C56.0857 341.752 56.539 341.667 56.9444 341.496C57.3604 341.325 57.723 341.069 58.0324 340.728L58.8804 341.72C58.4964 342.168 58.0164 342.509 57.4404 342.744C56.875 342.979 56.2404 343.096 55.5364 343.096ZM60.4109 343L64.0589 338.264L64.0429 339.048L60.5709 334.52H62.2829L64.9389 338.008H64.2829L66.9389 334.52H68.6189L65.0989 339.08L65.1149 338.264L68.7949 343H67.0509L64.2509 339.288L64.8749 339.384L62.1229 343H60.4109ZM73.703 343.096C72.8497 343.096 72.1883 342.867 71.719 342.408C71.2497 341.949 71.015 341.293 71.015 340.44V332.664H72.551V340.376C72.551 340.835 72.663 341.187 72.887 341.432C73.1217 341.677 73.4523 341.8 73.879 341.8C74.359 341.8 74.759 341.667 75.079 341.4L75.559 342.504C75.3243 342.707 75.0417 342.856 74.711 342.952C74.391 343.048 74.055 343.096 73.703 343.096ZM69.575 335.784V334.52H74.983V335.784H69.575ZM78.2602 343.096C77.9616 343.096 77.7056 342.995 77.4922 342.792C77.2789 342.579 77.1722 342.312 77.1722 341.992C77.1722 341.672 77.2789 341.411 77.4922 341.208C77.7056 341.005 77.9616 340.904 78.2602 340.904C78.5482 340.904 78.7936 341.005 78.9962 341.208C79.2096 341.411 79.3162 341.672 79.3162 341.992C79.3162 342.312 79.2096 342.579 78.9962 342.792C78.7936 342.995 78.5482 343.096 78.2602 343.096ZM80.9055 346.2C80.5535 346.2 80.2175 346.157 79.8975 346.072C79.5668 345.987 79.2895 345.859 79.0655 345.688L79.5615 344.504C79.8815 344.771 80.2975 344.904 80.8095 344.904C81.2148 344.904 81.5242 344.776 81.7375 344.52C81.9615 344.275 82.0735 343.907 82.0735 343.416V334.52H83.6095V343.384C83.6095 344.248 83.3748 344.931 82.9055 345.432C82.4468 345.944 81.7802 346.2 80.9055 346.2ZM82.8415 332.888C82.5428 332.888 82.2922 332.792 82.0895 332.6C81.8975 332.408 81.8015 332.173 81.8015 331.896C81.8015 331.608 81.8975 331.368 82.0895 331.176C82.2922 330.984 82.5428 330.888 82.8415 330.888C83.1402 330.888 83.3855 330.984 83.5775 331.176C83.7802 331.357 83.8815 331.587 83.8815 331.864C83.8815 332.152 83.7855 332.397 83.5935 332.6C83.4015 332.792 83.1508 332.888 82.8415 332.888ZM89.2924 343.096C88.5884 343.096 87.9164 343 87.2764 342.808C86.647 342.616 86.151 342.381 85.7884 342.104L86.4284 340.888C86.791 341.133 87.239 341.341 87.7724 341.512C88.3057 341.683 88.8497 341.768 89.4044 341.768C90.119 341.768 90.631 341.667 90.9404 341.464C91.2604 341.261 91.4204 340.979 91.4204 340.616C91.4204 340.349 91.3244 340.141 91.1324 339.992C90.9404 339.843 90.6844 339.731 90.3644 339.656C90.055 339.581 89.7084 339.517 89.3244 339.464C88.9404 339.4 88.5564 339.325 88.1724 339.24C87.7884 339.144 87.4364 339.016 87.1164 338.856C86.7964 338.685 86.5404 338.456 86.3484 338.168C86.1564 337.869 86.0604 337.475 86.0604 336.984C86.0604 336.472 86.2044 336.024 86.4924 335.64C86.7804 335.256 87.1857 334.963 87.7084 334.76C88.2417 334.547 88.871 334.44 89.5964 334.44C90.151 334.44 90.711 334.509 91.2764 334.648C91.8524 334.776 92.3217 334.963 92.6844 335.208L92.0284 336.424C91.6444 336.168 91.2444 335.992 90.8284 335.896C90.4124 335.8 89.9964 335.752 89.5804 335.752C88.9084 335.752 88.407 335.864 88.0764 336.088C87.7457 336.301 87.5804 336.579 87.5804 336.92C87.5804 337.208 87.6764 337.432 87.8684 337.592C88.071 337.741 88.327 337.859 88.6364 337.944C88.9564 338.029 89.3084 338.104 89.6924 338.168C90.0764 338.221 90.4604 338.296 90.8444 338.392C91.2284 338.477 91.575 338.6 91.8844 338.76C92.2044 338.92 92.4604 339.144 92.6524 339.432C92.855 339.72 92.9564 340.104 92.9564 340.584C92.9564 341.096 92.807 341.539 92.5084 341.912C92.2097 342.285 91.7884 342.579 91.2444 342.792C90.7004 342.995 90.0497 343.096 89.2924 343.096Z" fill="black" fill-opacity="0.5"/>
<rect x="20" y="282" width="194" height="30" rx="10" fill="#D9D9D9" fill-opacity="0.4"/>
<path d="M38.68 303V291.8H43.048C44.0293 291.8 44.8667 291.955 45.56 292.264C46.2533 292.573 46.7867 293.021 47.16 293.608C47.5333 294.195 47.72 294.893 47.72 295.704C47.72 296.515 47.5333 297.213 47.16 297.8C46.7867 298.376 46.2533 298.819 45.56 299.128C44.8667 299.437 44.0293 299.592 43.048 299.592H39.56L40.28 298.856V303H38.68ZM46.168 303L43.32 298.936H45.032L47.912 303H46.168ZM40.28 299.016L39.56 298.232H43C44.024 298.232 44.7973 298.013 45.32 297.576C45.8533 297.128 46.12 296.504 46.12 295.704C46.12 294.904 45.8533 294.285 45.32 293.848C44.7973 293.411 44.024 293.192 43 293.192H39.56L40.28 292.392V299.016ZM54.177 303.096C53.2703 303.096 52.4703 302.909 51.777 302.536C51.0943 302.163 50.561 301.651 50.177 301C49.8037 300.349 49.617 299.603 49.617 298.76C49.617 297.917 49.7983 297.171 50.161 296.52C50.5343 295.869 51.041 295.363 51.681 295C52.3317 294.627 53.0623 294.44 53.873 294.44C54.6943 294.44 55.4197 294.621 56.049 294.984C56.6783 295.347 57.169 295.859 57.521 296.52C57.8837 297.171 58.065 297.933 58.065 298.808C58.065 298.872 58.0597 298.947 58.049 299.032C58.049 299.117 58.0437 299.197 58.033 299.272H50.817V298.168H57.233L56.609 298.552C56.6197 298.008 56.5077 297.523 56.273 297.096C56.0383 296.669 55.713 296.339 55.297 296.104C54.8917 295.859 54.417 295.736 53.873 295.736C53.3397 295.736 52.865 295.859 52.449 296.104C52.033 296.339 51.7077 296.675 51.473 297.112C51.2383 297.539 51.121 298.029 51.121 298.584V298.84C51.121 299.405 51.249 299.912 51.505 300.36C51.7717 300.797 52.1397 301.139 52.609 301.384C53.0783 301.629 53.617 301.752 54.225 301.752C54.7263 301.752 55.1797 301.667 55.585 301.496C56.001 301.325 56.3637 301.069 56.673 300.728L57.521 301.72C57.137 302.168 56.657 302.509 56.081 302.744C55.5157 302.979 54.881 303.096 54.177 303.096ZM62.9499 303.096C62.2459 303.096 61.5739 303 60.9339 302.808C60.3045 302.616 59.8085 302.381 59.4459 302.104L60.0859 300.888C60.4485 301.133 60.8965 301.341 61.4299 301.512C61.9632 301.683 62.5072 301.768 63.0619 301.768C63.7765 301.768 64.2885 301.667 64.5979 301.464C64.9179 301.261 65.0779 300.979 65.0779 300.616C65.0779 300.349 64.9819 300.141 64.7899 299.992C64.5979 299.843 64.3419 299.731 64.0219 299.656C63.7125 299.581 63.3659 299.517 62.9819 299.464C62.5979 299.4 62.2139 299.325 61.8299 299.24C61.4459 299.144 61.0939 299.016 60.7739 298.856C60.4539 298.685 60.1979 298.456 60.0059 298.168C59.8139 297.869 59.7179 297.475 59.7179 296.984C59.7179 296.472 59.8619 296.024 60.1499 295.64C60.4379 295.256 60.8432 294.963 61.3659 294.76C61.8992 294.547 62.5285 294.44 63.2539 294.44C63.8085 294.44 64.3685 294.509 64.9339 294.648C65.5099 294.776 65.9792 294.963 66.3419 295.208L65.6859 296.424C65.3019 296.168 64.9019 295.992 64.4859 295.896C64.0699 295.8 63.6539 295.752 63.2379 295.752C62.5659 295.752 62.0645 295.864 61.7339 296.088C61.4032 296.301 61.2379 296.579 61.2379 296.92C61.2379 297.208 61.3339 297.432 61.5259 297.592C61.7285 297.741 61.9845 297.859 62.2939 297.944C62.6139 298.029 62.9659 298.104 63.3499 298.168C63.7339 298.221 64.1179 298.296 64.5019 298.392C64.8859 298.477 65.2325 298.6 65.5419 298.76C65.8619 298.92 66.1179 299.144 66.3099 299.432C66.5125 299.72 66.6139 300.104 66.6139 300.584C66.6139 301.096 66.4645 301.539 66.1659 301.912C65.8672 302.285 65.4459 302.579 64.9019 302.792C64.3579 302.995 63.7072 303.096 62.9499 303.096ZM73.3495 303.096C72.6455 303.096 72.0002 302.936 71.4135 302.616C70.8375 302.285 70.3735 301.8 70.0215 301.16C69.6802 300.52 69.5095 299.72 69.5095 298.76C69.5095 297.8 69.6748 297 70.0055 296.36C70.3468 295.72 70.8055 295.24 71.3815 294.92C71.9682 294.6 72.6242 294.44 73.3495 294.44C74.1815 294.44 74.9175 294.621 75.5575 294.984C76.1975 295.347 76.7042 295.853 77.0775 296.504C77.4508 297.144 77.6375 297.896 77.6375 298.76C77.6375 299.624 77.4508 300.381 77.0775 301.032C76.7042 301.683 76.1975 302.189 75.5575 302.552C74.9175 302.915 74.1815 303.096 73.3495 303.096ZM68.8535 306.104V294.52H70.3255V296.808L70.2295 298.776L70.3895 300.744V306.104H68.8535ZM73.2215 301.752C73.7655 301.752 74.2508 301.629 74.6775 301.384C75.1148 301.139 75.4562 300.792 75.7015 300.344C75.9575 299.885 76.0855 299.357 76.0855 298.76C76.0855 298.152 75.9575 297.629 75.7015 297.192C75.4562 296.744 75.1148 296.397 74.6775 296.152C74.2508 295.907 73.7655 295.784 73.2215 295.784C72.6882 295.784 72.2028 295.907 71.7655 296.152C71.3388 296.397 70.9975 296.744 70.7415 297.192C70.4962 297.629 70.3735 298.152 70.3735 298.76C70.3735 299.357 70.4962 299.885 70.7415 300.344C70.9975 300.792 71.3388 301.139 71.7655 301.384C72.2028 301.629 72.6882 301.752 73.2215 301.752ZM83.7117 303.096C82.8584 303.096 82.1011 302.909 81.4397 302.536C80.7784 302.163 80.2557 301.651 79.8717 301C79.4877 300.339 79.2957 299.592 79.2957 298.76C79.2957 297.917 79.4877 297.171 79.8717 296.52C80.2557 295.869 80.7784 295.363 81.4397 295C82.1011 294.627 82.8584 294.44 83.7117 294.44C84.5544 294.44 85.3064 294.627 85.9677 295C86.6397 295.363 87.1624 295.869 87.5357 296.52C87.9197 297.16 88.1117 297.907 88.1117 298.76C88.1117 299.603 87.9197 300.349 87.5357 301C87.1624 301.651 86.6397 302.163 85.9677 302.536C85.3064 302.909 84.5544 303.096 83.7117 303.096ZM83.7117 301.752C84.2557 301.752 84.7411 301.629 85.1677 301.384C85.6051 301.139 85.9464 300.792 86.1917 300.344C86.4371 299.885 86.5597 299.357 86.5597 298.76C86.5597 298.152 86.4371 297.629 86.1917 297.192C85.9464 296.744 85.6051 296.397 85.1677 296.152C84.7411 295.907 84.2557 295.784 83.7117 295.784C83.1677 295.784 82.6824 295.907 82.2557 296.152C81.8291 296.397 81.4877 296.744 81.2317 297.192C80.9757 297.629 80.8477 298.152 80.8477 298.76C80.8477 299.357 80.9757 299.885 81.2317 300.344C81.4877 300.792 81.8291 301.139 82.2557 301.384C82.6824 301.629 83.1677 301.752 83.7117 301.752ZM95.084 294.44C95.7773 294.44 96.3853 294.573 96.908 294.84C97.4413 295.107 97.8573 295.512 98.156 296.056C98.4547 296.6 98.604 297.288 98.604 298.12V303H97.068V298.296C97.068 297.475 96.8653 296.856 96.46 296.44C96.0653 296.024 95.5053 295.816 94.78 295.816C94.236 295.816 93.7613 295.923 93.356 296.136C92.9507 296.349 92.636 296.664 92.412 297.08C92.1987 297.496 92.092 298.013 92.092 298.632V303H90.556V294.52H92.028V296.808L91.788 296.2C92.0653 295.645 92.492 295.213 93.068 294.904C93.644 294.595 94.316 294.44 95.084 294.44ZM104.199 303.096C103.495 303.096 102.823 303 102.183 302.808C101.553 302.616 101.057 302.381 100.695 302.104L101.335 300.888C101.697 301.133 102.145 301.341 102.679 301.512C103.212 301.683 103.756 301.768 104.311 301.768C105.025 301.768 105.537 301.667 105.847 301.464C106.167 301.261 106.327 300.979 106.327 300.616C106.327 300.349 106.231 300.141 106.039 299.992C105.847 299.843 105.591 299.731 105.271 299.656C104.961 299.581 104.615 299.517 104.231 299.464C103.847 299.4 103.463 299.325 103.079 299.24C102.695 299.144 102.343 299.016 102.023 298.856C101.703 298.685 101.447 298.456 101.255 298.168C101.063 297.869 100.967 297.475 100.967 296.984C100.967 296.472 101.111 296.024 101.399 295.64C101.687 295.256 102.092 294.963 102.615 294.76C103.148 294.547 103.777 294.44 104.503 294.44C105.057 294.44 105.617 294.509 106.183 294.648C106.759 294.776 107.228 294.963 107.591 295.208L106.935 296.424C106.551 296.168 106.151 295.992 105.735 295.896C105.319 295.8 104.903 295.752 104.487 295.752C103.815 295.752 103.313 295.864 102.983 296.088C102.652 296.301 102.487 296.579 102.487 296.92C102.487 297.208 102.583 297.432 102.775 297.592C102.977 297.741 103.233 297.859 103.543 297.944C103.863 298.029 104.215 298.104 104.599 298.168C104.983 298.221 105.367 298.296 105.751 298.392C106.135 298.477 106.481 298.6 106.791 298.76C107.111 298.92 107.367 299.144 107.559 299.432C107.761 299.72 107.863 300.104 107.863 300.584C107.863 301.096 107.713 301.539 107.415 301.912C107.116 302.285 106.695 302.579 106.151 302.792C105.607 302.995 104.956 303.096 104.199 303.096ZM110.102 303V294.52H111.638V303H110.102ZM110.87 292.888C110.572 292.888 110.321 292.792 110.118 292.6C109.926 292.408 109.83 292.173 109.83 291.896C109.83 291.608 109.926 291.368 110.118 291.176C110.321 290.984 110.572 290.888 110.87 290.888C111.169 290.888 111.414 290.984 111.606 291.176C111.809 291.357 111.91 291.587 111.91 291.864C111.91 292.152 111.814 292.397 111.622 292.6C111.43 292.792 111.18 292.888 110.87 292.888ZM117.115 303L113.403 294.52H115.003L118.299 302.2H117.531L120.891 294.52H122.395L118.683 303H117.115ZM127.69 303.096C126.783 303.096 125.983 302.909 125.29 302.536C124.607 302.163 124.074 301.651 123.69 301C123.317 300.349 123.13 299.603 123.13 298.76C123.13 297.917 123.311 297.171 123.674 296.52C124.047 295.869 124.554 295.363 125.194 295C125.845 294.627 126.575 294.44 127.386 294.44C128.207 294.44 128.933 294.621 129.562 294.984C130.191 295.347 130.682 295.859 131.034 296.52C131.397 297.171 131.578 297.933 131.578 298.808C131.578 298.872 131.573 298.947 131.562 299.032C131.562 299.117 131.557 299.197 131.546 299.272H124.33V298.168H130.746L130.122 298.552C130.133 298.008 130.021 297.523 129.786 297.096C129.551 296.669 129.226 296.339 128.81 296.104C128.405 295.859 127.93 295.736 127.386 295.736C126.853 295.736 126.378 295.859 125.962 296.104C125.546 296.339 125.221 296.675 124.986 297.112C124.751 297.539 124.634 298.029 124.634 298.584V298.84C124.634 299.405 124.762 299.912 125.018 300.36C125.285 300.797 125.653 301.139 126.122 301.384C126.591 301.629 127.13 301.752 127.738 301.752C128.239 301.752 128.693 301.667 129.098 301.496C129.514 301.325 129.877 301.069 130.186 300.728L131.034 301.72C130.65 302.168 130.17 302.509 129.594 302.744C129.029 302.979 128.394 303.096 127.69 303.096ZM138.872 303V291.8H143.592C144.787 291.8 145.837 292.035 146.744 292.504C147.661 292.973 148.371 293.629 148.872 294.472C149.384 295.315 149.64 296.291 149.64 297.4C149.64 298.509 149.384 299.485 148.872 300.328C148.371 301.171 147.661 301.827 146.744 302.296C145.837 302.765 144.787 303 143.592 303H138.872ZM140.472 301.608H143.496C144.424 301.608 145.224 301.432 145.896 301.08C146.579 300.728 147.107 300.237 147.48 299.608C147.853 298.968 148.04 298.232 148.04 297.4C148.04 296.557 147.853 295.821 147.48 295.192C147.107 294.563 146.579 294.072 145.896 293.72C145.224 293.368 144.424 293.192 143.496 293.192H140.472V301.608ZM155.963 303.096C155.056 303.096 154.256 302.909 153.563 302.536C152.88 302.163 152.347 301.651 151.963 301C151.589 300.349 151.403 299.603 151.403 298.76C151.403 297.917 151.584 297.171 151.947 296.52C152.32 295.869 152.827 295.363 153.467 295C154.117 294.627 154.848 294.44 155.659 294.44C156.48 294.44 157.205 294.621 157.835 294.984C158.464 295.347 158.955 295.859 159.307 296.52C159.669 297.171 159.851 297.933 159.851 298.808C159.851 298.872 159.845 298.947 159.835 299.032C159.835 299.117 159.829 299.197 159.819 299.272H152.603V298.168H159.019L158.395 298.552C158.405 298.008 158.293 297.523 158.059 297.096C157.824 296.669 157.499 296.339 157.083 296.104C156.677 295.859 156.203 295.736 155.659 295.736C155.125 295.736 154.651 295.859 154.235 296.104C153.819 296.339 153.493 296.675 153.259 297.112C153.024 297.539 152.907 298.029 152.907 298.584V298.84C152.907 299.405 153.035 299.912 153.291 300.36C153.557 300.797 153.925 301.139 154.395 301.384C154.864 301.629 155.403 301.752 156.011 301.752C156.512 301.752 156.965 301.667 157.371 301.496C157.787 301.325 158.149 301.069 158.459 300.728L159.307 301.72C158.923 302.168 158.443 302.509 157.867 302.744C157.301 302.979 156.667 303.096 155.963 303.096ZM164.736 303.096C164.032 303.096 163.36 303 162.72 302.808C162.09 302.616 161.594 302.381 161.232 302.104L161.872 300.888C162.234 301.133 162.682 301.341 163.216 301.512C163.749 301.683 164.293 301.768 164.848 301.768C165.562 301.768 166.074 301.667 166.384 301.464C166.704 301.261 166.864 300.979 166.864 300.616C166.864 300.349 166.768 300.141 166.576 299.992C166.384 299.843 166.128 299.731 165.808 299.656C165.498 299.581 165.152 299.517 164.768 299.464C164.384 299.4 164 299.325 163.616 299.24C163.232 299.144 162.88 299.016 162.56 298.856C162.24 298.685 161.984 298.456 161.792 298.168C161.6 297.869 161.504 297.475 161.504 296.984C161.504 296.472 161.648 296.024 161.936 295.64C162.224 295.256 162.629 294.963 163.152 294.76C163.685 294.547 164.314 294.44 165.04 294.44C165.594 294.44 166.154 294.509 166.72 294.648C167.296 294.776 167.765 294.963 168.128 295.208L167.472 296.424C167.088 296.168 166.688 295.992 166.272 295.896C165.856 295.8 165.44 295.752 165.024 295.752C164.352 295.752 163.85 295.864 163.52 296.088C163.189 296.301 163.024 296.579 163.024 296.92C163.024 297.208 163.12 297.432 163.312 297.592C163.514 297.741 163.77 297.859 164.08 297.944C164.4 298.029 164.752 298.104 165.136 298.168C165.52 298.221 165.904 298.296 166.288 298.392C166.672 298.477 167.018 298.6 167.328 298.76C167.648 298.92 167.904 299.144 168.096 299.432C168.298 299.72 168.4 300.104 168.4 300.584C168.4 301.096 168.25 301.539 167.952 301.912C167.653 302.285 167.232 302.579 166.688 302.792C166.144 302.995 165.493 303.096 164.736 303.096ZM170.639 303V294.52H172.175V303H170.639ZM171.407 292.888C171.108 292.888 170.858 292.792 170.655 292.6C170.463 292.408 170.367 292.173 170.367 291.896C170.367 291.608 170.463 291.368 170.655 291.176C170.858 290.984 171.108 290.888 171.407 290.888C171.706 290.888 171.951 290.984 172.143 291.176C172.346 291.357 172.447 291.587 172.447 291.864C172.447 292.152 172.351 292.397 172.159 292.6C171.967 292.792 171.716 292.888 171.407 292.888ZM179.14 306.2C178.361 306.2 177.604 306.088 176.868 305.864C176.143 305.651 175.551 305.341 175.092 304.936L175.828 303.752C176.223 304.093 176.708 304.36 177.284 304.552C177.86 304.755 178.463 304.856 179.092 304.856C180.095 304.856 180.831 304.621 181.3 304.152C181.769 303.683 182.004 302.968 182.004 302.008V300.216L182.164 298.536L182.084 296.84V294.52H183.54V301.848C183.54 303.341 183.167 304.44 182.42 305.144C181.673 305.848 180.58 306.2 179.14 306.2ZM178.948 302.648C178.127 302.648 177.391 302.477 176.74 302.136C176.1 301.784 175.588 301.299 175.204 300.68C174.831 300.061 174.644 299.347 174.644 298.536C174.644 297.715 174.831 297 175.204 296.392C175.588 295.773 176.1 295.293 176.74 294.952C177.391 294.611 178.127 294.44 178.948 294.44C179.673 294.44 180.335 294.589 180.932 294.888C181.529 295.176 182.004 295.624 182.356 296.232C182.719 296.84 182.9 297.608 182.9 298.536C182.9 299.453 182.719 300.216 182.356 300.824C182.004 301.432 181.529 301.891 180.932 302.2C180.335 302.499 179.673 302.648 178.948 302.648ZM179.124 301.304C179.689 301.304 180.191 301.187 180.628 300.952C181.065 300.717 181.407 300.392 181.652 299.976C181.908 299.56 182.036 299.08 182.036 298.536C182.036 297.992 181.908 297.512 181.652 297.096C181.407 296.68 181.065 296.36 180.628 296.136C180.191 295.901 179.689 295.784 179.124 295.784C178.559 295.784 178.052 295.901 177.604 296.136C177.167 296.36 176.82 296.68 176.564 297.096C176.319 297.512 176.196 297.992 176.196 298.536C176.196 299.08 176.319 299.56 176.564 299.976C176.82 300.392 177.167 300.717 177.604 300.952C178.052 301.187 178.559 301.304 179.124 301.304ZM191.323 294.44C192.016 294.44 192.624 294.573 193.147 294.84C193.68 295.107 194.096 295.512 194.395 296.056C194.693 296.6 194.843 297.288 194.843 298.12V303H193.307V298.296C193.307 297.475 193.104 296.856 192.699 296.44C192.304 296.024 191.744 295.816 191.019 295.816C190.475 295.816 190 295.923 189.595 296.136C189.189 296.349 188.875 296.664 188.651 297.08C188.437 297.496 188.331 298.013 188.331 298.632V303H186.795V294.52H188.267V296.808L188.027 296.2C188.304 295.645 188.731 295.213 189.307 294.904C189.883 294.595 190.555 294.44 191.323 294.44Z" fill="black" fill-opacity="0.5"/>
<rect x="20" y="242" width="82" height="30" rx="10" fill="#D9D9D9" fill-opacity="0.4"/>
<path d="M38.68 263V251.8H43.048C44.0293 251.8 44.8667 251.955 45.56 252.264C46.2533 252.573 46.7867 253.021 47.16 253.608C47.5333 254.195 47.72 254.893 47.72 255.704C47.72 256.515 47.5333 257.213 47.16 257.8C46.7867 258.376 46.2533 258.819 45.56 259.128C44.8667 259.437 44.0293 259.592 43.048 259.592H39.56L40.28 258.856V263H38.68ZM46.168 263L43.32 258.936H45.032L47.912 263H46.168ZM40.28 259.016L39.56 258.232H43C44.024 258.232 44.7973 258.013 45.32 257.576C45.8533 257.128 46.12 256.504 46.12 255.704C46.12 254.904 45.8533 254.285 45.32 253.848C44.7973 253.411 44.024 253.192 43 253.192H39.56L40.28 252.392V259.016ZM54.177 263.096C53.2703 263.096 52.4703 262.909 51.777 262.536C51.0943 262.163 50.561 261.651 50.177 261C49.8037 260.349 49.617 259.603 49.617 258.76C49.617 257.917 49.7983 257.171 50.161 256.52C50.5343 255.869 51.041 255.363 51.681 255C52.3317 254.627 53.0623 254.44 53.873 254.44C54.6943 254.44 55.4197 254.621 56.049 254.984C56.6783 255.347 57.169 255.859 57.521 256.52C57.8837 257.171 58.065 257.933 58.065 258.808C58.065 258.872 58.0597 258.947 58.049 259.032C58.049 259.117 58.0437 259.197 58.033 259.272H50.817V258.168H57.233L56.609 258.552C56.6197 258.008 56.5077 257.523 56.273 257.096C56.0383 256.669 55.713 256.339 55.297 256.104C54.8917 255.859 54.417 255.736 53.873 255.736C53.3397 255.736 52.865 255.859 52.449 256.104C52.033 256.339 51.7077 256.675 51.473 257.112C51.2383 257.539 51.121 258.029 51.121 258.584V258.84C51.121 259.405 51.249 259.912 51.505 260.36C51.7717 260.797 52.1397 261.139 52.609 261.384C53.0783 261.629 53.617 261.752 54.225 261.752C54.7263 261.752 55.1797 261.667 55.585 261.496C56.001 261.325 56.3637 261.069 56.673 260.728L57.521 261.72C57.137 262.168 56.657 262.509 56.081 262.744C55.5157 262.979 54.881 263.096 54.177 263.096ZM65.5475 263V261.208L65.4675 260.872V257.816C65.4675 257.165 65.2755 256.664 64.8915 256.312C64.5182 255.949 63.9528 255.768 63.1955 255.768C62.6942 255.768 62.2035 255.853 61.7235 256.024C61.2435 256.184 60.8382 256.403 60.5075 256.68L59.8675 255.528C60.3048 255.176 60.8275 254.909 61.4355 254.728C62.0542 254.536 62.6995 254.44 63.3715 254.44C64.5342 254.44 65.4302 254.723 66.0595 255.288C66.6888 255.853 67.0035 256.717 67.0035 257.88V263H65.5475ZM62.7635 263.096C62.1342 263.096 61.5795 262.989 61.0995 262.776C60.6302 262.563 60.2675 262.269 60.0115 261.896C59.7555 261.512 59.6275 261.08 59.6275 260.6C59.6275 260.141 59.7342 259.725 59.9475 259.352C60.1715 258.979 60.5288 258.68 61.0195 258.456C61.5208 258.232 62.1928 258.12 63.0355 258.12H65.7235V259.224H63.0995C62.3315 259.224 61.8142 259.352 61.5475 259.608C61.2808 259.864 61.1475 260.173 61.1475 260.536C61.1475 260.952 61.3128 261.288 61.6435 261.544C61.9742 261.789 62.4328 261.912 63.0195 261.912C63.5955 261.912 64.0968 261.784 64.5235 261.528C64.9608 261.272 65.2755 260.899 65.4675 260.408L65.7715 261.464C65.5688 261.965 65.2115 262.365 64.6995 262.664C64.1875 262.952 63.5422 263.096 62.7635 263.096ZM73.862 263.096C72.998 263.096 72.2247 262.909 71.542 262.536C70.87 262.163 70.342 261.651 69.958 261C69.574 260.349 69.382 259.603 69.382 258.76C69.382 257.917 69.574 257.171 69.958 256.52C70.342 255.869 70.87 255.363 71.542 255C72.2247 254.627 72.998 254.44 73.862 254.44C74.63 254.44 75.3127 254.595 75.91 254.904C76.518 255.203 76.9873 255.651 77.318 256.248L76.15 257C75.8727 256.584 75.5313 256.28 75.126 256.088C74.7313 255.885 74.3047 255.784 73.846 255.784C73.2913 255.784 72.7953 255.907 72.358 256.152C71.9207 256.397 71.574 256.744 71.318 257.192C71.062 257.629 70.934 258.152 70.934 258.76C70.934 259.368 71.062 259.896 71.318 260.344C71.574 260.792 71.9207 261.139 72.358 261.384C72.7953 261.629 73.2913 261.752 73.846 261.752C74.3047 261.752 74.7313 261.656 75.126 261.464C75.5313 261.261 75.8727 260.952 76.15 260.536L77.318 261.272C76.9873 261.859 76.518 262.312 75.91 262.632C75.3127 262.941 74.63 263.096 73.862 263.096ZM82.648 263.096C81.7947 263.096 81.1333 262.867 80.664 262.408C80.1947 261.949 79.96 261.293 79.96 260.44V252.664H81.496V260.376C81.496 260.835 81.608 261.187 81.832 261.432C82.0667 261.677 82.3973 261.8 82.824 261.8C83.304 261.8 83.704 261.667 84.024 261.4L84.504 262.504C84.2693 262.707 83.9867 262.856 83.656 262.952C83.336 263.048 83 263.096 82.648 263.096ZM78.52 255.784V254.52H83.928V255.784H78.52Z" fill="black" fill-opacity="0.5"/>
<g filter="url(#filter0_d_429_1603)">
<rect x="20" y="398" width="320" height="47" rx="10" fill="#A3DA86" fill-opacity="0.2" shape-rendering="crispEdges"/>
</g>
<path d="M98.9 429.16C97.06 429.16 95.6133 428.633 94.56 427.58C93.5067 426.527 92.98 424.987 92.98 422.96V415H94.98V422.88C94.98 424.44 95.32 425.58 96 426.3C96.6933 427.02 97.6667 427.38 98.92 427.38C100.187 427.38 101.16 427.02 101.84 426.3C102.533 425.58 102.88 424.44 102.88 422.88V415H104.82V422.96C104.82 424.987 104.293 426.527 103.24 427.58C102.2 428.633 100.753 429.16 98.9 429.16ZM114.66 429.12C113.78 429.12 112.974 428.92 112.24 428.52C111.52 428.107 110.94 427.5 110.5 426.7C110.074 425.9 109.86 424.9 109.86 423.7C109.86 422.5 110.067 421.5 110.48 420.7C110.907 419.9 111.48 419.3 112.2 418.9C112.934 418.5 113.754 418.3 114.66 418.3C115.7 418.3 116.62 418.527 117.42 418.98C118.22 419.433 118.854 420.067 119.32 420.88C119.787 421.68 120.02 422.62 120.02 423.7C120.02 424.78 119.787 425.727 119.32 426.54C118.854 427.353 118.22 427.987 117.42 428.44C116.62 428.893 115.7 429.12 114.66 429.12ZM109.04 432.88V418.4H110.88V421.26L110.76 423.72L110.96 426.18V432.88H109.04ZM114.5 427.44C115.18 427.44 115.787 427.287 116.32 426.98C116.867 426.673 117.294 426.24 117.6 425.68C117.92 425.107 118.08 424.447 118.08 423.7C118.08 422.94 117.92 422.287 117.6 421.74C117.294 421.18 116.867 420.747 116.32 420.44C115.787 420.133 115.18 419.98 114.5 419.98C113.834 419.98 113.227 420.133 112.68 420.44C112.147 420.747 111.72 421.18 111.4 421.74C111.094 422.287 110.94 422.94 110.94 423.7C110.94 424.447 111.094 425.107 111.4 425.68C111.72 426.24 112.147 426.673 112.68 426.98C113.227 427.287 113.834 427.44 114.5 427.44ZM125.02 429L121.08 418.4H122.9L126.4 428H125.54L129.18 418.4H130.8L134.36 428H133.52L137.1 418.4H138.82L134.86 429H133.02L129.68 420.24H130.24L126.86 429H125.02ZM145.415 429.12C144.349 429.12 143.402 428.887 142.575 428.42C141.749 427.953 141.095 427.313 140.615 426.5C140.135 425.673 139.895 424.74 139.895 423.7C139.895 422.647 140.135 421.713 140.615 420.9C141.095 420.087 141.749 419.453 142.575 419C143.402 418.533 144.349 418.3 145.415 418.3C146.469 418.3 147.409 418.533 148.235 419C149.075 419.453 149.729 420.087 150.195 420.9C150.675 421.7 150.915 422.633 150.915 423.7C150.915 424.753 150.675 425.687 150.195 426.5C149.729 427.313 149.075 427.953 148.235 428.42C147.409 428.887 146.469 429.12 145.415 429.12ZM145.415 427.44C146.095 427.44 146.702 427.287 147.235 426.98C147.782 426.673 148.209 426.24 148.515 425.68C148.822 425.107 148.975 424.447 148.975 423.7C148.975 422.94 148.822 422.287 148.515 421.74C148.209 421.18 147.782 420.747 147.235 420.44C146.702 420.133 146.095 419.98 145.415 419.98C144.735 419.98 144.129 420.133 143.595 420.44C143.062 420.747 142.635 421.18 142.315 421.74C141.995 422.287 141.835 422.94 141.835 423.7C141.835 424.447 141.995 425.107 142.315 425.68C142.635 426.24 143.062 426.673 143.595 426.98C144.129 427.287 144.735 427.44 145.415 427.44ZM153.971 429V418.4H155.811V421.28L155.631 420.56C155.924 419.827 156.417 419.267 157.111 418.88C157.804 418.493 158.657 418.3 159.671 418.3V420.16C159.591 420.147 159.511 420.14 159.431 420.14C159.364 420.14 159.297 420.14 159.231 420.14C158.204 420.14 157.391 420.447 156.791 421.06C156.191 421.673 155.891 422.56 155.891 423.72V429H153.971ZM163.997 426.44L164.037 423.98L170.137 418.4H172.457L167.777 423L166.737 423.88L163.997 426.44ZM162.437 429V414.16H164.357V429H162.437ZM170.537 429L166.377 423.84L167.617 422.3L172.897 429H170.537ZM181.213 429V415H186.673C187.899 415 188.946 415.193 189.813 415.58C190.679 415.967 191.346 416.527 191.813 417.26C192.279 417.993 192.513 418.867 192.513 419.88C192.513 420.893 192.279 421.767 191.813 422.5C191.346 423.22 190.679 423.78 189.813 424.18C188.946 424.567 187.899 424.76 186.673 424.76H182.313L183.213 423.82V429H181.213ZM183.213 424.02L182.313 423.02H186.613C187.893 423.02 188.859 422.747 189.513 422.2C190.179 421.653 190.513 420.88 190.513 419.88C190.513 418.88 190.179 418.107 189.513 417.56C188.859 417.013 187.893 416.74 186.613 416.74H182.313L183.213 415.74V424.02ZM200.072 429.12C199.005 429.12 198.058 428.887 197.232 428.42C196.405 427.953 195.752 427.313 195.272 426.5C194.792 425.673 194.552 424.74 194.552 423.7C194.552 422.647 194.792 421.713 195.272 420.9C195.752 420.087 196.405 419.453 197.232 419C198.058 418.533 199.005 418.3 200.072 418.3C201.125 418.3 202.065 418.533 202.892 419C203.732 419.453 204.385 420.087 204.852 420.9C205.332 421.7 205.572 422.633 205.572 423.7C205.572 424.753 205.332 425.687 204.852 426.5C204.385 427.313 203.732 427.953 202.892 428.42C202.065 428.887 201.125 429.12 200.072 429.12ZM200.072 427.44C200.752 427.44 201.358 427.287 201.892 426.98C202.438 426.673 202.865 426.24 203.172 425.68C203.478 425.107 203.632 424.447 203.632 423.7C203.632 422.94 203.478 422.287 203.172 421.74C202.865 421.18 202.438 420.747 201.892 420.44C201.358 420.133 200.752 419.98 200.072 419.98C199.392 419.98 198.785 420.133 198.252 420.44C197.718 420.747 197.292 421.18 196.972 421.74C196.652 422.287 196.492 422.94 196.492 423.7C196.492 424.447 196.652 425.107 196.972 425.68C197.292 426.24 197.718 426.673 198.252 426.98C198.785 427.287 199.392 427.44 200.072 427.44ZM208.627 429V418.4H210.467V421.28L210.287 420.56C210.58 419.827 211.074 419.267 211.767 418.88C212.46 418.493 213.314 418.3 214.327 418.3V420.16C214.247 420.147 214.167 420.14 214.087 420.14C214.02 420.14 213.954 420.14 213.887 420.14C212.86 420.14 212.047 420.447 211.447 421.06C210.847 421.673 210.547 422.56 210.547 423.72V429H208.627ZM221.163 429.12C220.096 429.12 219.27 428.833 218.683 428.26C218.096 427.687 217.803 426.867 217.803 425.8V416.08H219.723V425.72C219.723 426.293 219.863 426.733 220.143 427.04C220.436 427.347 220.85 427.5 221.383 427.5C221.983 427.5 222.483 427.333 222.883 427L223.483 428.38C223.19 428.633 222.836 428.82 222.423 428.94C222.023 429.06 221.603 429.12 221.163 429.12ZM216.003 419.98V418.4H222.763V419.98H216.003ZM226.484 429V417.46C226.484 416.42 226.784 415.593 227.384 414.98C227.998 414.353 228.864 414.04 229.984 414.04C230.398 414.04 230.791 414.093 231.164 414.2C231.551 414.293 231.878 414.447 232.144 414.66L231.564 416.12C231.364 415.96 231.138 415.84 230.884 415.76C230.631 415.667 230.364 415.62 230.084 415.62C229.524 415.62 229.098 415.78 228.804 416.1C228.511 416.407 228.364 416.867 228.364 417.48V418.9L228.404 419.78V429H226.484ZM224.684 419.98V418.4H231.444V419.98H224.684ZM238.039 429.12C236.972 429.12 236.026 428.887 235.199 428.42C234.372 427.953 233.719 427.313 233.239 426.5C232.759 425.673 232.519 424.74 232.519 423.7C232.519 422.647 232.759 421.713 233.239 420.9C233.719 420.087 234.372 419.453 235.199 419C236.026 418.533 236.972 418.3 238.039 418.3C239.092 418.3 240.032 418.533 240.859 419C241.699 419.453 242.352 420.087 242.819 420.9C243.299 421.7 243.539 422.633 243.539 423.7C243.539 424.753 243.299 425.687 242.819 426.5C242.352 427.313 241.699 427.953 240.859 428.42C240.032 428.887 239.092 429.12 238.039 429.12ZM238.039 427.44C238.719 427.44 239.326 427.287 239.859 426.98C240.406 426.673 240.832 426.24 241.139 425.68C241.446 425.107 241.599 424.447 241.599 423.7C241.599 422.94 241.446 422.287 241.139 421.74C240.832 421.18 240.406 420.747 239.859 420.44C239.326 420.133 238.719 419.98 238.039 419.98C237.359 419.98 236.752 420.133 236.219 420.44C235.686 420.747 235.259 421.18 234.939 421.74C234.619 422.287 234.459 422.94 234.459 423.7C234.459 424.447 234.619 425.107 234.939 425.68C235.259 426.24 235.686 426.673 236.219 426.98C236.752 427.287 237.359 427.44 238.039 427.44ZM246.594 429V414.16H248.514V429H246.594ZM252.58 429V418.4H254.5V429H252.58ZM253.54 416.36C253.167 416.36 252.853 416.24 252.6 416C252.36 415.76 252.24 415.467 252.24 415.12C252.24 414.76 252.36 414.46 252.6 414.22C252.853 413.98 253.167 413.86 253.54 413.86C253.913 413.86 254.22 413.98 254.46 414.22C254.713 414.447 254.84 414.733 254.84 415.08C254.84 415.44 254.72 415.747 254.48 416C254.24 416.24 253.927 416.36 253.54 416.36ZM263.106 429.12C262.039 429.12 261.093 428.887 260.266 428.42C259.439 427.953 258.786 427.313 258.306 426.5C257.826 425.673 257.586 424.74 257.586 423.7C257.586 422.647 257.826 421.713 258.306 420.9C258.786 420.087 259.439 419.453 260.266 419C261.093 418.533 262.039 418.3 263.106 418.3C264.159 418.3 265.099 418.533 265.926 419C266.766 419.453 267.419 420.087 267.886 420.9C268.366 421.7 268.606 422.633 268.606 423.7C268.606 424.753 268.366 425.687 267.886 426.5C267.419 427.313 266.766 427.953 265.926 428.42C265.099 428.887 264.159 429.12 263.106 429.12ZM263.106 427.44C263.786 427.44 264.393 427.287 264.926 426.98C265.473 426.673 265.899 426.24 266.206 425.68C266.513 425.107 266.666 424.447 266.666 423.7C266.666 422.94 266.513 422.287 266.206 421.74C265.899 421.18 265.473 420.747 264.926 420.44C264.393 420.133 263.786 419.98 263.106 419.98C262.426 419.98 261.819 420.133 261.286 420.44C260.753 420.747 260.326 421.18 260.006 421.74C259.686 422.287 259.526 422.94 259.526 423.7C259.526 424.447 259.686 425.107 260.006 425.68C260.326 426.24 260.753 426.673 261.286 426.98C261.819 427.287 262.426 427.44 263.106 427.44Z" fill="#3F6D26"/>
<rect x="101" y="202" width="74" height="30" rx="10" fill="#D9D9D9" fill-opacity="0.4"/>
<path d="M122.944 223.128C122.091 223.128 121.275 223 120.496 222.744C119.717 222.477 119.104 222.136 118.656 221.72L119.248 220.472C119.675 220.845 120.219 221.155 120.88 221.4C121.541 221.645 122.229 221.768 122.944 221.768C123.595 221.768 124.123 221.693 124.528 221.544C124.933 221.395 125.232 221.192 125.424 220.936C125.616 220.669 125.712 220.371 125.712 220.04C125.712 219.656 125.584 219.347 125.328 219.112C125.083 218.877 124.757 218.691 124.352 218.552C123.957 218.403 123.52 218.275 123.04 218.168C122.56 218.061 122.075 217.939 121.584 217.8C121.104 217.651 120.661 217.464 120.256 217.24C119.861 217.016 119.541 216.717 119.296 216.344C119.051 215.96 118.928 215.469 118.928 214.872C118.928 214.296 119.077 213.768 119.376 213.288C119.685 212.797 120.155 212.408 120.784 212.12C121.424 211.821 122.235 211.672 123.216 211.672C123.867 211.672 124.512 211.757 125.152 211.928C125.792 212.099 126.347 212.344 126.816 212.664L126.288 213.944C125.808 213.624 125.301 213.395 124.768 213.256C124.235 213.107 123.717 213.032 123.216 213.032C122.587 213.032 122.069 213.112 121.664 213.272C121.259 213.432 120.96 213.645 120.768 213.912C120.587 214.179 120.496 214.477 120.496 214.808C120.496 215.203 120.619 215.517 120.864 215.752C121.12 215.987 121.445 216.173 121.84 216.312C122.245 216.451 122.688 216.579 123.168 216.696C123.648 216.803 124.128 216.925 124.608 217.064C125.099 217.203 125.541 217.384 125.936 217.608C126.341 217.832 126.667 218.131 126.912 218.504C127.157 218.877 127.28 219.357 127.28 219.944C127.28 220.509 127.125 221.037 126.816 221.528C126.507 222.008 126.027 222.397 125.376 222.696C124.736 222.984 123.925 223.128 122.944 223.128ZM134.977 223V221.208L134.898 220.872V217.816C134.898 217.165 134.705 216.664 134.321 216.312C133.948 215.949 133.383 215.768 132.625 215.768C132.124 215.768 131.633 215.853 131.153 216.024C130.673 216.184 130.268 216.403 129.937 216.68L129.297 215.528C129.735 215.176 130.257 214.909 130.865 214.728C131.484 214.536 132.129 214.44 132.801 214.44C133.964 214.44 134.86 214.723 135.49 215.288C136.119 215.853 136.434 216.717 136.434 217.88V223H134.977ZM132.193 223.096C131.564 223.096 131.009 222.989 130.529 222.776C130.06 222.563 129.697 222.269 129.441 221.896C129.185 221.512 129.057 221.08 129.057 220.6C129.057 220.141 129.164 219.725 129.377 219.352C129.601 218.979 129.959 218.68 130.449 218.456C130.951 218.232 131.623 218.12 132.465 218.12H135.154V219.224H132.53C131.761 219.224 131.244 219.352 130.977 219.608C130.711 219.864 130.577 220.173 130.577 220.536C130.577 220.952 130.743 221.288 131.073 221.544C131.404 221.789 131.863 221.912 132.45 221.912C133.025 221.912 133.527 221.784 133.953 221.528C134.391 221.272 134.705 220.899 134.898 220.408L135.201 221.464C134.999 221.965 134.641 222.365 134.129 222.664C133.617 222.952 132.972 223.096 132.193 223.096ZM144.86 223V221.208L144.78 220.872V217.816C144.78 217.165 144.588 216.664 144.204 216.312C143.831 215.949 143.265 215.768 142.508 215.768C142.007 215.768 141.516 215.853 141.036 216.024C140.556 216.184 140.151 216.403 139.82 216.68L139.18 215.528C139.617 215.176 140.14 214.909 140.748 214.728C141.367 214.536 142.012 214.44 142.684 214.44C143.847 214.44 144.743 214.723 145.372 215.288C146.001 215.853 146.316 216.717 146.316 217.88V223H144.86ZM142.076 223.096C141.447 223.096 140.892 222.989 140.412 222.776C139.943 222.563 139.58 222.269 139.324 221.896C139.068 221.512 138.94 221.08 138.94 220.6C138.94 220.141 139.047 219.725 139.26 219.352C139.484 218.979 139.841 218.68 140.332 218.456C140.833 218.232 141.505 218.12 142.348 218.12H145.036V219.224H142.412C141.644 219.224 141.127 219.352 140.86 219.608C140.593 219.864 140.46 220.173 140.46 220.536C140.46 220.952 140.625 221.288 140.956 221.544C141.287 221.789 141.745 221.912 142.332 221.912C142.908 221.912 143.409 221.784 143.836 221.528C144.273 221.272 144.588 220.899 144.78 220.408L145.084 221.464C144.881 221.965 144.524 222.365 144.012 222.664C143.5 222.952 142.855 223.096 142.076 223.096ZM152.966 223.128C152.113 223.128 151.297 223 150.518 222.744C149.74 222.477 149.126 222.136 148.678 221.72L149.27 220.472C149.697 220.845 150.241 221.155 150.902 221.4C151.564 221.645 152.252 221.768 152.966 221.768C153.617 221.768 154.145 221.693 154.55 221.544C154.956 221.395 155.254 221.192 155.446 220.936C155.638 220.669 155.734 220.371 155.734 220.04C155.734 219.656 155.606 219.347 155.35 219.112C155.105 218.877 154.78 218.691 154.374 218.552C153.98 218.403 153.542 218.275 153.062 218.168C152.582 218.061 152.097 217.939 151.606 217.8C151.126 217.651 150.684 217.464 150.278 217.24C149.884 217.016 149.564 216.717 149.318 216.344C149.073 215.96 148.95 215.469 148.95 214.872C148.95 214.296 149.1 213.768 149.398 213.288C149.708 212.797 150.177 212.408 150.806 212.12C151.446 211.821 152.257 211.672 153.238 211.672C153.889 211.672 154.534 211.757 155.174 211.928C155.814 212.099 156.369 212.344 156.838 212.664L156.31 213.944C155.83 213.624 155.324 213.395 154.79 213.256C154.257 213.107 153.74 213.032 153.238 213.032C152.609 213.032 152.092 213.112 151.686 213.272C151.281 213.432 150.982 213.645 150.79 213.912C150.609 214.179 150.518 214.477 150.518 214.808C150.518 215.203 150.641 215.517 150.886 215.752C151.142 215.987 151.468 216.173 151.862 216.312C152.268 216.451 152.71 216.579 153.19 216.696C153.67 216.803 154.15 216.925 154.63 217.064C155.121 217.203 155.564 217.384 155.958 217.608C156.364 217.832 156.689 218.131 156.934 218.504C157.18 218.877 157.302 219.357 157.302 219.944C157.302 220.509 157.148 221.037 156.838 221.528C156.529 222.008 156.049 222.397 155.398 222.696C154.758 222.984 153.948 223.128 152.966 223.128Z" fill="black" fill-opacity="0.5"/>
<rect x="185" y="202" width="94" height="30" rx="10" fill="#D9D9D9" fill-opacity="0.4"/>
<path d="M203.68 223V211.8H205.28V221.608H211.344V223H203.68ZM218.54 223V221.208L218.46 220.872V217.816C218.46 217.165 218.268 216.664 217.884 216.312C217.511 215.949 216.945 215.768 216.188 215.768C215.687 215.768 215.196 215.853 214.716 216.024C214.236 216.184 213.831 216.403 213.5 216.68L212.86 215.528C213.297 215.176 213.82 214.909 214.428 214.728C215.047 214.536 215.692 214.44 216.364 214.44C217.527 214.44 218.423 214.723 219.052 215.288C219.681 215.853 219.996 216.717 219.996 217.88V223H218.54ZM215.756 223.096C215.127 223.096 214.572 222.989 214.092 222.776C213.623 222.563 213.26 222.269 213.004 221.896C212.748 221.512 212.62 221.08 212.62 220.6C212.62 220.141 212.727 219.725 212.94 219.352C213.164 218.979 213.521 218.68 214.012 218.456C214.513 218.232 215.185 218.12 216.028 218.12H218.716V219.224H216.092C215.324 219.224 214.807 219.352 214.54 219.608C214.273 219.864 214.14 220.173 214.14 220.536C214.14 220.952 214.305 221.288 214.636 221.544C214.967 221.789 215.425 221.912 216.012 221.912C216.588 221.912 217.089 221.784 217.516 221.528C217.953 221.272 218.268 220.899 218.46 220.408L218.764 221.464C218.561 221.965 218.204 222.365 217.692 222.664C217.18 222.952 216.535 223.096 215.756 223.096ZM223.158 223V214.52H224.63V216.824L224.486 216.248C224.721 215.661 225.116 215.213 225.67 214.904C226.225 214.595 226.908 214.44 227.718 214.44V215.928C227.654 215.917 227.59 215.912 227.526 215.912C227.473 215.912 227.42 215.912 227.366 215.912C226.545 215.912 225.894 216.157 225.414 216.648C224.934 217.139 224.694 217.848 224.694 218.776V223H223.158ZM234.571 223V221.208L234.491 220.872V217.816C234.491 217.165 234.299 216.664 233.915 216.312C233.541 215.949 232.976 215.768 232.219 215.768C231.717 215.768 231.227 215.853 230.747 216.024C230.267 216.184 229.861 216.403 229.531 216.68L228.891 215.528C229.328 215.176 229.851 214.909 230.459 214.728C231.077 214.536 231.723 214.44 232.395 214.44C233.557 214.44 234.453 214.723 235.083 215.288C235.712 215.853 236.027 216.717 236.027 217.88V223H234.571ZM231.787 223.096C231.157 223.096 230.603 222.989 230.123 222.776C229.653 222.563 229.291 222.269 229.035 221.896C228.779 221.512 228.651 221.08 228.651 220.6C228.651 220.141 228.757 219.725 228.971 219.352C229.195 218.979 229.552 218.68 230.043 218.456C230.544 218.232 231.216 218.12 232.059 218.12H234.747V219.224H232.123C231.355 219.224 230.837 219.352 230.571 219.608C230.304 219.864 230.171 220.173 230.171 220.536C230.171 220.952 230.336 221.288 230.667 221.544C230.997 221.789 231.456 221.912 232.043 221.912C232.619 221.912 233.12 221.784 233.547 221.528C233.984 221.272 234.299 220.899 234.491 220.408L234.795 221.464C234.592 221.965 234.235 222.365 233.723 222.664C233.211 222.952 232.565 223.096 231.787 223.096ZM241.257 223L237.545 214.52H239.145L242.441 222.2H241.673L245.033 214.52H246.537L242.825 223H241.257ZM251.832 223.096C250.925 223.096 250.125 222.909 249.432 222.536C248.749 222.163 248.216 221.651 247.832 221C247.459 220.349 247.272 219.603 247.272 218.76C247.272 217.917 247.453 217.171 247.816 216.52C248.189 215.869 248.696 215.363 249.336 215C249.987 214.627 250.717 214.44 251.528 214.44C252.349 214.44 253.075 214.621 253.704 214.984C254.333 215.347 254.824 215.859 255.176 216.52C255.539 217.171 255.72 217.933 255.72 218.808C255.72 218.872 255.715 218.947 255.704 219.032C255.704 219.117 255.699 219.197 255.688 219.272H248.472V218.168H254.888L254.264 218.552C254.275 218.008 254.163 217.523 253.928 217.096C253.693 216.669 253.368 216.339 252.952 216.104C252.547 215.859 252.072 215.736 251.528 215.736C250.995 215.736 250.52 215.859 250.104 216.104C249.688 216.339 249.363 216.675 249.128 217.112C248.893 217.539 248.776 218.029 248.776 218.584V218.84C248.776 219.405 248.904 219.912 249.16 220.36C249.427 220.797 249.795 221.139 250.264 221.384C250.733 221.629 251.272 221.752 251.88 221.752C252.381 221.752 252.835 221.667 253.24 221.496C253.656 221.325 254.019 221.069 254.328 220.728L255.176 221.72C254.792 222.168 254.312 222.509 253.736 222.744C253.171 222.979 252.536 223.096 251.832 223.096ZM258.173 223V211.128H259.709V223H258.173Z" fill="black" fill-opacity="0.5"/>
<rect x="112" y="242" width="142" height="30" rx="10" fill="#D9D9D9" fill-opacity="0.4"/>
<path d="M132.904 263V253.192H129.064V251.8H138.328V253.192H134.488V263H132.904ZM144.977 263V261.208L144.898 260.872V257.816C144.898 257.165 144.705 256.664 144.321 256.312C143.948 255.949 143.383 255.768 142.625 255.768C142.124 255.768 141.633 255.853 141.153 256.024C140.673 256.184 140.268 256.403 139.937 256.68L139.297 255.528C139.735 255.176 140.257 254.909 140.865 254.728C141.484 254.536 142.129 254.44 142.801 254.44C143.964 254.44 144.86 254.723 145.49 255.288C146.119 255.853 146.434 256.717 146.434 257.88V263H144.977ZM142.193 263.096C141.564 263.096 141.009 262.989 140.529 262.776C140.06 262.563 139.697 262.269 139.441 261.896C139.185 261.512 139.057 261.08 139.057 260.6C139.057 260.141 139.164 259.725 139.377 259.352C139.601 258.979 139.959 258.68 140.449 258.456C140.951 258.232 141.623 258.12 142.465 258.12H145.154V259.224H142.53C141.761 259.224 141.244 259.352 140.977 259.608C140.711 259.864 140.577 260.173 140.577 260.536C140.577 260.952 140.743 261.288 141.073 261.544C141.404 261.789 141.863 261.912 142.45 261.912C143.025 261.912 143.527 261.784 143.953 261.528C144.391 261.272 144.705 260.899 144.898 260.408L145.201 261.464C144.999 261.965 144.641 262.365 144.129 262.664C143.617 262.952 142.972 263.096 142.193 263.096ZM149.596 263V254.52H151.132V263H149.596ZM150.364 252.888C150.065 252.888 149.815 252.792 149.612 252.6C149.42 252.408 149.324 252.173 149.324 251.896C149.324 251.608 149.42 251.368 149.612 251.176C149.815 250.984 150.065 250.888 150.364 250.888C150.663 250.888 150.908 250.984 151.1 251.176C151.303 251.357 151.404 251.587 151.404 251.864C151.404 252.152 151.308 252.397 151.116 252.6C150.924 252.792 150.673 252.888 150.364 252.888ZM154.385 263V251.128H155.921V263H154.385ZM160.966 263L157.814 254.52H159.27L162.07 262.2H161.382L164.294 254.52H165.59L168.438 262.2H167.766L170.63 254.52H172.006L168.838 263H167.366L164.694 255.992H165.142L162.438 263H160.966ZM173.884 263V254.52H175.42V263H173.884ZM174.652 252.888C174.353 252.888 174.103 252.792 173.9 252.6C173.708 252.408 173.612 252.173 173.612 251.896C173.612 251.608 173.708 251.368 173.9 251.176C174.103 250.984 174.353 250.888 174.652 250.888C174.951 250.888 175.196 250.984 175.388 251.176C175.591 251.357 175.692 251.587 175.692 251.864C175.692 252.152 175.596 252.397 175.404 252.6C175.212 252.792 174.961 252.888 174.652 252.888ZM183.201 254.44C183.894 254.44 184.502 254.573 185.025 254.84C185.558 255.107 185.974 255.512 186.273 256.056C186.572 256.6 186.721 257.288 186.721 258.12V263H185.185V258.296C185.185 257.475 184.982 256.856 184.577 256.44C184.182 256.024 183.622 255.816 182.897 255.816C182.353 255.816 181.878 255.923 181.473 256.136C181.068 256.349 180.753 256.664 180.529 257.08C180.316 257.496 180.209 258.013 180.209 258.632V263H178.673V254.52H180.145V256.808L179.905 256.2C180.182 255.645 180.609 255.213 181.185 254.904C181.761 254.595 182.433 254.44 183.201 254.44ZM193.388 263.096C192.566 263.096 191.83 262.915 191.18 262.552C190.54 262.189 190.033 261.683 189.66 261.032C189.286 260.381 189.1 259.624 189.1 258.76C189.1 257.896 189.286 257.144 189.66 256.504C190.033 255.853 190.54 255.347 191.18 254.984C191.83 254.621 192.566 254.44 193.388 254.44C194.102 254.44 194.748 254.6 195.324 254.92C195.9 255.24 196.358 255.72 196.7 256.36C197.052 257 197.228 257.8 197.228 258.76C197.228 259.72 197.057 260.52 196.716 261.16C196.385 261.8 195.932 262.285 195.356 262.616C194.78 262.936 194.124 263.096 193.388 263.096ZM193.516 261.752C194.049 261.752 194.529 261.629 194.956 261.384C195.393 261.139 195.734 260.792 195.98 260.344C196.236 259.885 196.364 259.357 196.364 258.76C196.364 258.152 196.236 257.629 195.98 257.192C195.734 256.744 195.393 256.397 194.956 256.152C194.529 255.907 194.049 255.784 193.516 255.784C192.972 255.784 192.486 255.907 192.06 256.152C191.633 256.397 191.292 256.744 191.036 257.192C190.78 257.629 190.652 258.152 190.652 258.76C190.652 259.357 190.78 259.885 191.036 260.344C191.292 260.792 191.633 261.139 192.06 261.384C192.486 261.629 192.972 261.752 193.516 261.752ZM196.412 263V260.712L196.508 258.744L196.348 256.776V251.128H197.884V263H196.412ZM210.959 263.128C210.105 263.128 209.316 262.989 208.591 262.712C207.876 262.424 207.252 262.024 206.719 261.512C206.196 260.989 205.785 260.381 205.487 259.688C205.188 258.995 205.039 258.232 205.039 257.4C205.039 256.568 205.188 255.805 205.487 255.112C205.785 254.419 206.201 253.816 206.735 253.304C207.268 252.781 207.892 252.381 208.607 252.104C209.332 251.816 210.121 251.672 210.975 251.672C211.839 251.672 212.633 251.821 213.359 252.12C214.095 252.408 214.719 252.84 215.231 253.416L214.191 254.424C213.764 253.976 213.284 253.645 212.751 253.432C212.217 253.208 211.647 253.096 211.039 253.096C210.409 253.096 209.823 253.203 209.279 253.416C208.745 253.629 208.281 253.928 207.887 254.312C207.492 254.696 207.183 255.155 206.959 255.688C206.745 256.211 206.639 256.781 206.639 257.4C206.639 258.019 206.745 258.595 206.959 259.128C207.183 259.651 207.492 260.104 207.887 260.488C208.281 260.872 208.745 261.171 209.279 261.384C209.823 261.597 210.409 261.704 211.039 261.704C211.647 261.704 212.217 261.597 212.751 261.384C213.284 261.16 213.764 260.819 214.191 260.36L215.231 261.368C214.719 261.944 214.095 262.381 213.359 262.68C212.633 262.979 211.833 263.128 210.959 263.128ZM221.081 263.128C220.228 263.128 219.412 263 218.633 262.744C217.855 262.477 217.241 262.136 216.793 261.72L217.385 260.472C217.812 260.845 218.356 261.155 219.017 261.4C219.679 261.645 220.367 261.768 221.081 261.768C221.732 261.768 222.26 261.693 222.665 261.544C223.071 261.395 223.369 261.192 223.561 260.936C223.753 260.669 223.849 260.371 223.849 260.04C223.849 259.656 223.721 259.347 223.465 259.112C223.22 258.877 222.895 258.691 222.489 258.552C222.095 258.403 221.657 258.275 221.177 258.168C220.697 258.061 220.212 257.939 219.721 257.8C219.241 257.651 218.799 257.464 218.393 257.24C217.999 257.016 217.679 256.717 217.433 256.344C217.188 255.96 217.065 255.469 217.065 254.872C217.065 254.296 217.215 253.768 217.513 253.288C217.823 252.797 218.292 252.408 218.921 252.12C219.561 251.821 220.372 251.672 221.353 251.672C222.004 251.672 222.649 251.757 223.289 251.928C223.929 252.099 224.484 252.344 224.953 252.664L224.425 253.944C223.945 253.624 223.439 253.395 222.905 253.256C222.372 253.107 221.855 253.032 221.353 253.032C220.724 253.032 220.207 253.112 219.801 253.272C219.396 253.432 219.097 253.645 218.905 253.912C218.724 254.179 218.633 254.477 218.633 254.808C218.633 255.203 218.756 255.517 219.001 255.752C219.257 255.987 219.583 256.173 219.977 256.312C220.383 256.451 220.825 256.579 221.305 256.696C221.785 256.803 222.265 256.925 222.745 257.064C223.236 257.203 223.679 257.384 224.073 257.608C224.479 257.832 224.804 258.131 225.049 258.504C225.295 258.877 225.417 259.357 225.417 259.944C225.417 260.509 225.263 261.037 224.953 261.528C224.644 262.008 224.164 262.397 223.513 262.696C222.873 262.984 222.063 263.128 221.081 263.128ZM231.339 263.128C230.486 263.128 229.67 263 228.891 262.744C228.112 262.477 227.499 262.136 227.051 261.72L227.643 260.472C228.07 260.845 228.614 261.155 229.275 261.4C229.936 261.645 230.624 261.768 231.339 261.768C231.99 261.768 232.518 261.693 232.923 261.544C233.328 261.395 233.627 261.192 233.819 260.936C234.011 260.669 234.107 260.371 234.107 260.04C234.107 259.656 233.979 259.347 233.723 259.112C233.478 258.877 233.152 258.691 232.747 258.552C232.352 258.403 231.915 258.275 231.435 258.168C230.955 258.061 230.47 257.939 229.979 257.8C229.499 257.651 229.056 257.464 228.651 257.24C228.256 257.016 227.936 256.717 227.691 256.344C227.446 255.96 227.323 255.469 227.323 254.872C227.323 254.296 227.472 253.768 227.771 253.288C228.08 252.797 228.55 252.408 229.179 252.12C229.819 251.821 230.63 251.672 231.611 251.672C232.262 251.672 232.907 251.757 233.547 251.928C234.187 252.099 234.742 252.344 235.211 252.664L234.683 253.944C234.203 253.624 233.696 253.395 233.163 253.256C232.63 253.107 232.112 253.032 231.611 253.032C230.982 253.032 230.464 253.112 230.059 253.272C229.654 253.432 229.355 253.645 229.163 253.912C228.982 254.179 228.891 254.477 228.891 254.808C228.891 255.203 229.014 255.517 229.259 255.752C229.515 255.987 229.84 256.173 230.235 256.312C230.64 256.451 231.083 256.579 231.563 256.696C232.043 256.803 232.523 256.925 233.003 257.064C233.494 257.203 233.936 257.384 234.331 257.608C234.736 257.832 235.062 258.131 235.307 258.504C235.552 258.877 235.675 259.357 235.675 259.944C235.675 260.509 235.52 261.037 235.211 261.528C234.902 262.008 234.422 262.397 233.771 262.696C233.131 262.984 232.32 263.128 231.339 263.128Z" fill="black" fill-opacity="0.5"/>
<rect x="121" y="322" width="74" height="30" rx="10" fill="#D9D9D9" fill-opacity="0.4"/>
<path d="M137.984 343L143.056 331.8H144.64L149.728 343H148.048L143.52 332.696H144.16L139.632 343H137.984ZM140.144 340.2L140.576 338.92H146.88L147.344 340.2H140.144ZM153.701 343L149.957 331.8H151.605L155.045 342.136H154.213L157.781 331.8H159.253L162.741 342.136H161.941L165.429 331.8H166.949L163.205 343H161.525L158.261 333.416H158.693L155.413 343H153.701ZM172.49 343.128C171.637 343.128 170.821 343 170.042 342.744C169.264 342.477 168.65 342.136 168.202 341.72L168.794 340.472C169.221 340.845 169.765 341.155 170.426 341.4C171.088 341.645 171.776 341.768 172.49 341.768C173.141 341.768 173.669 341.693 174.074 341.544C174.48 341.395 174.778 341.192 174.97 340.936C175.162 340.669 175.258 340.371 175.258 340.04C175.258 339.656 175.13 339.347 174.874 339.112C174.629 338.877 174.304 338.691 173.898 338.552C173.504 338.403 173.066 338.275 172.586 338.168C172.106 338.061 171.621 337.939 171.13 337.8C170.65 337.651 170.208 337.464 169.802 337.24C169.408 337.016 169.088 336.717 168.842 336.344C168.597 335.96 168.474 335.469 168.474 334.872C168.474 334.296 168.624 333.768 168.922 333.288C169.232 332.797 169.701 332.408 170.33 332.12C170.97 331.821 171.781 331.672 172.762 331.672C173.413 331.672 174.058 331.757 174.698 331.928C175.338 332.099 175.893 332.344 176.362 332.664L175.834 333.944C175.354 333.624 174.848 333.395 174.314 333.256C173.781 333.107 173.264 333.032 172.762 333.032C172.133 333.032 171.616 333.112 171.21 333.272C170.805 333.432 170.506 333.645 170.314 333.912C170.133 334.179 170.042 334.477 170.042 334.808C170.042 335.203 170.165 335.517 170.41 335.752C170.666 335.987 170.992 336.173 171.386 336.312C171.792 336.451 172.234 336.579 172.714 336.696C173.194 336.803 173.674 336.925 174.154 337.064C174.645 337.203 175.088 337.384 175.482 337.608C175.888 337.832 176.213 338.131 176.458 338.504C176.704 338.877 176.826 339.357 176.826 339.944C176.826 340.509 176.672 341.037 176.362 341.528C176.053 342.008 175.573 342.397 174.922 342.696C174.282 342.984 173.472 343.128 172.49 343.128Z" fill="black" fill-opacity="0.5"/>
<rect x="205" y="322" width="88" height="30" rx="10" fill="#D9D9D9" fill-opacity="0.4"/>
<path d="M225.12 337.096H230.896V338.472H225.12V337.096ZM225.28 343H223.68V331.8H231.584V333.192H225.28V343ZM233.932 343V334.52H235.468V343H233.932ZM234.7 332.888C234.402 332.888 234.151 332.792 233.948 332.6C233.756 332.408 233.66 332.173 233.66 331.896C233.66 331.608 233.756 331.368 233.948 331.176C234.151 330.984 234.402 330.888 234.7 330.888C234.999 330.888 235.244 330.984 235.436 331.176C235.639 331.357 235.74 331.587 235.74 331.864C235.74 332.152 235.644 332.397 235.452 332.6C235.26 332.792 235.01 332.888 234.7 332.888ZM242.433 346.2C241.654 346.2 240.897 346.088 240.161 345.864C239.436 345.651 238.844 345.341 238.385 344.936L239.121 343.752C239.516 344.093 240.001 344.36 240.577 344.552C241.153 344.755 241.756 344.856 242.385 344.856C243.388 344.856 244.124 344.621 244.593 344.152C245.062 343.683 245.297 342.968 245.297 342.008V340.216L245.457 338.536L245.377 336.84V334.52H246.833V341.848C246.833 343.341 246.46 344.44 245.713 345.144C244.966 345.848 243.873 346.2 242.433 346.2ZM242.241 342.648C241.42 342.648 240.684 342.477 240.033 342.136C239.393 341.784 238.881 341.299 238.497 340.68C238.124 340.061 237.937 339.347 237.937 338.536C237.937 337.715 238.124 337 238.497 336.392C238.881 335.773 239.393 335.293 240.033 334.952C240.684 334.611 241.42 334.44 242.241 334.44C242.966 334.44 243.628 334.589 244.225 334.888C244.822 335.176 245.297 335.624 245.649 336.232C246.012 336.84 246.193 337.608 246.193 338.536C246.193 339.453 246.012 340.216 245.649 340.824C245.297 341.432 244.822 341.891 244.225 342.2C243.628 342.499 242.966 342.648 242.241 342.648ZM242.417 341.304C242.982 341.304 243.484 341.187 243.921 340.952C244.358 340.717 244.7 340.392 244.945 339.976C245.201 339.56 245.329 339.08 245.329 338.536C245.329 337.992 245.201 337.512 244.945 337.096C244.7 336.68 244.358 336.36 243.921 336.136C243.484 335.901 242.982 335.784 242.417 335.784C241.852 335.784 241.345 335.901 240.897 336.136C240.46 336.36 240.113 336.68 239.857 337.096C239.612 337.512 239.489 337.992 239.489 338.536C239.489 339.08 239.612 339.56 239.857 339.976C240.113 340.392 240.46 340.717 240.897 340.952C241.345 341.187 241.852 341.304 242.417 341.304ZM260.696 334.44C261.379 334.44 261.981 334.573 262.504 334.84C263.027 335.107 263.432 335.512 263.72 336.056C264.019 336.6 264.168 337.288 264.168 338.12V343H262.632V338.296C262.632 337.475 262.44 336.856 262.056 336.44C261.672 336.024 261.133 335.816 260.44 335.816C259.928 335.816 259.48 335.923 259.096 336.136C258.712 336.349 258.413 336.664 258.2 337.08C257.997 337.496 257.896 338.013 257.896 338.632V343H256.36V338.296C256.36 337.475 256.168 336.856 255.784 336.44C255.411 336.024 254.872 335.816 254.168 335.816C253.667 335.816 253.224 335.923 252.84 336.136C252.456 336.349 252.157 336.664 251.944 337.08C251.731 337.496 251.624 338.013 251.624 338.632V343H250.088V334.52H251.56V336.776L251.32 336.2C251.587 335.645 251.997 335.213 252.552 334.904C253.107 334.595 253.752 334.44 254.488 334.44C255.299 334.44 255.997 334.643 256.584 335.048C257.171 335.443 257.555 336.045 257.736 336.856L257.112 336.6C257.368 335.949 257.816 335.427 258.456 335.032C259.096 334.637 259.843 334.44 260.696 334.44ZM272.578 343V341.208L272.498 340.872V337.816C272.498 337.165 272.306 336.664 271.922 336.312C271.549 335.949 270.983 335.768 270.226 335.768C269.725 335.768 269.234 335.853 268.754 336.024C268.274 336.184 267.869 336.403 267.538 336.68L266.898 335.528C267.335 335.176 267.858 334.909 268.466 334.728C269.085 334.536 269.73 334.44 270.402 334.44C271.565 334.44 272.461 334.723 273.09 335.288C273.719 335.853 274.034 336.717 274.034 337.88V343H272.578ZM269.794 343.096C269.165 343.096 268.61 342.989 268.13 342.776C267.661 342.563 267.298 342.269 267.042 341.896C266.786 341.512 266.658 341.08 266.658 340.6C266.658 340.141 266.765 339.725 266.978 339.352C267.202 338.979 267.559 338.68 268.05 338.456C268.551 338.232 269.223 338.12 270.066 338.12H272.754V339.224H270.13C269.362 339.224 268.845 339.352 268.578 339.608C268.311 339.864 268.178 340.173 268.178 340.536C268.178 340.952 268.343 341.288 268.674 341.544C269.005 341.789 269.463 341.912 270.05 341.912C270.626 341.912 271.127 341.784 271.554 341.528C271.991 341.272 272.306 340.899 272.498 340.408L272.802 341.464C272.599 341.965 272.242 342.365 271.73 342.664C271.218 342.952 270.573 343.096 269.794 343.096Z" fill="black" fill-opacity="0.5"/>
<defs>
<filter id="filter0_d_429_1603" x="10" y="392" width="340" height="67" filterUnits="userSpaceOnUse" color-interpolation-filters="sRGB">
<feFlood flood-opacity="0" result="BackgroundImageFix"/>
<feColorMatrix in="SourceAlpha" type="matrix" values="0 0 0 0 0 0 0 0 0 0 0 0 0 0 0 0 0 0 127 0" result="hardAlpha"/>
<feOffset dy="4"/>
<feGaussianBlur stdDeviation="5"/>
<feComposite in2="hardAlpha" operator="out"/>
<feColorMatrix type="matrix" values="0 0 0 0 0 0 0 0 0 0 0 0 0 0 0 0 0 0 0.2 0"/>
<feBlend mode="normal" in2="BackgroundImageFix" result="effect1_dropShadow_429_1603"/>
<feBlend mode="normal" in="SourceGraphic" in2="effect1_dropShadow_429_1603" result="shape"/>
</filter>
</defs>
</svg>
