<svg width="20" height="20" viewBox="0 0 20 20" fill="none" xmlns="http://www.w3.org/2000/svg">
<g opacity="0.8">
<path d="M5.00065 19.1668C4.54232 19.1668 4.14996 19.0036 3.82357 18.6772C3.49718 18.3509 3.33398 17.9585 3.33398 17.5002V8.3335C3.33398 7.87516 3.49718 7.4828 3.82357 7.15641C4.14996 6.83002 4.54232 6.66683 5.00065 6.66683H7.50065V8.3335H5.00065V17.5002H15.0007V8.3335H12.5007V6.66683H15.0007C15.459 6.66683 15.8513 6.83002 16.1777 7.15641C16.5041 7.4828 16.6673 7.87516 16.6673 8.3335V17.5002C16.6673 17.9585 16.5041 18.3509 16.1777 18.6772C15.8513 19.0036 15.459 19.1668 15.0007 19.1668H5.00065ZM9.16732 13.3335V4.021L7.83398 5.35433L6.66732 4.16683L10.0007 0.833496L13.334 4.16683L12.1673 5.35433L10.834 4.021V13.3335H9.16732Z" fill="#3C6724"/>
</g>
</svg>
