<svg width="705" height="479" viewBox="0 0 705 479" fill="none" xmlns="http://www.w3.org/2000/svg">
<g clip-path="url(#clip0_621_223)">
<path d="M632.46 467.635C616.648 479.018 596.158 479.589 576.351 478.191C573.586 477.996 570.839 477.767 568.119 477.52C568.102 477.516 568.081 477.518 568.064 477.513C567.933 477.501 567.802 477.488 567.677 477.481C567.116 477.429 566.554 477.376 565.997 477.323L566.129 477.574L566.541 478.351C566.393 478.091 566.245 477.836 566.097 477.576C566.053 477.498 566.004 477.42 565.961 477.342C560.83 468.42 555.741 459.17 554.443 448.981C553.101 438.407 556.872 426.432 566.186 421.235C567.407 420.555 568.701 420.014 570.043 419.621C570.6 419.452 571.164 419.314 571.735 419.193C575.228 418.418 578.865 418.586 582.271 419.681C585.678 420.776 588.731 422.758 591.116 425.423C593.502 428.088 595.135 431.34 595.846 434.844C596.557 438.348 596.321 441.978 595.163 445.361C603.059 437.27 601.586 424.144 598.862 413.174C596.133 402.204 592.829 389.997 598.38 380.144C601.466 374.66 606.892 371.257 612.982 369.886C613.169 369.846 613.355 369.806 613.543 369.771C620.798 368.303 628.341 369.623 634.665 373.469C646.309 380.802 652.29 394.704 654.231 408.322C657.358 430.236 650.437 454.693 632.46 467.635Z" fill="#A3DA86" fill-opacity="0.4"/>
<path d="M627.355 432.506C626.896 437.34 625.734 442.081 623.906 446.58C622.221 450.561 619.95 454.267 617.168 457.577C611.384 464.342 604.059 469.619 595.81 472.966C589.57 475.52 583.032 477.275 576.351 478.191C573.586 477.996 570.839 477.767 568.119 477.52C568.102 477.516 568.081 477.517 568.064 477.513C567.933 477.501 567.802 477.488 567.677 477.481C567.116 477.428 566.554 477.376 565.997 477.323L566.129 477.574L566.541 478.351C566.393 478.091 566.245 477.836 566.097 477.576C566.053 477.498 566.004 477.42 565.961 477.342C570.969 472.356 574.709 466.242 576.866 459.514C579.023 452.787 579.535 445.64 578.358 438.674C577.128 431.757 574.278 425.228 570.043 419.621C570.6 419.451 571.164 419.314 571.735 419.193C573.345 421.392 574.757 423.729 575.955 426.176C580.253 434.905 581.624 444.785 579.865 454.353C578.23 463.011 574.157 471.023 568.125 477.449C568.653 477.412 569.186 477.369 569.708 477.322C579.595 476.485 589.462 474.361 598.429 470.01C606.094 466.382 612.749 460.926 617.807 454.122C623.238 446.637 625.631 437.635 626.042 428.484C626.359 418.626 625.325 408.772 622.969 399.194C620.684 389.427 617.213 379.977 612.631 371.053C612.528 370.851 612.508 370.617 612.573 370.4C612.638 370.182 612.785 369.999 612.982 369.886C613.146 369.776 613.348 369.734 613.543 369.771C613.638 369.796 613.726 369.843 613.801 369.907C613.876 369.971 613.935 370.051 613.975 370.141C614.54 371.243 615.095 372.347 615.629 373.462C620.073 382.753 623.345 392.56 625.369 402.657C627.335 412.397 628.384 422.587 627.355 432.506Z" fill="#F4F9F0"/>
<path d="M29.4135 152.248C28.9428 152.248 28.4763 152.16 28.0378 151.989C27.3287 151.717 26.7192 151.235 26.2904 150.609C25.8615 149.982 25.6336 149.24 25.6368 148.481V109.163C25.6353 107.833 25.1056 106.557 24.1639 105.616C23.2222 104.675 21.9454 104.145 20.6135 104.144H12.5563C9.22729 104.14 6.03572 102.817 3.68177 100.465C1.32782 98.1124 0.00373097 94.9232 0 91.5967V12.547C0.00373318 9.22049 1.32782 6.03128 3.68177 3.67906C6.03572 1.32684 9.22729 0.00372822 12.5563 0H296.759C300.088 0.00373264 303.28 1.32685 305.634 3.67906C307.988 6.03128 309.312 9.22049 309.315 12.547V91.5967C309.312 94.9232 307.988 98.1124 305.634 100.465C303.28 102.817 300.088 104.14 296.759 104.144H77.395C76.6987 104.144 76.0101 104.29 75.3727 104.57C74.7353 104.85 74.163 105.259 73.6919 105.771L32.1799 151.024C31.8294 151.409 31.4023 151.717 30.926 151.928C30.4496 152.139 29.9345 152.248 29.4135 152.248ZM12.5563 1.6719C9.67089 1.67516 6.90461 2.82198 4.86433 4.86075C2.82405 6.89953 1.67639 9.66376 1.67313 12.547V91.5967C1.6764 94.4799 2.82405 97.2441 4.86433 99.2829C6.90461 101.322 9.67089 102.469 12.5563 102.472H20.6135C22.389 102.474 24.0911 103.179 25.3465 104.434C26.6019 105.688 27.308 107.389 27.3099 109.163V148.481C27.31 148.902 27.4374 149.314 27.6755 149.662C27.9137 150.01 28.2514 150.278 28.6445 150.43C29.0376 150.583 29.4678 150.614 29.8785 150.518C30.2893 150.423 30.6616 150.205 30.9466 149.894L72.4586 104.642C73.0866 103.959 73.8495 103.413 74.6992 103.04C75.5488 102.666 76.4668 102.473 77.395 102.472H296.759C299.645 102.469 302.411 101.322 304.451 99.2829C306.491 97.2441 307.639 94.4799 307.642 91.5967V12.547C307.639 9.66376 306.491 6.89953 304.451 4.86075C302.411 2.82198 299.645 1.67516 296.759 1.6719H12.5563Z" fill="#10180B" fill-opacity="0.2"/>
<path d="M30.7997 35.6033C36.8678 35.6033 41.787 30.6878 41.787 24.6242C41.787 18.5605 36.8678 13.645 30.7997 13.645C24.7316 13.645 19.8125 18.5605 19.8125 24.6242C19.8125 30.6878 24.7316 35.6033 30.7997 35.6033Z" fill="#10180B" fill-opacity="0.4"/>
<path d="M283.941 85.3754H25.3747C24.6046 85.3763 23.8418 85.2255 23.1301 84.9317C22.4183 84.6378 21.7715 84.2067 21.2266 83.6628C20.6817 83.119 20.2495 82.4732 19.9545 81.7623C19.6596 81.0514 19.5078 80.2894 19.5078 79.5199C19.5078 78.7503 19.6596 77.9883 19.9545 77.2774C20.2495 76.5665 20.6817 75.9207 21.2266 75.3769C21.7715 74.8331 22.4183 74.4019 23.1301 74.108C23.8418 73.8142 24.6046 73.6634 25.3747 73.6643H283.941C284.711 73.6634 285.474 73.8142 286.185 74.108C286.897 74.4019 287.544 74.8331 288.089 75.3769C288.634 75.9207 289.066 76.5665 289.361 77.2774C289.656 77.9883 289.808 78.7503 289.808 79.5199C289.808 80.2894 289.656 81.0514 289.361 81.7623C289.066 82.4732 288.634 83.119 288.089 83.6628C287.544 84.2067 286.897 84.6378 286.185 84.9317C285.474 85.2255 284.711 85.3763 283.941 85.3754Z" fill="#A3DA86" fill-opacity="0.5"/>
<path d="M199.705 60.4892H25.3747C24.6046 60.4901 23.8418 60.3393 23.1301 60.0454C22.4183 59.7516 21.7715 59.3204 21.2266 58.7766C20.6817 58.2328 20.2495 57.5869 19.9545 56.8761C19.6596 56.1652 19.5078 55.4032 19.5078 54.6336C19.5078 53.8641 19.6596 53.1021 19.9545 52.3912C20.2495 51.6803 20.6817 51.0345 21.2266 50.4906C21.7715 49.9468 22.4183 49.5157 23.1301 49.2218C23.8418 48.9279 24.6046 48.7772 25.3747 48.7781H199.705C200.475 48.7772 201.238 48.9279 201.95 49.2218C202.662 49.5157 203.309 49.9468 203.853 50.4906C204.398 51.0345 204.831 51.6803 205.125 52.3912C205.42 53.1021 205.572 53.8641 205.572 54.6336C205.572 55.4032 205.42 56.1652 205.125 56.8761C204.831 57.5869 204.398 58.2328 203.853 58.7766C203.309 59.3204 202.662 59.7516 201.95 60.0454C201.238 60.3393 200.475 60.4901 199.705 60.4892Z" fill="#A3DA86" fill-opacity="0.5"/>
<path d="M29.4135 431.119C28.9428 431.118 28.4763 431.03 28.0378 430.859C27.3287 430.587 26.7193 430.105 26.2904 429.479C25.8616 428.852 25.6336 428.11 25.6368 427.351V388.034C25.6353 386.703 25.1056 385.427 24.1639 384.486C23.2222 383.545 21.9454 383.015 20.6135 383.014H12.5563C9.2273 383.01 6.03573 381.687 3.68178 379.335C1.32783 376.983 0.00373982 373.793 0 370.467V291.417C0.00373318 288.091 1.32782 284.901 3.68177 282.549C6.03572 280.197 9.22729 278.874 12.5563 278.87H296.759C300.088 278.874 303.28 280.197 305.634 282.549C307.988 284.901 309.312 288.091 309.315 291.417V370.467C309.312 373.793 307.988 376.983 305.634 379.335C303.28 381.687 300.088 383.01 296.759 383.014H77.395C76.6987 383.015 76.0101 383.16 75.3727 383.44C74.7353 383.72 74.163 384.129 73.6919 384.642L32.1799 429.894C31.8294 430.279 31.4023 430.587 30.926 430.798C30.4496 431.009 29.9345 431.118 29.4135 431.119ZM12.5563 280.542C9.67089 280.545 6.90461 281.692 4.86433 283.731C2.82405 285.77 1.67639 288.534 1.67313 291.417V370.467C1.67639 373.35 2.82405 376.114 4.86433 378.153C6.90461 380.192 9.67089 381.339 12.5563 381.342H20.6135C22.389 381.344 24.0911 382.05 25.3465 383.304C26.6019 384.559 27.308 386.259 27.3099 388.034V427.351C27.31 427.772 27.4374 428.184 27.6755 428.532C27.9137 428.88 28.2514 429.148 28.6445 429.301C29.0376 429.453 29.4678 429.484 29.8785 429.388C30.2893 429.293 30.6616 429.075 30.9466 428.765L72.4586 383.512C73.0866 382.829 73.8495 382.283 74.6992 381.91C75.5488 381.536 76.4668 381.343 77.395 381.342H296.759C299.645 381.339 302.411 380.192 304.451 378.153C306.491 376.114 307.639 373.35 307.642 370.467V291.417C307.639 288.534 306.491 285.77 304.451 283.731C302.411 281.692 299.645 280.545 296.759 280.542L12.5563 280.542Z" fill="#10180B" fill-opacity="0.2"/>
<path d="M449.105 286.194C448.584 286.193 448.069 286.084 447.592 285.874C447.116 285.663 446.689 285.355 446.339 284.97L404.826 239.717C404.355 239.205 403.783 238.795 403.146 238.515C402.508 238.235 401.82 238.09 401.124 238.089H181.759C178.43 238.085 175.239 236.762 172.885 234.41C170.531 232.058 169.207 228.869 169.203 225.542V146.493C169.207 143.166 170.531 139.977 172.885 137.625C175.239 135.272 178.43 133.949 181.759 133.946H465.962C469.291 133.949 472.483 135.272 474.837 137.625C477.191 139.977 478.515 143.166 478.519 146.493V225.542C478.515 228.869 477.191 232.058 474.837 234.41C472.483 236.762 469.291 238.085 465.962 238.089H457.905C456.573 238.091 455.296 238.62 454.355 239.561C453.413 240.502 452.883 241.778 452.882 243.109V282.426C452.885 283.186 452.657 283.928 452.228 284.554C451.799 285.181 451.19 285.662 450.481 285.934C450.042 286.105 449.576 286.194 449.105 286.194ZM181.759 135.617C178.874 135.621 176.108 136.768 174.067 138.806C172.027 140.845 170.879 143.609 170.876 146.493V225.542C170.879 228.425 172.027 231.19 174.067 233.228C176.108 235.267 178.874 236.414 181.759 236.417H401.124C402.052 236.418 402.97 236.612 403.819 236.985C404.669 237.359 405.432 237.904 406.06 238.587L447.572 283.84C447.857 284.151 448.229 284.368 448.64 284.464C449.051 284.559 449.481 284.529 449.874 284.376C450.267 284.223 450.605 283.955 450.843 283.607C451.081 283.26 451.209 282.848 451.209 282.426V243.109C451.211 241.335 451.917 239.634 453.172 238.379C454.427 237.125 456.13 236.419 457.905 236.417H465.962C468.848 236.414 471.614 235.267 473.654 233.228C475.694 231.19 476.842 228.425 476.845 225.542V146.493C476.842 143.609 475.694 140.845 473.654 138.806C471.614 136.768 468.848 135.621 465.962 135.617L181.759 135.617Z" fill="#3F3D56"/>
<path d="M30.7997 314.473C36.8678 314.473 41.787 309.558 41.787 303.494C41.787 297.431 36.8678 292.515 30.7997 292.515C24.7316 292.515 19.8125 297.431 19.8125 303.494C19.8125 309.558 24.7316 314.473 30.7997 314.473Z" fill="#10180B" fill-opacity="0.4"/>
<path d="M283.941 364.245H25.3747C24.6046 364.246 23.8418 364.096 23.1301 363.802C22.4183 363.508 21.7715 363.077 21.2266 362.533C20.6817 361.989 20.2495 361.343 19.9545 360.632C19.6596 359.922 19.5078 359.16 19.5078 358.39C19.5078 357.62 19.6596 356.858 19.9545 356.148C20.2495 355.437 20.6817 354.791 21.2266 354.247C21.7715 353.703 22.4183 353.272 23.1301 352.978C23.8418 352.684 24.6046 352.534 25.3747 352.534H283.941C285.495 352.534 286.985 353.151 288.084 354.249C289.183 355.348 289.801 356.837 289.801 358.39C289.801 359.943 289.183 361.432 288.084 362.53C286.985 363.629 285.495 364.245 283.941 364.245Z" fill="#A3DA86" fill-opacity="0.5"/>
<path d="M199.705 339.36H25.3747C24.6046 339.36 23.8418 339.21 23.1301 338.916C22.4183 338.622 21.7715 338.191 21.2266 337.647C20.6817 337.103 20.2495 336.457 19.9545 335.746C19.6596 335.036 19.5078 334.274 19.5078 333.504C19.5078 332.734 19.6596 331.972 19.9545 331.262C20.2495 330.551 20.6817 329.905 21.2266 329.361C21.7715 328.817 22.4183 328.386 23.1301 328.092C23.8418 327.798 24.6046 327.648 25.3747 327.648H199.705C200.475 327.648 201.238 327.798 201.95 328.092C202.662 328.386 203.309 328.817 203.853 329.361C204.398 329.905 204.831 330.551 205.125 331.262C205.42 331.972 205.572 332.734 205.572 333.504C205.572 334.274 205.42 335.036 205.125 335.746C204.831 336.457 204.398 337.103 203.853 337.647C203.309 338.191 202.662 338.622 201.95 338.916C201.238 339.21 200.475 339.36 199.705 339.36Z" fill="#A3DA86" fill-opacity="0.5"/>
<path d="M200.003 168.817C206.071 168.817 210.99 163.901 210.99 157.838C210.99 151.774 206.071 146.858 200.003 146.858C193.935 146.858 189.016 151.774 189.016 157.838C189.016 163.901 193.935 168.817 200.003 168.817Z" fill="#10180B" fill-opacity="0.8"/>
<path d="M453.145 218.589H194.579C193.024 218.589 191.534 217.972 190.435 216.874C189.336 215.776 188.719 214.286 188.719 212.733C188.719 211.18 189.336 209.691 190.435 208.593C191.534 207.495 193.024 206.878 194.579 206.878H453.145C454.699 206.878 456.189 207.495 457.288 208.593C458.387 209.691 459.004 211.18 459.004 212.733C459.004 214.286 458.387 215.776 457.288 216.874C456.189 217.972 454.699 218.589 453.145 218.589Z" fill="#3F6D26"/>
<path d="M368.908 193.703H194.578C193.808 193.704 193.045 193.553 192.333 193.259C191.621 192.965 190.975 192.534 190.43 191.99C189.885 191.446 189.453 190.801 189.158 190.09C188.863 189.379 188.711 188.617 188.711 187.847C188.711 187.078 188.863 186.316 189.158 185.605C189.453 184.894 189.885 184.248 190.43 183.704C190.975 183.16 191.621 182.729 192.333 182.435C193.045 182.142 193.808 181.991 194.578 181.992H368.908C369.679 181.991 370.441 182.142 371.153 182.435C371.865 182.729 372.512 183.16 373.056 183.704C373.601 184.248 374.034 184.894 374.329 185.605C374.623 186.316 374.775 187.078 374.775 187.847C374.775 188.617 374.623 189.379 374.329 190.09C374.034 190.801 373.601 191.446 373.056 191.99C372.512 192.534 371.865 192.965 371.153 193.259C370.441 193.553 369.679 193.704 368.908 193.703Z" fill="#3F6D26"/>
<path d="M453.031 301.242C453.282 300.039 453.794 298.906 454.531 297.922C455.268 296.938 456.212 296.127 457.296 295.547C458.38 294.967 459.579 294.632 460.807 294.565C462.035 294.498 463.262 294.7 464.404 295.159L484.029 272.625L488.197 287.579L468.922 306.685C468.024 308.549 466.473 310.02 464.563 310.818C462.653 311.617 460.516 311.687 458.557 311.016C456.599 310.345 454.954 308.98 453.936 307.178C452.917 305.377 452.595 303.265 453.031 301.242Z" fill="#FFB8B8"/>
<path d="M560.742 195.497C572.09 195.497 581.289 186.305 581.289 174.965C581.289 163.626 572.09 154.433 560.742 154.433C549.394 154.433 540.195 163.626 540.195 174.965C540.195 186.305 549.394 195.497 560.742 195.497Z" fill="#FFB8B8"/>
<path d="M536.604 457.577L526.348 457.576L521.469 418.046L536.606 418.047L536.604 457.577Z" fill="#FFB8B8"/>
<path d="M539.22 467.512L506.15 467.51V467.092C506.15 465.403 506.483 463.731 507.13 462.17C507.777 460.61 508.725 459.192 509.92 457.997C511.116 456.803 512.535 455.856 514.096 455.209C515.658 454.563 517.332 454.23 519.022 454.23L539.221 454.231L539.22 467.512Z" fill="#2F2E41"/>
<path d="M567.557 468.444L557.301 468.444L555.881 429.858L567.559 428.914L567.557 468.444Z" fill="#FFB8B8"/>
<path d="M570.173 478.379L537.104 478.378V477.96C537.103 476.271 537.436 474.598 538.083 473.038C538.73 471.477 539.678 470.059 540.874 468.865C542.069 467.67 543.488 466.723 545.049 466.077C546.611 465.43 548.285 465.098 549.975 465.098L570.174 465.098L570.173 478.379Z" fill="#2F2E41"/>
<path d="M564.641 461.23L556.654 460.291C555.748 460.182 554.913 459.749 554.302 459.073C553.69 458.396 553.345 457.521 553.33 456.609L551.833 352.668C551.829 352.374 551.721 352.091 551.529 351.868C551.337 351.645 551.072 351.497 550.782 351.449C550.491 351.401 550.194 351.457 549.94 351.607C549.687 351.757 549.494 351.991 549.396 352.268L538.315 383.532L539.107 442.133C539.121 443.101 538.761 444.036 538.102 444.745C537.443 445.454 536.536 445.881 535.57 445.939L525.143 446.382C524.189 446.436 523.25 446.128 522.514 445.519C521.778 444.911 521.299 444.047 521.174 443.101L515.728 376.809L515.725 376.768L523.988 307.535L586.047 312.021L568.819 457.936C568.71 458.85 568.27 459.692 567.582 460.304C566.893 460.916 566.004 461.255 565.083 461.257C564.935 461.257 564.788 461.248 564.641 461.23Z" fill="#2F2E41"/>
<path d="M524.251 313.672C523.694 313.375 523.221 312.942 522.877 312.413C522.532 311.884 522.328 311.277 522.281 310.648C522.281 310.648 527.862 275.969 529.907 275.318L525.432 238.232C524.897 233.709 525.27 229.125 526.532 224.748C527.793 220.371 529.917 216.29 532.778 212.744C535.533 209.304 538.958 206.458 542.845 204.377C546.731 202.297 551 201.024 555.392 200.638C556.017 200.581 556.639 200.538 557.258 200.509C562.552 200.225 567.837 201.223 572.663 203.418C577.489 205.614 581.713 208.94 584.977 213.116C588.362 217.328 590.678 222.295 591.73 227.593C592.782 232.892 592.537 238.366 591.016 243.55L588.507 252.277V313.265C588.504 313.86 588.362 314.446 588.091 314.977C587.821 315.507 587.43 315.967 586.949 316.319C579.135 322.05 570.304 324.076 561.722 324.076C545.484 324.076 530.136 316.82 524.251 313.672Z" fill="#3F6D26"/>
<path d="M476.074 302.512L465.28 294.446C464.856 294.13 464.504 293.728 464.247 293.267C463.989 292.805 463.832 292.295 463.785 291.769C463.737 291.242 463.802 290.712 463.973 290.213C464.145 289.713 464.42 289.255 464.781 288.868L529.082 219.924C531.146 217.73 533.929 216.349 536.925 216.03C539.922 215.712 542.933 216.478 545.412 218.189C546.923 219.242 548.183 220.614 549.103 222.209C550.023 223.803 550.579 225.581 550.733 227.415C550.887 229.249 550.634 231.094 549.993 232.819C549.352 234.544 548.338 236.107 547.023 237.396L480.965 302.184C480.384 302.759 479.632 303.128 478.822 303.235C478.011 303.342 477.189 303.181 476.479 302.776C476.338 302.697 476.203 302.608 476.074 302.512Z" fill="#3F6D26"/>
<path d="M558.684 293.383C559.156 292.248 559.871 291.231 560.779 290.402C561.687 289.573 562.766 288.953 563.939 288.586C565.113 288.219 566.353 288.113 567.572 288.277C568.791 288.44 569.959 288.869 570.994 289.532L594.49 271.063L595.787 286.532L573.276 301.699C572.045 303.363 570.246 304.518 568.22 304.945C566.194 305.373 564.082 305.043 562.283 304.017C560.485 302.992 559.125 301.344 558.461 299.384C557.798 297.424 557.877 295.289 558.684 293.383Z" fill="#FFB8B8"/>
<path d="M579.714 300.593C579.092 300.4 578.532 300.048 578.088 299.571C577.645 299.095 577.333 298.511 577.185 297.877L574.812 287.916C574.638 287.209 574.676 286.466 574.922 285.78C575.167 285.095 575.609 284.497 576.193 284.06L592.162 266.802L568.672 230.609C566.894 228.422 565.892 225.707 565.822 222.89C565.752 220.073 566.619 217.312 568.286 215.039C569.615 213.228 571.399 211.8 573.458 210.9C575.517 210 577.778 209.66 580.011 209.914C582.244 210.168 584.37 211.007 586.174 212.347C587.978 213.686 589.395 215.478 590.283 217.542L612.121 260.017C614.292 264.237 614.833 269.107 613.642 273.701C612.451 278.294 609.61 282.289 605.662 284.924L583.345 299.821C582.661 300.432 581.777 300.77 580.86 300.771C580.471 300.771 580.085 300.711 579.714 300.593Z" fill="#3F6D26"/>
<path d="M575.968 193.32C575.483 193.611 574.939 193.786 574.376 193.832C573.813 193.878 573.247 193.795 572.722 193.587C572.197 193.38 571.727 193.055 571.347 192.637C570.968 192.218 570.69 191.719 570.536 191.176L570.523 191.125C570.104 189.417 570.435 187.629 570.543 185.873C570.651 184.118 570.468 182.191 569.266 180.907C567.023 178.514 563.063 179.81 559.836 179.219C557.946 178.808 556.27 177.723 555.122 176.166C553.974 174.609 553.434 172.688 553.602 170.762C553.646 170.397 553.716 170.031 553.794 169.666C553.991 168.74 553.97 167.782 553.734 166.865C553.497 165.949 553.052 165.1 552.431 164.384C551.811 163.669 551.034 163.107 550.16 162.743C549.286 162.379 548.339 162.222 547.394 162.285C544.137 162.488 540.625 163.493 537.917 161.096C536.923 160.15 536.231 158.933 535.925 157.596C535.62 156.26 535.715 154.863 536.199 153.58C537.715 149.132 542.052 146.784 546.351 145.484C551.667 143.918 557.265 143.556 562.739 144.423C568.213 145.291 573.424 147.366 577.995 150.499C580.724 152.399 583.276 154.792 584.452 157.902C585.628 161.012 585.09 164.946 582.487 167.017C584.525 169.15 585.965 171.78 586.665 174.644C587.365 177.508 587.299 180.505 586.474 183.336C585.205 187.499 579.066 191.516 575.968 193.32Z" fill="#2F2E41"/>
<path d="M705.001 478.164C705 478.386 704.912 478.598 704.755 478.755C704.598 478.911 704.386 478.999 704.164 479H385.432C385.21 479 384.998 478.912 384.841 478.755C384.684 478.598 384.596 478.386 384.596 478.164C384.596 477.942 384.684 477.73 384.841 477.573C384.998 477.416 385.21 477.328 385.432 477.328H704.164C704.386 477.329 704.598 477.417 704.755 477.574C704.912 477.73 705 477.943 705.001 478.164Z" fill="#3F3D56"/>
</g>
<defs>
<clipPath id="clip0_621_223">
<rect width="705" height="479" fill="white"/>
</clipPath>
</defs>
</svg>
