<svg width="50" height="50" viewBox="0 0 50 50" fill="none" xmlns="http://www.w3.org/2000/svg">
<g opacity="0.8">
<path d="M31.25 43.75L18.75 39.375L9.0625 43.125C8.36806 43.4028 7.72569 43.3247 7.13542 42.8906C6.54514 42.4566 6.25 41.875 6.25 41.1458V11.9792C6.25 11.5278 6.38021 11.1285 6.64062 10.7812C6.90104 10.434 7.25694 10.1736 7.70833 10L18.75 6.25L31.25 10.625L40.9375 6.875C41.6319 6.59722 42.2743 6.67535 42.8646 7.10938C43.4549 7.5434 43.75 8.125 43.75 8.85417V38.0208C43.75 38.4722 43.6198 38.8715 43.3594 39.2188C43.099 39.566 42.7431 39.8264 42.2917 40L31.25 43.75ZM29.1667 38.6458V14.2708L20.8333 11.3542V35.7292L29.1667 38.6458ZM33.3333 38.6458L39.5833 36.5625V11.875L33.3333 14.2708V38.6458ZM10.4167 38.125L16.6667 35.7292V11.3542L10.4167 13.4375V38.125Z" fill="#66A83A"/>
</g>
</svg>
