<svg width="50" height="50" viewBox="0 0 50 50" fill="none" xmlns="http://www.w3.org/2000/svg">
<g opacity="0.8">
<path d="M24.9993 45.8334C22.1174 45.8334 19.4091 45.2865 16.8743 44.1928C14.3396 43.099 12.1348 41.6147 10.2598 39.7397C8.38477 37.8647 6.90039 35.6598 5.80664 33.1251C4.71289 30.5904 4.16602 27.882 4.16602 25.0001C4.16602 22.1181 4.71289 19.4098 5.80664 16.8751C6.90039 14.3404 8.38477 12.1355 10.2598 10.2605C12.1348 8.3855 14.3396 6.90112 16.8743 5.80737C19.4091 4.71362 22.1174 4.16675 24.9993 4.16675C27.8813 4.16675 30.5896 4.71362 33.1243 5.80737C35.6591 6.90112 37.8639 8.3855 39.7389 10.2605C41.6139 12.1355 43.0983 14.3404 44.1921 16.8751C45.2858 19.4098 45.8327 22.1181 45.8327 25.0001C45.8327 27.882 45.2858 30.5904 44.1921 33.1251C43.0983 35.6598 41.6139 37.8647 39.7389 39.7397C37.8639 41.6147 35.6591 43.099 33.1243 44.1928C30.5896 45.2865 27.8813 45.8334 24.9993 45.8334ZM22.916 41.5626V37.5001C21.7702 37.5001 20.7893 37.0921 19.9733 36.2761C19.1573 35.4602 18.7493 34.4792 18.7493 33.3334V31.2501L8.74935 21.2501C8.64518 21.8751 8.5497 22.5001 8.46289 23.1251C8.37609 23.7501 8.33268 24.3751 8.33268 25.0001C8.33268 29.2015 9.71289 32.882 12.4733 36.0417C15.2337 39.2015 18.7146 41.0417 22.916 41.5626ZM37.291 36.2501C37.9855 35.4862 38.6105 34.6615 39.166 33.7761C39.7216 32.8907 40.1816 31.9706 40.5462 31.0157C40.9108 30.0608 41.1886 29.0799 41.3796 28.073C41.5705 27.0661 41.666 26.0417 41.666 25.0001C41.666 21.5973 40.7198 18.4897 38.8275 15.6772C36.9351 12.8647 34.4091 10.8334 31.2493 9.58342V10.4167C31.2493 11.5626 30.8414 12.5435 30.0254 13.3595C29.2094 14.1754 28.2285 14.5834 27.0827 14.5834H22.916V18.7501C22.916 19.3404 22.7164 19.8352 22.3171 20.2345C21.9178 20.6338 21.423 20.8334 20.8327 20.8334H16.666V25.0001H29.166C29.7563 25.0001 30.2511 25.1997 30.6504 25.599C31.0497 25.9983 31.2493 26.4931 31.2493 27.0834V33.3334H33.3327C34.2355 33.3334 35.0514 33.6025 35.7806 34.1407C36.5098 34.6789 37.0132 35.382 37.291 36.2501Z" fill="#66A83A"/>
</g>
</svg>
