<svg width="50" height="50" viewBox="0 0 50 50" fill="none" xmlns="http://www.w3.org/2000/svg">
<g opacity="0.8">
<path d="M39.5833 25C39.5833 20.9375 38.1684 17.4913 35.3385 14.6615C32.5087 11.8316 29.0625 10.4167 25 10.4167V6.25C27.6042 6.25 30.0434 6.74479 32.3177 7.73438C34.592 8.72396 36.5712 10.0608 38.2552 11.7448C39.9392 13.4288 41.276 15.408 42.2656 17.6823C43.2552 19.9566 43.75 22.3958 43.75 25H39.5833ZM31.25 25C31.25 23.2639 30.6424 21.7882 29.4271 20.5729C28.2118 19.3576 26.7361 18.75 25 18.75V14.5833C27.8819 14.5833 30.3385 15.599 32.3698 17.6302C34.401 19.6615 35.4167 22.1181 35.4167 25H31.25ZM41.5625 43.75C37.2222 43.75 32.934 42.8038 28.6979 40.9115C24.4618 39.0191 20.6076 36.3368 17.1354 32.8646C13.6632 29.3924 10.9809 25.5382 9.08854 21.3021C7.19618 17.066 6.25 12.7778 6.25 8.4375C6.25 7.8125 6.45833 7.29167 6.875 6.875C7.29167 6.45833 7.8125 6.25 8.4375 6.25H16.875C17.3611 6.25 17.7951 6.41493 18.1771 6.74479C18.559 7.07465 18.7847 7.46528 18.8542 7.91667L20.2083 15.2083C20.2778 15.7639 20.2604 16.2326 20.1562 16.6146C20.0521 16.9965 19.8611 17.3264 19.5833 17.6042L14.5312 22.7083C15.2257 23.9931 16.0503 25.2344 17.0052 26.4323C17.9601 27.6302 19.0104 28.7847 20.1562 29.8958C21.2326 30.9722 22.3611 31.9705 23.5417 32.8906C24.7222 33.8108 25.9722 34.6528 27.2917 35.4167L32.1875 30.5208C32.5 30.2083 32.908 29.974 33.4115 29.8177C33.9149 29.6615 34.4097 29.6181 34.8958 29.6875L42.0833 31.1458C42.5694 31.2847 42.9688 31.5365 43.2812 31.901C43.5938 32.2656 43.75 32.6736 43.75 33.125V41.5625C43.75 42.1875 43.5417 42.7083 43.125 43.125C42.7083 43.5417 42.1875 43.75 41.5625 43.75ZM12.5521 18.75L15.9896 15.3125L15.1042 10.4167H10.4688C10.6424 11.8403 10.8854 13.2465 11.1979 14.6354C11.5104 16.0243 11.9618 17.3958 12.5521 18.75ZM31.1979 37.3958C32.5521 37.9861 33.9323 38.4549 35.3385 38.8021C36.7448 39.1493 38.1597 39.375 39.5833 39.4792V34.8958L34.6875 33.9062L31.1979 37.3958Z" fill="#66A83A"/>
</g>
</svg>
